<svg width="46" height="22" viewBox="0 0 46 22" fill="none" xmlns="http://www.w3.org/2000/svg">
<mask id="path-1-inside-1_875_5393" fill="white">
<path d="M0.323051 2.08389C0.547047 2.25895 0.442499 2.06125 0.687578 2.21798C0.932658 2.37471 1.09017 2.62951 1.35053 2.76516C1.6109 2.90081 1.88072 3.01996 2.15504 3.1327C2.42936 3.24543 2.752 3.2436 3.03759 3.3325C3.32319 3.42141 3.59581 3.51398 3.89001 3.57631C4.18421 3.63863 4.45106 3.82469 4.75209 3.85769C5.05268 3.89068 5.36189 3.99517 5.66619 3.997C5.97049 3.99884 6.26111 3.7587 6.56422 3.72754C6.91339 3.68629 7.24387 3.62855 7.58204 3.54973C4.96449 2.958 5.24757 4.09282 5.57913 3.99384C5.91068 3.89485 6.5759 3.87373 6.90479 3.77199C7.2377 3.66934 7.61881 3.68217 7.95165 3.5951C8.26568 3.51719 8.60343 3.33205 8.92273 3.27705C9.2389 3.22114 9.57053 3.2074 9.88618 3.1689C10.205 3.12949 10.5403 3.19456 10.859 3.16982C11.179 3.14507 11.5089 3.3293 11.8289 3.31738C12.1493 3.30547 12.4617 3.10657 12.7825 3.10566C13.1029 3.10566 13.4227 3.14049 13.7431 3.14874C14.0634 3.15698 14.3724 3.3183 14.6932 3.33388C15.0139 3.34946 15.3355 3.29447 15.6558 3.31371C15.9761 3.33296 16.2918 3.37054 16.6117 3.39345C16.9315 3.41637 17.2505 3.43195 17.5699 3.45578C17.8893 3.47961 18.234 3.24222 18.5538 3.26422C18.8737 3.28622 19.1669 3.57951 19.4872 3.59968C19.8066 3.61893 20.1349 3.53827 20.4553 3.55293C20.7975 3.57035 21.1456 3.47778 21.4896 3.48786C21.8336 3.49794 22.1716 3.65376 22.5157 3.65467C22.8598 3.65559 23.2037 3.60334 23.5469 3.59235C23.8901 3.58135 24.2419 3.65559 24.5848 3.63084C24.9272 3.60701 25.2385 3.33388 25.5792 3.29355C25.919 3.25322 26.2713 3.3073 26.6094 3.24956C26.9027 3.20281 27.2396 3.32013 27.5289 3.25781C27.8183 3.19548 28.0902 3.06166 28.3769 2.99384C28.6654 2.9251 28.9196 2.7482 29.2063 2.68313C29.493 2.61805 29.7904 2.56581 30.0793 2.51173C30.3682 2.45765 30.6769 2.47232 30.9707 2.44024C31.2644 2.40816 31.5592 2.22027 31.8568 2.22027C32.1544 2.22027 32.4382 2.41641 32.7361 2.45857C33.0071 2.50257 33.3303 2.38616 33.6021 2.45216C33.874 2.51815 34.1332 2.60339 34.4019 2.67396C34.6706 2.74454 34.9385 2.78303 35.2091 2.84352C35.4796 2.90402 35.7263 2.99384 36.0023 3.0305C36.302 3.069 36.5743 3.32196 36.8768 3.34029C37.1792 3.35863 37.4936 3.10199 37.797 3.10291C38.1004 3.10382 38.4002 3.21198 38.7028 3.19823C39.0063 3.18448 39.2938 3.04608 39.5946 3.0195C39.912 2.99201 40.2157 2.94068 40.5286 2.89943C40.8416 2.85819 41.161 2.8756 41.4723 2.82153C41.7835 2.76745 42.1176 2.81053 42.4262 2.7427C42.7349 2.67488 43.0995 2.77203 43.4046 2.69046C43.7097 2.60889 43.9212 2.28534 44.2219 2.19094C44.5647 2.08279 44.8696 1.93797 45.0133 1.67217C45.157 1.40637 45.0819 1.11399 44.9585 0.817946C44.8321 0.509985 44.6996 0.156196 44.3779 0.0361277C44.0563 -0.0839406 43.6912 0.1232 43.3443 0.254267C43.0306 0.367919 42.6331 0.30651 42.3087 0.403665C41.9866 0.499903 41.7116 0.740956 41.381 0.819779C41.0518 0.898603 40.7132 0.977425 40.3782 1.03792C40.0432 1.09841 39.6515 0.854607 39.3135 0.894936C38.9746 0.935264 38.6584 1.09749 38.3187 1.11766C37.979 1.13782 37.6392 1.18823 37.2987 1.1864C36.9676 1.18273 36.6394 1.22489 36.3205 1.19007C36.0016 1.15524 35.6411 1.22764 35.3202 1.15157C34.9903 1.07733 34.6661 0.924266 34.3103 0.845443C33.9545 0.766619 33.6756 0.470573 33.3251 0.417413C32.9692 0.363336 32.5909 0.313843 32.2415 0.30926C31.9207 0.302845 31.6058 0.478822 31.2965 0.502652C30.9791 0.526483 30.6601 0.513651 30.352 0.562228C30.0439 0.610805 29.6983 0.554895 29.3932 0.620887C29.0864 0.686879 28.8611 1.01959 28.5578 1.09474C28.2545 1.1699 27.9547 1.25514 27.6514 1.33121C27.3481 1.40729 26.998 1.33946 26.6925 1.40729C26.387 1.47511 26.0794 1.53285 25.7695 1.5851C25.4613 1.63734 25.1705 1.83623 24.8544 1.86465C24.5401 1.89673 24.2065 1.74824 23.8928 1.76657C23.579 1.78491 23.2676 1.97097 22.953 1.97647C22.6379 1.98196 22.3179 1.90314 22.0029 1.89856C21.6879 1.89398 21.3697 1.89856 21.0547 1.88573C20.7397 1.87289 20.4286 1.79682 20.1141 1.77757C19.7996 1.75833 19.4837 1.75649 19.1697 1.73266C18.8556 1.70883 18.529 1.79682 18.215 1.77116C17.901 1.74549 17.6157 1.47878 17.3021 1.4522C16.9886 1.42562 16.6457 1.66026 16.3321 1.63459C16.0185 1.60984 15.7156 1.49894 15.4016 1.47694C15.0875 1.45495 14.7743 1.44945 14.4598 1.43295C14.1453 1.41645 13.8368 1.34221 13.5214 1.33305C13.2059 1.32388 12.8927 1.42837 12.5772 1.42837C12.2626 1.42837 11.9451 1.19098 11.6295 1.20106C11.2827 1.21206 10.9476 1.41829 10.5985 1.44487C10.2525 1.47145 9.87224 1.26156 9.52573 1.30555C9.17923 1.34954 8.90103 1.71158 8.55845 1.77574C8.24184 1.82982 7.89639 1.73633 7.59576 1.81332C7.29514 1.89031 6.94483 1.88481 6.65039 1.97738C6.34477 2.0727 6.0352 2.15153 5.74521 2.24776C5.43956 2.35042 5.97886 2.96436 5.68935 3.05418C5.37702 3.15042 7.45581 2.34151 7.16061 2.40384C6.83768 2.47258 5.99378 2.26289 5.689 2.26839C5.38421 2.27572 5.06381 2.27755 4.75869 2.25831C4.45358 2.23906 4.13364 2.23723 3.83085 2.19598C3.52807 2.15474 3.27362 1.8926 2.97493 1.83486C2.67624 1.77712 2.36434 1.77528 2.06973 1.70379C1.77512 1.6323 1.61314 1.84881 1.3226 1.76815C1.03205 1.6875 0.416788 2.0024 0.129393 1.91625C-0.0923829 1.84567 1.87823 1.42114 1.80051 1.61544C1.74359 1.75751 -0.0234975 1.74045 0.0953887 1.83669C0.0869455 1.92743 0.323051 2.08389 0.323051 2.08389Z"/>
</mask>
<path d="M0.323051 2.08389C0.547047 2.25895 0.442499 2.06125 0.687578 2.21798C0.932658 2.37471 1.09017 2.62951 1.35053 2.76516C1.6109 2.90081 1.88072 3.01996 2.15504 3.1327C2.42936 3.24543 2.752 3.2436 3.03759 3.3325C3.32319 3.42141 3.59581 3.51398 3.89001 3.57631C4.18421 3.63863 4.45106 3.82469 4.75209 3.85769C5.05268 3.89068 5.36189 3.99517 5.66619 3.997C5.97049 3.99884 6.26111 3.7587 6.56422 3.72754C6.91339 3.68629 7.24387 3.62855 7.58204 3.54973C4.96449 2.958 5.24757 4.09282 5.57913 3.99384C5.91068 3.89485 6.5759 3.87373 6.90479 3.77199C7.2377 3.66934 7.61881 3.68217 7.95165 3.5951C8.26568 3.51719 8.60343 3.33205 8.92273 3.27705C9.2389 3.22114 9.57053 3.2074 9.88618 3.1689C10.205 3.12949 10.5403 3.19456 10.859 3.16982C11.179 3.14507 11.5089 3.3293 11.8289 3.31738C12.1493 3.30547 12.4617 3.10657 12.7825 3.10566C13.1029 3.10566 13.4227 3.14049 13.7431 3.14874C14.0634 3.15698 14.3724 3.3183 14.6932 3.33388C15.0139 3.34946 15.3355 3.29447 15.6558 3.31371C15.9761 3.33296 16.2918 3.37054 16.6117 3.39345C16.9315 3.41637 17.2505 3.43195 17.5699 3.45578C17.8893 3.47961 18.234 3.24222 18.5538 3.26422C18.8737 3.28622 19.1669 3.57951 19.4872 3.59968C19.8066 3.61893 20.1349 3.53827 20.4553 3.55293C20.7975 3.57035 21.1456 3.47778 21.4896 3.48786C21.8336 3.49794 22.1716 3.65376 22.5157 3.65467C22.8598 3.65559 23.2037 3.60334 23.5469 3.59235C23.8901 3.58135 24.2419 3.65559 24.5848 3.63084C24.9272 3.60701 25.2385 3.33388 25.5792 3.29355C25.919 3.25322 26.2713 3.3073 26.6094 3.24956C26.9027 3.20281 27.2396 3.32013 27.5289 3.25781C27.8183 3.19548 28.0902 3.06166 28.3769 2.99384C28.6654 2.9251 28.9196 2.7482 29.2063 2.68313C29.493 2.61805 29.7904 2.56581 30.0793 2.51173C30.3682 2.45765 30.6769 2.47232 30.9707 2.44024C31.2644 2.40816 31.5592 2.22027 31.8568 2.22027C32.1544 2.22027 32.4382 2.41641 32.7361 2.45857C33.0071 2.50257 33.3303 2.38616 33.6021 2.45216C33.874 2.51815 34.1332 2.60339 34.4019 2.67396C34.6706 2.74454 34.9385 2.78303 35.2091 2.84352C35.4796 2.90402 35.7263 2.99384 36.0023 3.0305C36.302 3.069 36.5743 3.32196 36.8768 3.34029C37.1792 3.35863 37.4936 3.10199 37.797 3.10291C38.1004 3.10382 38.4002 3.21198 38.7028 3.19823C39.0063 3.18448 39.2938 3.04608 39.5946 3.0195C39.912 2.99201 40.2157 2.94068 40.5286 2.89943C40.8416 2.85819 41.161 2.8756 41.4723 2.82153C41.7835 2.76745 42.1176 2.81053 42.4262 2.7427C42.7349 2.67488 43.0995 2.77203 43.4046 2.69046C43.7097 2.60889 43.9212 2.28534 44.2219 2.19094C44.5647 2.08279 44.8696 1.93797 45.0133 1.67217C45.157 1.40637 45.0819 1.11399 44.9585 0.817946C44.8321 0.509985 44.6996 0.156196 44.3779 0.0361277C44.0563 -0.0839406 43.6912 0.1232 43.3443 0.254267C43.0306 0.367919 42.6331 0.30651 42.3087 0.403665C41.9866 0.499903 41.7116 0.740956 41.381 0.819779C41.0518 0.898603 40.7132 0.977425 40.3782 1.03792C40.0432 1.09841 39.6515 0.854607 39.3135 0.894936C38.9746 0.935264 38.6584 1.09749 38.3187 1.11766C37.979 1.13782 37.6392 1.18823 37.2987 1.1864C36.9676 1.18273 36.6394 1.22489 36.3205 1.19007C36.0016 1.15524 35.6411 1.22764 35.3202 1.15157C34.9903 1.07733 34.6661 0.924266 34.3103 0.845443C33.9545 0.766619 33.6756 0.470573 33.3251 0.417413C32.9692 0.363336 32.5909 0.313843 32.2415 0.30926C31.9207 0.302845 31.6058 0.478822 31.2965 0.502652C30.9791 0.526483 30.6601 0.513651 30.352 0.562228C30.0439 0.610805 29.6983 0.554895 29.3932 0.620887C29.0864 0.686879 28.8611 1.01959 28.5578 1.09474C28.2545 1.1699 27.9547 1.25514 27.6514 1.33121C27.3481 1.40729 26.998 1.33946 26.6925 1.40729C26.387 1.47511 26.0794 1.53285 25.7695 1.5851C25.4613 1.63734 25.1705 1.83623 24.8544 1.86465C24.5401 1.89673 24.2065 1.74824 23.8928 1.76657C23.579 1.78491 23.2676 1.97097 22.953 1.97647C22.6379 1.98196 22.3179 1.90314 22.0029 1.89856C21.6879 1.89398 21.3697 1.89856 21.0547 1.88573C20.7397 1.87289 20.4286 1.79682 20.1141 1.77757C19.7996 1.75833 19.4837 1.75649 19.1697 1.73266C18.8556 1.70883 18.529 1.79682 18.215 1.77116C17.901 1.74549 17.6157 1.47878 17.3021 1.4522C16.9886 1.42562 16.6457 1.66026 16.3321 1.63459C16.0185 1.60984 15.7156 1.49894 15.4016 1.47694C15.0875 1.45495 14.7743 1.44945 14.4598 1.43295C14.1453 1.41645 13.8368 1.34221 13.5214 1.33305C13.2059 1.32388 12.8927 1.42837 12.5772 1.42837C12.2626 1.42837 11.9451 1.19098 11.6295 1.20106C11.2827 1.21206 10.9476 1.41829 10.5985 1.44487C10.2525 1.47145 9.87224 1.26156 9.52573 1.30555C9.17923 1.34954 8.90103 1.71158 8.55845 1.77574C8.24184 1.82982 7.89639 1.73633 7.59576 1.81332C7.29514 1.89031 6.94483 1.88481 6.65039 1.97738C6.34477 2.0727 6.0352 2.15153 5.74521 2.24776C5.43956 2.35042 5.97886 2.96436 5.68935 3.05418C5.37702 3.15042 7.45581 2.34151 7.16061 2.40384C6.83768 2.47258 5.99378 2.26289 5.689 2.26839C5.38421 2.27572 5.06381 2.27755 4.75869 2.25831C4.45358 2.23906 4.13364 2.23723 3.83085 2.19598C3.52807 2.15474 3.27362 1.8926 2.97493 1.83486C2.67624 1.77712 2.36434 1.77528 2.06973 1.70379C1.77512 1.6323 1.61314 1.84881 1.3226 1.76815C1.03205 1.6875 0.416788 2.0024 0.129393 1.91625C-0.0923829 1.84567 1.87823 1.42114 1.80051 1.61544C1.74359 1.75751 -0.0234975 1.74045 0.0953887 1.83669C0.0869455 1.92743 0.323051 2.08389 0.323051 2.08389Z" fill="#684010" stroke="#684010" stroke-width="200" mask="url(#path-1-inside-1_875_5393)"/>
<mask id="path-2-inside-2_875_5393" fill="white">
<path d="M0.249011 9.79174C0.469154 9.63337 0.0845156 9.84177 0.324887 9.69999C0.565259 9.55821 0.365421 9.75805 0.620349 9.63534C0.875277 9.51263 1.13916 9.40484 1.40733 9.30285C1.67549 9.20087 1.98899 9.20253 2.26777 9.1221C2.54656 9.04168 2.81279 8.95793 3.09956 8.90155C3.38634 8.84517 3.73727 8.87148 4.03027 8.84163C4.32283 8.81178 4.62478 8.71726 4.92051 8.7156C5.21625 8.71394 5.72167 8.71091 6.01577 8.7391C6.3545 8.77641 6.35944 8.85429 6.68694 8.9256C7.01445 8.9969 7.40573 8.91316 7.72653 9.00271C8.04732 9.09225 8.31566 9.09499 8.63382 9.18702C8.95588 9.27989 9.32641 9.26828 9.64862 9.34705C9.95269 9.41752 10.2783 9.58501 10.5878 9.63476C10.8942 9.68534 11.2163 9.69777 11.5225 9.7326C11.8317 9.76825 12.1585 9.70938 12.4678 9.73177C12.7785 9.75415 13.1016 9.5875 13.4124 9.59828C13.7237 9.60905 14.0244 9.78898 14.3361 9.78981C14.6475 9.78981 14.9587 9.7583 15.2702 9.75084C15.5816 9.74337 15.8841 9.59745 16.196 9.58335C16.508 9.56926 16.6872 9.62789 16.9987 9.61048C17.3103 9.59306 17.6974 9.87745 18.0086 9.85672C18.3197 9.83599 18.6299 9.82189 18.9406 9.80034C19.2513 9.77878 19.5492 9.69185 19.8604 9.67195C20.1715 9.65205 20.4942 9.6884 20.8058 9.67016C21.1165 9.65275 21.4344 9.72571 21.7459 9.71245C22.0787 9.69669 22.4156 9.78044 22.7501 9.77132C23.0845 9.7622 23.4152 9.62124 23.7496 9.62041C24.0839 9.61959 24.4173 9.66685 24.7507 9.6768C25.0841 9.68675 25.427 9.61959 25.7598 9.64197C26.0922 9.66353 26.3909 9.91061 26.7214 9.94709C27.051 9.98358 27.3941 9.93466 27.7219 9.98689C28.0063 10.0292 28.313 9.99104 28.5933 10.0474C28.8737 10.1038 29.4179 9.91234 29.6956 9.97369C29.975 10.0359 30.2194 9.89257 30.4971 9.95144C30.7748 10.0103 31.063 10.0576 31.343 10.1065C31.623 10.1554 31.9107 10.0958 32.1957 10.1248C32.4807 10.1538 32.7645 10.3238 33.0537 10.3238C33.3429 10.3238 33.6215 10.1464 33.9115 10.1082C34.1755 10.0684 34.4879 10.1737 34.753 10.114C35.0181 10.0543 35.2712 9.97722 35.5333 9.91338C35.7954 9.84953 35.9141 9.876 36.1778 9.82128C36.4416 9.76655 36.5652 9.86854 36.8339 9.83537C37.1256 9.80055 37.4064 9.92139 37.7006 9.90481C37.9947 9.88823 38.2966 10.1204 38.5915 10.1196C38.8863 10.1187 39.1792 10.0209 39.473 10.0333C39.7677 10.0458 40.0452 10.171 40.3371 10.195C40.6452 10.2199 40.9395 10.2663 41.2431 10.3036C41.5466 10.3409 41.8573 10.3252 42.159 10.3741C42.4607 10.423 42.7859 10.3841 43.0849 10.4454C43.3838 10.5068 43.1417 10.4061 43.437 10.4799C43.7324 10.5537 44.1183 10.4154 44.4092 10.5008C44.7408 10.5986 44.9602 10.7168 45.0961 10.9573C45.232 11.1977 45.1548 11.4622 45.0308 11.73C44.9035 12.0086 44.7698 12.3286 44.4555 12.4373C44.1413 12.5459 43.6793 12.8023 43.344 12.6837C43.0407 12.5809 43.2515 12.6493 42.9376 12.5614C42.6259 12.4743 42.3621 12.2562 42.042 12.1849C41.7232 12.1136 41.3952 12.0423 41.0706 11.9876C40.7459 11.9329 40.3619 12.1534 40.034 12.1169C39.7052 12.0805 39.3916 12.3806 39.0617 12.3623C38.7319 12.3441 38.4024 12.2985 38.0715 12.3001C37.7497 12.3034 37.4126 12.233 37.1023 12.2645C36.7919 12.296 36.4426 12.2305 36.1296 12.2993C35.808 12.3665 35.497 12.1876 35.1501 12.2589C34.8033 12.3302 34.3686 12.0856 34.0272 12.1337C33.6806 12.1826 33.3123 12.2274 32.9727 12.2315C32.6608 12.2373 32.3573 12.0781 32.057 12.0566C31.749 12.035 31.4388 12.0466 31.1401 12.0027C30.8414 11.9587 30.5047 12.0093 30.2092 11.9496C29.912 11.8899 29.8785 12.0042 29.5848 11.9362C29.2911 11.8682 29.001 11.7911 28.7074 11.7223C28.4137 11.6535 28.0726 11.7148 27.7767 11.6535C27.4808 11.5921 27.1826 11.5399 26.8822 11.4926C26.5835 11.4453 26.3036 11.2654 25.9969 11.2397C25.692 11.2107 25.3657 11.345 25.061 11.3284C24.7564 11.3119 24.4564 11.1435 24.1508 11.1386C23.8447 11.1336 23.5326 11.2049 23.2264 11.209C22.9202 11.2132 22.6111 11.209 22.3048 11.2207C21.9986 11.2323 21.6951 11.3011 21.3893 11.3185C21.0834 11.3359 20.7763 11.3376 20.4708 11.3591C20.1653 11.3807 19.8492 11.3011 19.5437 11.3243C19.2382 11.3475 18.9344 11.3367 18.6293 11.3607C18.3242 11.3847 18.0171 11.4246 17.7121 11.4478C17.407 11.4702 17.2676 11.4744 16.9621 11.4943C16.6566 11.5142 16.2483 11.2881 15.9424 11.303C15.6365 11.3179 15.3358 11.3851 15.0291 11.3934C14.7224 11.4017 14.4195 11.3071 14.1129 11.3071C13.8072 11.3071 13.4953 11.5219 13.1888 11.5128C12.852 11.5028 12.5292 11.3162 12.1903 11.2922C11.8545 11.2682 11.482 11.458 11.1459 11.4182C10.8098 11.3784 10.5446 11.0509 10.2126 10.9929C9.90568 10.944 9.56866 11.0285 9.27761 10.9589C8.98657 10.8892 8.59343 11.2215 8.30861 11.1377C8.01297 11.0515 7.71326 10.9802 7.43282 10.8931C7.13725 10.8003 6.96238 10.4695 6.68231 10.3882C6.38017 10.3011 6.27245 10.3024 5.98647 10.246C5.67363 10.1838 5.12536 10.0897 4.82927 10.0847C4.53319 10.0781 4.22186 10.0764 3.92509 10.0939C3.62832 10.1113 3.539 10.1382 3.24418 10.1755C2.94936 10.2128 2.4768 10.4247 2.18572 10.4769C1.89465 10.5291 1.71894 10.4243 1.43164 10.4889C1.14434 10.5536 1.11784 10.3749 0.834355 10.4479C0.550875 10.5208 1.04111 10.305 0.760619 10.3829C0.54411 10.4468 0.359225 10.4376 0.28645 10.2619C0.233135 10.1333 0.114581 9.9514 0.231469 9.86434C0.224546 9.78226 0.249011 9.79174 0.249011 9.79174Z"/>
</mask>
<path d="M0.249011 9.79174C0.469154 9.63337 0.0845156 9.84177 0.324887 9.69999C0.565259 9.55821 0.365421 9.75805 0.620349 9.63534C0.875277 9.51263 1.13916 9.40484 1.40733 9.30285C1.67549 9.20087 1.98899 9.20253 2.26777 9.1221C2.54656 9.04168 2.81279 8.95793 3.09956 8.90155C3.38634 8.84517 3.73727 8.87148 4.03027 8.84163C4.32283 8.81178 4.62478 8.71726 4.92051 8.7156C5.21625 8.71394 5.72167 8.71091 6.01577 8.7391C6.3545 8.77641 6.35944 8.85429 6.68694 8.9256C7.01445 8.9969 7.40573 8.91316 7.72653 9.00271C8.04732 9.09225 8.31566 9.09499 8.63382 9.18702C8.95588 9.27989 9.32641 9.26828 9.64862 9.34705C9.95269 9.41752 10.2783 9.58501 10.5878 9.63476C10.8942 9.68534 11.2163 9.69777 11.5225 9.7326C11.8317 9.76825 12.1585 9.70938 12.4678 9.73177C12.7785 9.75415 13.1016 9.5875 13.4124 9.59828C13.7237 9.60905 14.0244 9.78898 14.3361 9.78981C14.6475 9.78981 14.9587 9.7583 15.2702 9.75084C15.5816 9.74337 15.8841 9.59745 16.196 9.58335C16.508 9.56926 16.6872 9.62789 16.9987 9.61048C17.3103 9.59306 17.6974 9.87745 18.0086 9.85672C18.3197 9.83599 18.6299 9.82189 18.9406 9.80034C19.2513 9.77878 19.5492 9.69185 19.8604 9.67195C20.1715 9.65205 20.4942 9.6884 20.8058 9.67016C21.1165 9.65275 21.4344 9.72571 21.7459 9.71245C22.0787 9.69669 22.4156 9.78044 22.7501 9.77132C23.0845 9.7622 23.4152 9.62124 23.7496 9.62041C24.0839 9.61959 24.4173 9.66685 24.7507 9.6768C25.0841 9.68675 25.427 9.61959 25.7598 9.64197C26.0922 9.66353 26.3909 9.91061 26.7214 9.94709C27.051 9.98358 27.3941 9.93466 27.7219 9.98689C28.0063 10.0292 28.313 9.99104 28.5933 10.0474C28.8737 10.1038 29.4179 9.91234 29.6956 9.97369C29.975 10.0359 30.2194 9.89257 30.4971 9.95144C30.7748 10.0103 31.063 10.0576 31.343 10.1065C31.623 10.1554 31.9107 10.0958 32.1957 10.1248C32.4807 10.1538 32.7645 10.3238 33.0537 10.3238C33.3429 10.3238 33.6215 10.1464 33.9115 10.1082C34.1755 10.0684 34.4879 10.1737 34.753 10.114C35.0181 10.0543 35.2712 9.97722 35.5333 9.91338C35.7954 9.84953 35.9141 9.876 36.1778 9.82128C36.4416 9.76655 36.5652 9.86854 36.8339 9.83537C37.1256 9.80055 37.4064 9.92139 37.7006 9.90481C37.9947 9.88823 38.2966 10.1204 38.5915 10.1196C38.8863 10.1187 39.1792 10.0209 39.473 10.0333C39.7677 10.0458 40.0452 10.171 40.3371 10.195C40.6452 10.2199 40.9395 10.2663 41.2431 10.3036C41.5466 10.3409 41.8573 10.3252 42.159 10.3741C42.4607 10.423 42.7859 10.3841 43.0849 10.4454C43.3838 10.5068 43.1417 10.4061 43.437 10.4799C43.7324 10.5537 44.1183 10.4154 44.4092 10.5008C44.7408 10.5986 44.9602 10.7168 45.0961 10.9573C45.232 11.1977 45.1548 11.4622 45.0308 11.73C44.9035 12.0086 44.7698 12.3286 44.4555 12.4373C44.1413 12.5459 43.6793 12.8023 43.344 12.6837C43.0407 12.5809 43.2515 12.6493 42.9376 12.5614C42.6259 12.4743 42.3621 12.2562 42.042 12.1849C41.7232 12.1136 41.3952 12.0423 41.0706 11.9876C40.7459 11.9329 40.3619 12.1534 40.034 12.1169C39.7052 12.0805 39.3916 12.3806 39.0617 12.3623C38.7319 12.3441 38.4024 12.2985 38.0715 12.3001C37.7497 12.3034 37.4126 12.233 37.1023 12.2645C36.7919 12.296 36.4426 12.2305 36.1296 12.2993C35.808 12.3665 35.497 12.1876 35.1501 12.2589C34.8033 12.3302 34.3686 12.0856 34.0272 12.1337C33.6806 12.1826 33.3123 12.2274 32.9727 12.2315C32.6608 12.2373 32.3573 12.0781 32.057 12.0566C31.749 12.035 31.4388 12.0466 31.1401 12.0027C30.8414 11.9587 30.5047 12.0093 30.2092 11.9496C29.912 11.8899 29.8785 12.0042 29.5848 11.9362C29.2911 11.8682 29.001 11.7911 28.7074 11.7223C28.4137 11.6535 28.0726 11.7148 27.7767 11.6535C27.4808 11.5921 27.1826 11.5399 26.8822 11.4926C26.5835 11.4453 26.3036 11.2654 25.9969 11.2397C25.692 11.2107 25.3657 11.345 25.061 11.3284C24.7564 11.3119 24.4564 11.1435 24.1508 11.1386C23.8447 11.1336 23.5326 11.2049 23.2264 11.209C22.9202 11.2132 22.6111 11.209 22.3048 11.2207C21.9986 11.2323 21.6951 11.3011 21.3893 11.3185C21.0834 11.3359 20.7763 11.3376 20.4708 11.3591C20.1653 11.3807 19.8492 11.3011 19.5437 11.3243C19.2382 11.3475 18.9344 11.3367 18.6293 11.3607C18.3242 11.3847 18.0171 11.4246 17.7121 11.4478C17.407 11.4702 17.2676 11.4744 16.9621 11.4943C16.6566 11.5142 16.2483 11.2881 15.9424 11.303C15.6365 11.3179 15.3358 11.3851 15.0291 11.3934C14.7224 11.4017 14.4195 11.3071 14.1129 11.3071C13.8072 11.3071 13.4953 11.5219 13.1888 11.5128C12.852 11.5028 12.5292 11.3162 12.1903 11.2922C11.8545 11.2682 11.482 11.458 11.1459 11.4182C10.8098 11.3784 10.5446 11.0509 10.2126 10.9929C9.90568 10.944 9.56866 11.0285 9.27761 10.9589C8.98657 10.8892 8.59343 11.2215 8.30861 11.1377C8.01297 11.0515 7.71326 10.9802 7.43282 10.8931C7.13725 10.8003 6.96238 10.4695 6.68231 10.3882C6.38017 10.3011 6.27245 10.3024 5.98647 10.246C5.67363 10.1838 5.12536 10.0897 4.82927 10.0847C4.53319 10.0781 4.22186 10.0764 3.92509 10.0939C3.62832 10.1113 3.539 10.1382 3.24418 10.1755C2.94936 10.2128 2.4768 10.4247 2.18572 10.4769C1.89465 10.5291 1.71894 10.4243 1.43164 10.4889C1.14434 10.5536 1.11784 10.3749 0.834355 10.4479C0.550875 10.5208 1.04111 10.305 0.760619 10.3829C0.54411 10.4468 0.359225 10.4376 0.28645 10.2619C0.233135 10.1333 0.114581 9.9514 0.231469 9.86434C0.224546 9.78226 0.249011 9.79174 0.249011 9.79174Z" fill="#684010" stroke="#684010" stroke-width="200" mask="url(#path-2-inside-2_875_5393)"/>
<mask id="path-3-inside-3_875_5393" fill="white">
<path d="M0.0247501 19.3885C0.23718 19.2447 0.671679 19.3042 0.903648 19.1755C1.13562 19.0468 1.28672 18.8375 1.53275 18.7261C1.77878 18.6147 2.03347 18.5168 2.2923 18.4242C2.55113 18.3316 2.85378 18.3331 3.12288 18.2601C3.39197 18.1871 3.64894 18.1111 3.92576 18.0599C4.20258 18.0087 4.45535 17.8559 4.73819 17.8288C5.02062 17.8017 5.31207 17.7159 5.59757 17.7144C5.88308 17.7129 6.15258 17.9101 6.43653 17.9357C6.76357 17.9696 7.07285 18.017 7.38908 18.0817C7.7053 18.1465 8.083 18.0704 8.39275 18.1517C8.70251 18.233 8.91095 18.5326 9.21817 18.6162C9.52914 18.7005 9.88685 18.69 10.198 18.7615C10.4916 18.8255 10.806 18.9775 11.1048 19.0227C11.4007 19.0686 11.7116 19.0799 12.0073 19.1115C12.3058 19.1439 12.6212 19.0904 12.9199 19.1108C13.2198 19.1311 13.5317 18.9798 13.8318 18.9896C14.1322 18.9993 14.4226 19.1627 14.7236 19.1634C15.0242 19.1634 15.3247 19.1348 15.6253 19.1281C15.926 19.1213 16.2179 18.9888 16.5191 18.976C16.8202 18.9632 17.1211 19.0084 17.4219 18.9926C17.7226 18.9768 18.0194 18.9459 18.3197 18.9271C18.6201 18.9083 18.9195 18.8955 19.2195 18.8759C19.5195 18.8563 19.8397 19.0513 20.1401 19.0332C20.4404 19.0152 20.7193 18.7743 21.0201 18.7577C21.32 18.7419 21.627 18.8081 21.9277 18.7961C22.2489 18.7818 22.5743 18.8578 22.8971 18.8495C23.22 18.8413 23.5392 18.7133 23.862 18.7125C24.1848 18.7118 24.5067 18.7547 24.8286 18.7637C25.1504 18.7728 25.4814 18.7118 25.8027 18.7321C26.1237 18.7517 26.4121 18.976 26.7312 19.0091C27.0495 19.0423 27.3807 18.9978 27.6971 19.0453C27.9717 19.0837 28.2893 18.9873 28.5599 19.0385C28.8306 19.0897 29.0839 19.1996 29.352 19.2553C29.6218 19.3117 29.8579 19.457 30.126 19.5105C30.3942 19.5639 30.6725 19.6068 30.9428 19.6512C31.2131 19.6957 31.5029 19.6836 31.7781 19.71C32.0532 19.7363 32.3274 19.8906 32.6066 19.8906C32.8858 19.8906 33.1546 19.7295 33.4346 19.6949C33.6894 19.6588 33.9911 19.7544 34.2469 19.7002C34.5028 19.646 34.7472 19.576 35.0002 19.518C35.2532 19.46 35.505 19.4284 35.7596 19.3787C36.0142 19.3291 36.2468 19.2553 36.5062 19.2252C36.7879 19.1936 37.0467 18.9858 37.3307 18.9707C37.6146 18.9557 37.9062 19.1665 38.1909 19.1657C38.4755 19.165 38.7582 19.0761 39.0419 19.0874C39.3264 19.0987 39.5943 19.2124 39.8762 19.2342C40.1736 19.2568 40.4578 19.2989 40.7509 19.3328C41.044 19.3667 41.3439 19.3524 41.6352 19.3968C41.9264 19.4412 42.2404 19.4058 42.5291 19.4615C42.8177 19.5173 43.1611 19.4375 43.4463 19.5045C43.7314 19.5715 43.9256 19.8372 44.2064 19.9147C44.5266 20.0035 44.8108 20.1225 44.9421 20.3408C45.0735 20.5591 44.9992 20.7992 44.8796 21.0424C44.7569 21.2953 44.628 21.5859 44.3247 21.6845C44.0213 21.7831 43.6815 21.613 43.3578 21.5053C43.065 21.412 42.6913 21.4624 42.3883 21.3826C42.0873 21.3036 41.8325 21.1056 41.5234 21.0409C41.2155 20.9761 40.8989 20.9114 40.5854 20.8617C40.272 20.812 39.9013 21.0123 39.5847 20.9791C39.2673 20.946 38.9728 20.8128 38.6544 20.7962C38.336 20.7796 38.0178 20.7382 37.6984 20.7398C37.3877 20.7428 37.0804 20.7081 36.7807 20.7367C36.4811 20.7653 36.1439 20.7059 35.8418 20.7684C35.5313 20.8293 35.2252 20.955 34.8903 21.0198C34.5555 21.0845 34.29 21.3277 33.9605 21.3713C33.6259 21.4157 33.2704 21.4564 32.9425 21.4602C32.6414 21.4654 32.3483 21.3209 32.0584 21.3013C31.761 21.2817 31.4615 21.2923 31.1731 21.2524C30.8847 21.2125 30.5598 21.2584 30.2744 21.2042C29.9875 21.15 29.7804 20.8768 29.4968 20.815C29.2133 20.7533 28.9332 20.6833 28.6496 20.6208C28.3661 20.5583 28.0368 20.614 27.7511 20.5583C27.4654 20.5026 27.1775 20.4552 26.8874 20.4123C26.599 20.3694 26.3288 20.206 26.0326 20.1827C25.7382 20.1564 25.4233 20.2783 25.1292 20.2632C24.835 20.2482 24.5454 20.0954 24.2503 20.0909C23.9548 20.0863 23.6535 20.1511 23.3579 20.1548C23.0623 20.1586 22.7639 20.1548 22.4682 20.1654C22.1726 20.1759 21.8797 20.2384 21.5844 20.2542C21.2891 20.27 20.9927 20.2715 20.6978 20.2911C20.4028 20.3107 20.0976 20.2384 19.8027 20.2595C19.5077 20.2806 19.2366 20.4996 18.9421 20.5214C18.6476 20.5433 18.329 20.3506 18.0344 20.3716C17.7399 20.392 17.4543 20.4831 17.1594 20.5011C16.8645 20.5192 16.5706 20.5237 16.2753 20.5373C15.98 20.5508 15.6897 20.6118 15.3936 20.6193C15.0976 20.6268 14.8051 20.541 14.5091 20.541C14.214 20.541 13.9129 20.736 13.6171 20.7277C13.2919 20.7187 12.9801 20.5493 12.653 20.5275C12.3287 20.5056 11.9693 20.678 11.6448 20.6419C11.3203 20.6058 11.064 20.3084 10.7435 20.2557C10.4471 20.2113 10.1218 20.2881 9.8408 20.2249C9.55978 20.1616 9.23106 20.1661 8.95605 20.0901C8.67057 20.0118 8.38118 19.9471 8.11039 19.868C7.82498 19.7837 7.65595 19.4834 7.38553 19.4096C7.09377 19.3306 6.77583 19.3087 6.4997 19.2575C6.19764 19.2011 5.88223 19.1386 5.59638 19.1341C5.31054 19.1281 5.00998 19.1266 4.72348 19.1424C4.43698 19.1582 4.13681 19.1597 3.85221 19.1936C3.56762 19.2274 3.32548 19.4427 3.04451 19.4902C2.76354 19.5376 2.47091 19.5391 2.19359 19.5978C1.91627 19.6565 1.66959 19.7882 1.39596 19.8545C1.12233 19.9207 0.789778 19.8545 0.519033 19.9253C0.310053 19.9832 0.131557 19.9749 0.0611884 19.8153C0.00963699 19.6987 0.230312 19.5677 0.343103 19.4886C0.336368 19.4141 0.0247501 19.3885 0.0247501 19.3885Z"/>
</mask>
<path d="M0.0247501 19.3885C0.23718 19.2447 0.671679 19.3042 0.903648 19.1755C1.13562 19.0468 1.28672 18.8375 1.53275 18.7261C1.77878 18.6147 2.03347 18.5168 2.2923 18.4242C2.55113 18.3316 2.85378 18.3331 3.12288 18.2601C3.39197 18.1871 3.64894 18.1111 3.92576 18.0599C4.20258 18.0087 4.45535 17.8559 4.73819 17.8288C5.02062 17.8017 5.31207 17.7159 5.59757 17.7144C5.88308 17.7129 6.15258 17.9101 6.43653 17.9357C6.76357 17.9696 7.07285 18.017 7.38908 18.0817C7.7053 18.1465 8.083 18.0704 8.39275 18.1517C8.70251 18.233 8.91095 18.5326 9.21817 18.6162C9.52914 18.7005 9.88685 18.69 10.198 18.7615C10.4916 18.8255 10.806 18.9775 11.1048 19.0227C11.4007 19.0686 11.7116 19.0799 12.0073 19.1115C12.3058 19.1439 12.6212 19.0904 12.9199 19.1108C13.2198 19.1311 13.5317 18.9798 13.8318 18.9896C14.1322 18.9993 14.4226 19.1627 14.7236 19.1634C15.0242 19.1634 15.3247 19.1348 15.6253 19.1281C15.926 19.1213 16.2179 18.9888 16.5191 18.976C16.8202 18.9632 17.1211 19.0084 17.4219 18.9926C17.7226 18.9768 18.0194 18.9459 18.3197 18.9271C18.6201 18.9083 18.9195 18.8955 19.2195 18.8759C19.5195 18.8563 19.8397 19.0513 20.1401 19.0332C20.4404 19.0152 20.7193 18.7743 21.0201 18.7577C21.32 18.7419 21.627 18.8081 21.9277 18.7961C22.2489 18.7818 22.5743 18.8578 22.8971 18.8495C23.22 18.8413 23.5392 18.7133 23.862 18.7125C24.1848 18.7118 24.5067 18.7547 24.8286 18.7637C25.1504 18.7728 25.4814 18.7118 25.8027 18.7321C26.1237 18.7517 26.4121 18.976 26.7312 19.0091C27.0495 19.0423 27.3807 18.9978 27.6971 19.0453C27.9717 19.0837 28.2893 18.9873 28.5599 19.0385C28.8306 19.0897 29.0839 19.1996 29.352 19.2553C29.6218 19.3117 29.8579 19.457 30.126 19.5105C30.3942 19.5639 30.6725 19.6068 30.9428 19.6512C31.2131 19.6957 31.5029 19.6836 31.7781 19.71C32.0532 19.7363 32.3274 19.8906 32.6066 19.8906C32.8858 19.8906 33.1546 19.7295 33.4346 19.6949C33.6894 19.6588 33.9911 19.7544 34.2469 19.7002C34.5028 19.646 34.7472 19.576 35.0002 19.518C35.2532 19.46 35.505 19.4284 35.7596 19.3787C36.0142 19.3291 36.2468 19.2553 36.5062 19.2252C36.7879 19.1936 37.0467 18.9858 37.3307 18.9707C37.6146 18.9557 37.9062 19.1665 38.1909 19.1657C38.4755 19.165 38.7582 19.0761 39.0419 19.0874C39.3264 19.0987 39.5943 19.2124 39.8762 19.2342C40.1736 19.2568 40.4578 19.2989 40.7509 19.3328C41.044 19.3667 41.3439 19.3524 41.6352 19.3968C41.9264 19.4412 42.2404 19.4058 42.5291 19.4615C42.8177 19.5173 43.1611 19.4375 43.4463 19.5045C43.7314 19.5715 43.9256 19.8372 44.2064 19.9147C44.5266 20.0035 44.8108 20.1225 44.9421 20.3408C45.0735 20.5591 44.9992 20.7992 44.8796 21.0424C44.7569 21.2953 44.628 21.5859 44.3247 21.6845C44.0213 21.7831 43.6815 21.613 43.3578 21.5053C43.065 21.412 42.6913 21.4624 42.3883 21.3826C42.0873 21.3036 41.8325 21.1056 41.5234 21.0409C41.2155 20.9761 40.8989 20.9114 40.5854 20.8617C40.272 20.812 39.9013 21.0123 39.5847 20.9791C39.2673 20.946 38.9728 20.8128 38.6544 20.7962C38.336 20.7796 38.0178 20.7382 37.6984 20.7398C37.3877 20.7428 37.0804 20.7081 36.7807 20.7367C36.4811 20.7653 36.1439 20.7059 35.8418 20.7684C35.5313 20.8293 35.2252 20.955 34.8903 21.0198C34.5555 21.0845 34.29 21.3277 33.9605 21.3713C33.6259 21.4157 33.2704 21.4564 32.9425 21.4602C32.6414 21.4654 32.3483 21.3209 32.0584 21.3013C31.761 21.2817 31.4615 21.2923 31.1731 21.2524C30.8847 21.2125 30.5598 21.2584 30.2744 21.2042C29.9875 21.15 29.7804 20.8768 29.4968 20.815C29.2133 20.7533 28.9332 20.6833 28.6496 20.6208C28.3661 20.5583 28.0368 20.614 27.7511 20.5583C27.4654 20.5026 27.1775 20.4552 26.8874 20.4123C26.599 20.3694 26.3288 20.206 26.0326 20.1827C25.7382 20.1564 25.4233 20.2783 25.1292 20.2632C24.835 20.2482 24.5454 20.0954 24.2503 20.0909C23.9548 20.0863 23.6535 20.1511 23.3579 20.1548C23.0623 20.1586 22.7639 20.1548 22.4682 20.1654C22.1726 20.1759 21.8797 20.2384 21.5844 20.2542C21.2891 20.27 20.9927 20.2715 20.6978 20.2911C20.4028 20.3107 20.0976 20.2384 19.8027 20.2595C19.5077 20.2806 19.2366 20.4996 18.9421 20.5214C18.6476 20.5433 18.329 20.3506 18.0344 20.3716C17.7399 20.392 17.4543 20.4831 17.1594 20.5011C16.8645 20.5192 16.5706 20.5237 16.2753 20.5373C15.98 20.5508 15.6897 20.6118 15.3936 20.6193C15.0976 20.6268 14.8051 20.541 14.5091 20.541C14.214 20.541 13.9129 20.736 13.6171 20.7277C13.2919 20.7187 12.9801 20.5493 12.653 20.5275C12.3287 20.5056 11.9693 20.678 11.6448 20.6419C11.3203 20.6058 11.064 20.3084 10.7435 20.2557C10.4471 20.2113 10.1218 20.2881 9.8408 20.2249C9.55978 20.1616 9.23106 20.1661 8.95605 20.0901C8.67057 20.0118 8.38118 19.9471 8.11039 19.868C7.82498 19.7837 7.65595 19.4834 7.38553 19.4096C7.09377 19.3306 6.77583 19.3087 6.4997 19.2575C6.19764 19.2011 5.88223 19.1386 5.59638 19.1341C5.31054 19.1281 5.00998 19.1266 4.72348 19.1424C4.43698 19.1582 4.13681 19.1597 3.85221 19.1936C3.56762 19.2274 3.32548 19.4427 3.04451 19.4902C2.76354 19.5376 2.47091 19.5391 2.19359 19.5978C1.91627 19.6565 1.66959 19.7882 1.39596 19.8545C1.12233 19.9207 0.789778 19.8545 0.519033 19.9253C0.310053 19.9832 0.131557 19.9749 0.0611884 19.8153C0.00963699 19.6987 0.230312 19.5677 0.343103 19.4886C0.336368 19.4141 0.0247501 19.3885 0.0247501 19.3885Z" fill="#684010" stroke="#684010" stroke-width="200" mask="url(#path-3-inside-3_875_5393)"/>
</svg>
