<svg width="257" height="5" viewBox="0 0 257 5" fill="none" xmlns="http://www.w3.org/2000/svg">
<path d="M256.791 3.72453C255.592 3.49209 253.111 3.54666 251.8 3.33524C250.489 3.12381 249.645 2.79807 248.252 2.61147C246.859 2.42488 245.416 2.25791 243.949 2.09851C242.481 1.93911 240.756 1.91729 239.229 1.78641C237.702 1.65553 236.244 1.52111 234.67 1.42235C233.097 1.32358 231.669 1.07439 230.06 1.01125C228.452 0.948152 226.799 0.796313 225.172 0.771337C223.545 0.74636 221.993 1.02057 220.373 1.03635C218.507 1.0611 216.74 1.10758 214.933 1.17947C213.126 1.25135 210.98 1.10732 209.208 1.20455C207.436 1.30177 206.224 1.73432 204.467 1.83513C202.688 1.93677 200.65 1.89251 198.872 1.97496C197.193 2.04751 195.389 2.25044 193.683 2.29437C191.993 2.33966 190.22 2.33184 188.533 2.35572C186.829 2.38048 185.036 2.27526 183.332 2.28196C181.622 2.28856 179.857 2.03692 178.146 2.02771C176.433 2.01847 174.765 2.24024 173.05 2.21742C171.337 2.1935 169.627 2.12671 167.914 2.09263C166.202 2.05854 164.549 1.8367 162.834 1.79355C161.119 1.7504 159.401 1.79417 157.688 1.74653C155.976 1.6989 154.287 1.62902 152.577 1.57691C150.867 1.5248 149.162 1.48178 147.454 1.42857C145.746 1.37536 143.906 1.64215 142.196 1.59117C140.485 1.54018 138.916 1.15688 137.204 1.10812C135.496 1.06055 133.741 1.13543 132.029 1.09344C130.199 1.04644 128.339 1.13453 126.5 1.09642C124.66 1.05831 122.852 0.841072 121.013 0.814255C119.173 0.787439 117.336 0.826145 115.501 0.814074C113.666 0.802003 111.785 0.684256 109.952 0.689155C108.122 0.692958 106.46 1.00629 104.639 1.03055C102.822 1.05487 100.938 0.961935 99.1316 1.00785C97.5638 1.04355 95.7621 0.873836 94.2155 0.929032C92.6689 0.984229 91.2167 1.12883 89.6844 1.191C88.1424 1.25417 86.7851 1.45318 85.2528 1.51196C83.7205 1.57074 82.131 1.61292 80.587 1.65799C79.0429 1.70306 77.3924 1.66194 75.8224 1.67954C74.2524 1.69714 72.6775 1.90666 71.0866 1.88444C69.4956 1.86223 67.9771 1.59934 66.3844 1.52515C64.9351 1.4507 63.2085 1.57002 61.7547 1.4684C60.301 1.36679 58.9144 1.2424 57.4775 1.13537C56.0406 1.02835 54.6079 0.960909 53.1612 0.86617C51.7146 0.771431 50.395 0.642329 48.9193 0.576547C47.317 0.506739 45.8591 0.174685 44.2422 0.129517C42.6252 0.0843499 40.9465 0.37712 39.3245 0.353339C37.7025 0.329558 36.0989 0.173903 34.4814 0.168255C32.8592 0.162541 31.3233 0.311622 29.7152 0.321915C28.0187 0.332103 26.3958 0.372682 24.7229 0.400141C23.0501 0.427599 21.3423 0.382293 19.6788 0.425693C18.0153 0.469093 16.2291 0.391071 14.5797 0.451608C12.9303 0.512144 10.9802 0.365202 9.34969 0.442942C7.71918 0.520683 6.59117 0.903585 4.98434 0.997467C3.15274 1.10515 1.52359 1.26083 0.757254 1.57764C-0.00909956 1.89444 0.394626 2.26034 1.05631 2.63435C1.73452 3.02328 2.44546 3.46913 4.16586 3.6411C5.88627 3.81307 7.83654 3.58507 9.69003 3.44946C11.3665 3.33284 13.4915 3.43818 15.225 3.34268C16.9465 3.24814 18.4148 2.97163 20.1814 2.89918C21.9409 2.82662 23.7505 2.75477 25.5408 2.70524C27.331 2.6557 29.4268 2.98537 31.2335 2.96091C33.0449 2.93652 34.734 2.76021 36.5499 2.76073C38.3657 2.76124 40.1821 2.72449 42.0023 2.75217C43.7724 2.78141 45.5265 2.75395 47.2316 2.82068C48.9366 2.88741 50.8632 2.82509 52.5796 2.9428C54.3437 3.05891 56.0779 3.27173 57.9806 3.39542C59.8832 3.51911 61.3762 3.90474 63.2506 3.99641C65.1536 4.08962 67.1762 4.17885 69.0442 4.21058C70.7593 4.24244 72.4415 4.0491 74.0949 4.04283C75.7914 4.03715 77.4968 4.07678 79.1435 4.03992C80.7902 4.00306 82.6383 4.09776 84.2686 4.03922C85.9084 3.9808 87.1106 3.58764 88.7314 3.51767C90.3523 3.4477 91.9542 3.36505 93.5751 3.29395C95.1959 3.22285 97.0677 3.33256 98.7004 3.27179C100.333 3.21102 101.978 3.16283 103.634 3.12159C105.281 3.08022 106.834 2.85685 108.524 2.84543C110.203 2.82936 111.988 3.03724 113.665 3.03807C115.342 3.03891 117.006 2.83288 118.688 2.84959C120.372 2.86634 122.083 2.98736 123.767 3.01652C125.451 3.04569 127.152 3.0638 128.836 3.10312C130.52 3.14245 132.184 3.25942 133.865 3.30662C135.547 3.35381 137.236 3.37966 138.915 3.43247C140.594 3.48528 142.339 3.40123 144.018 3.4563C145.697 3.51137 147.224 3.86133 148.9 3.91749C150.577 3.97365 152.408 3.71012 154.085 3.76515C155.761 3.81906 157.381 3.97833 159.06 4.02888C160.739 4.07944 162.414 4.1096 164.095 4.15341C165.777 4.19722 167.426 4.31173 169.113 4.34657C170.799 4.38141 172.473 4.27605 174.16 4.2996C175.841 4.32308 177.541 4.63931 179.227 4.65044C181.081 4.66278 182.872 4.43368 184.738 4.42699C186.587 4.42007 188.621 4.70709 190.473 4.67875C192.325 4.65041 193.81 4.22505 195.641 4.17157C197.333 4.12857 199.181 4.26956 200.787 4.19713C202.394 4.1247 204.266 4.15763 205.84 4.06554C207.473 3.9709 209.127 3.89688 210.677 3.79994C212.31 3.69626 213.298 3.25945 214.845 3.17038C216.514 3.07511 218.327 3.06768 219.905 3.01292C221.631 2.95232 223.433 2.88376 225.063 2.89973C226.692 2.91345 228.405 2.93511 230.036 2.98161C231.667 3.02811 233.378 3.05425 234.997 3.12768C236.616 3.20111 237.978 3.54312 239.575 3.63657C241.172 3.73003 242.84 3.75557 244.415 3.86566C245.991 3.97575 247.385 4.19286 248.939 4.31394C250.493 4.43502 252.394 4.36218 253.931 4.4898C255.117 4.59332 256.134 4.59512 256.548 4.36148C256.852 4.19067 255.605 3.97675 254.969 3.84929C255.013 3.7381 256.793 3.72457 256.793 3.72457L256.791 3.72453Z" fill="#684010"/>
</svg>
