<svg width="184" height="24" viewBox="0 0 184 24" fill="none" xmlns="http://www.w3.org/2000/svg">
<path d="M32.5198 17.94C32.5198 18.18 32.5264 18.4133 32.5398 18.64C32.5398 18.72 32.4998 18.7867 32.4198 18.84C32.3398 18.88 32.2398 18.9133 32.1198 18.94C31.9998 18.9667 31.8664 18.9867 31.7198 19C31.5731 19 31.4398 19 31.3198 19C30.9864 19 30.6398 18.9867 30.2798 18.96C29.9331 18.92 29.6264 18.8867 29.3598 18.86V18.84V16.9C29.3598 15.6067 29.3998 14.3267 29.4798 13.06C29.5598 11.7933 29.5998 10.5133 29.5998 9.22C29.5998 9.15333 29.5998 9.09333 29.5998 9.04C29.5998 8.98667 29.5931 8.92667 29.5798 8.86C29.5131 8.84667 29.4531 8.9 29.3998 9.02C29.3464 9.12667 29.2864 9.25333 29.2198 9.4C29.1531 9.53333 29.0798 9.66 28.9998 9.78C28.9198 9.9 28.8264 9.96 28.7198 9.96C28.6531 9.96 28.4931 9.93333 28.2398 9.88C27.9864 9.82667 27.7131 9.76 27.4198 9.68C27.1264 9.6 26.8664 9.52 26.6398 9.44C26.4131 9.36 26.2998 9.28667 26.2998 9.22C26.3131 9.06 26.3798 8.84667 26.4998 8.58C26.6198 8.31333 26.7598 8.02 26.9198 7.7C27.0931 7.38 27.2798 7.05333 27.4798 6.72C27.6798 6.38667 27.8664 6.08 28.0398 5.8C28.2131 5.52 28.3598 5.28667 28.4798 5.1C28.6131 4.9 28.6931 4.78667 28.7198 4.76C29.0264 4.74667 29.3264 4.74 29.6198 4.74C29.9264 4.72667 30.2331 4.72 30.5398 4.72C30.8864 4.72 31.2331 4.72667 31.5798 4.74C31.9264 4.75333 32.2798 4.77333 32.6398 4.8C32.6798 5.37333 32.7064 5.94 32.7198 6.5C32.7331 7.04667 32.7398 7.6 32.7398 8.16C32.7398 9.69333 32.6998 11.2067 32.6198 12.7C32.5531 14.1933 32.5198 15.7067 32.5198 17.24C32.5198 17.4667 32.5198 17.7 32.5198 17.94ZM40.2879 13.88C40.2879 14 40.2879 14.1267 40.2879 14.26V14.44C40.2879 15.12 40.4879 15.7 40.8879 16.18C41.1279 16.4733 41.4479 16.6533 41.8479 16.72C42.2479 16.7733 42.6212 16.7467 42.9679 16.64C43.0879 16.6 43.1812 16.54 43.2479 16.46C43.3146 16.3667 43.3679 16.2667 43.4079 16.16C43.4479 16.04 43.4746 15.92 43.4879 15.8C43.5146 15.6667 43.5346 15.54 43.5479 15.42C43.5479 14.8867 43.5346 14.3467 43.5079 13.8C43.4946 13.24 43.4212 12.7067 43.2879 12.2C43.2079 12 43.0746 11.8467 42.8879 11.74C42.7146 11.62 42.5212 11.5467 42.3079 11.52C42.0946 11.4933 41.8812 11.5133 41.6679 11.58C41.4679 11.6333 41.2879 11.7267 41.1279 11.86C40.9279 12.0867 40.7546 12.34 40.6079 12.62C40.4746 12.8867 40.3812 13.1733 40.3279 13.48C40.3012 13.6133 40.2879 13.7467 40.2879 13.88ZM44.2679 22.92C44.0812 22.96 43.9079 22.9867 43.7479 23C43.6146 23.0267 43.3746 23.0333 43.0279 23.02C42.6812 23.0067 42.2346 23 41.6879 23C41.0612 23 40.5012 22.8667 40.0079 22.6C39.5146 22.3333 39.1146 21.9733 38.8079 21.52C38.7546 21.4267 38.7012 21.3 38.6479 21.14C38.6079 20.9933 38.5679 20.84 38.5279 20.68C38.5012 20.52 38.4812 20.3667 38.4679 20.22C38.4679 20.0733 38.4746 19.9467 38.4879 19.84C38.6212 19.7867 38.8012 19.7467 39.0279 19.72C39.2546 19.7067 39.4879 19.7 39.7279 19.7C39.9812 19.7133 40.2212 19.7267 40.4479 19.74C40.6879 19.7667 40.8879 19.7933 41.0479 19.82C41.0479 20.1667 41.1546 20.44 41.3679 20.64C41.5946 20.8533 41.8412 20.9733 42.1079 21C42.3879 21.0267 42.6546 20.96 42.9079 20.8C43.1746 20.64 43.3479 20.3733 43.4279 20C43.4412 19.8667 43.4546 19.7267 43.4679 19.58C43.4812 19.4467 43.4812 19.3267 43.4679 19.22C43.4412 18.9933 43.4412 18.76 43.4679 18.52C43.3346 18.6667 43.1746 18.7733 42.9879 18.84C42.8146 18.9067 42.6212 18.9533 42.4079 18.98C42.2079 19.0067 42.0012 19.02 41.7879 19.02C41.5746 19.02 41.3746 19.0267 41.1879 19.04C40.9346 19.04 40.6746 19.02 40.4079 18.98C40.1546 18.94 39.9079 18.8733 39.6679 18.78C39.4412 18.6867 39.2346 18.56 39.0479 18.4C38.8612 18.24 38.7079 18.0333 38.5879 17.78C38.4012 17.42 38.2679 17.0467 38.1879 16.66C38.1079 16.26 38.0546 15.8533 38.0279 15.44C38.0279 14.8133 38.0412 14.14 38.0679 13.42C38.0946 12.7 38.2079 12.0267 38.4079 11.4C38.6212 10.76 38.9546 10.2267 39.4079 9.8C39.8612 9.36 40.5146 9.11333 41.3679 9.06C41.7946 9.03333 42.1879 9.09333 42.5479 9.24C42.9212 9.37333 43.1879 9.62667 43.3479 10C43.4012 10.0267 43.4279 10.0067 43.4279 9.94C43.4412 9.86 43.4412 9.76667 43.4279 9.66C43.4279 9.54 43.4212 9.42667 43.4079 9.32C43.4079 9.2 43.4279 9.10667 43.4679 9.04C43.9079 8.98667 44.3546 8.97333 44.8079 9C45.2612 9.01333 45.7146 9.02 46.1679 9.02C46.2212 10.6867 46.2479 12.4333 46.2479 14.26C46.2612 16.0733 46.2279 17.94 46.1479 19.86C46.1346 20.18 46.1346 20.4933 46.1479 20.8C46.1612 21.12 46.1012 21.3867 45.9679 21.6C45.7812 21.8933 45.5879 22.1267 45.3879 22.3C45.2012 22.4733 45.0146 22.6067 44.8279 22.7C44.6412 22.8067 44.4546 22.88 44.2679 22.92ZM56.5638 14.1C56.0705 14.0867 55.7238 14.06 55.5238 14.02V14.36C55.5372 14.7467 55.5505 15.06 55.5638 15.3C55.5905 15.54 55.6772 15.7733 55.8238 16C55.9838 16.28 56.1972 16.4933 56.4638 16.64C56.7438 16.7733 57.0105 16.8133 57.2638 16.76C57.5305 16.7067 57.7572 16.5533 57.9438 16.3C58.1305 16.0467 58.2105 15.66 58.1838 15.14C58.3038 15.1533 58.4705 15.16 58.6838 15.16C58.8972 15.1467 59.1172 15.1333 59.3438 15.12C59.5838 15.1067 59.8105 15.1067 60.0238 15.12C60.2372 15.12 60.4105 15.14 60.5438 15.18C60.5172 15.5 60.4905 15.82 60.4638 16.14C60.4505 16.46 60.4238 16.76 60.3838 17.04C60.3438 17.3067 60.2972 17.54 60.2438 17.74C60.1905 17.9267 60.1172 18.06 60.0238 18.14C59.8105 18.4333 59.5305 18.64 59.1838 18.76C58.8372 18.88 58.4638 18.96 58.0638 19C57.6638 19.0267 57.2572 19.0267 56.8438 19C56.4305 18.96 56.0438 18.94 55.6838 18.94C55.2838 18.8733 54.9372 18.74 54.6438 18.54C54.3505 18.34 54.1038 18.1 53.9038 17.82C53.7572 17.94 53.5972 18.0667 53.4238 18.2C53.2638 18.32 53.0772 18.4467 52.8638 18.58C52.3438 18.8733 51.8038 19.0533 51.2438 19.12C50.6972 19.1867 50.1705 19.16 49.6638 19.04C49.1705 18.92 48.7238 18.72 48.3238 18.44C47.9238 18.1467 47.6172 17.7933 47.4038 17.38C47.1905 16.9667 47.0905 16.5067 47.1038 16C47.1305 15.48 47.3172 14.9267 47.6638 14.34C47.8772 14.0067 48.1905 13.7467 48.6038 13.56C49.0172 13.3733 49.4572 13.26 49.9238 13.22C50.3905 13.1667 50.8572 13.18 51.3238 13.26C51.7905 13.3267 52.1905 13.4533 52.5238 13.64C52.5105 13.3467 52.5038 13.1133 52.5038 12.94C52.5038 12.7533 52.5038 12.6067 52.5038 12.5C52.5038 12.38 52.5038 12.2867 52.5038 12.22C52.5038 12.14 52.4905 12.06 52.4638 11.98C52.3838 11.62 52.2105 11.3667 51.9438 11.22C51.6905 11.0733 51.4238 11.02 51.1438 11.06C50.8638 11.0867 50.6105 11.2067 50.3838 11.42C50.1572 11.62 50.0438 11.8867 50.0438 12.22C49.8838 12.2467 49.6905 12.2733 49.4638 12.3C49.2372 12.3267 49.0038 12.3467 48.7638 12.36C48.5238 12.36 48.2972 12.3533 48.0838 12.34C47.8705 12.3133 47.6972 12.2667 47.5638 12.2C47.4972 11.68 47.5772 11.2333 47.8038 10.86C48.0305 10.4733 48.3372 10.16 48.7238 9.92C49.1238 9.66667 49.5772 9.48667 50.0838 9.38C50.5905 9.26 51.0905 9.20667 51.5838 9.22C52.0772 9.22 52.5372 9.28667 52.9638 9.42C53.4038 9.55333 53.7505 9.74 54.0038 9.98C54.2438 9.76667 54.5238 9.58667 54.8438 9.44C55.1638 9.29333 55.4972 9.18667 55.8438 9.12C56.2038 9.05333 56.5705 9.02667 56.9438 9.04C57.3305 9.05333 57.7038 9.10667 58.0638 9.2C58.6505 9.30667 59.1172 9.51333 59.4638 9.82C59.8238 10.1133 60.0905 10.4733 60.2638 10.9C60.4505 11.3267 60.5572 11.8 60.5838 12.32C60.6238 12.8267 60.6238 13.34 60.5838 13.86C60.4505 13.9 60.1505 13.94 59.6838 13.98C59.2172 14.02 58.7038 14.0533 58.1438 14.08C57.5972 14.0933 57.0705 14.1 56.5638 14.1ZM49.5038 16.74C49.6638 16.9 49.9305 17.0067 50.3038 17.06C50.9438 17.1667 51.4172 17.14 51.7238 16.98C52.0305 16.8067 52.2238 16.5933 52.3038 16.34C52.3972 16.0733 52.3972 15.8067 52.3038 15.54C52.2238 15.2733 52.1038 15.0933 51.9438 15C51.5438 14.8133 51.1438 14.7133 50.7438 14.7C50.3572 14.6867 49.9905 14.8333 49.6438 15.14C49.5238 15.26 49.4172 15.42 49.3238 15.62C49.2438 15.8067 49.2105 16 49.2238 16.2C49.2505 16.3867 49.3438 16.5667 49.5038 16.74ZM58.3438 11.62C58.2238 11.38 58.0505 11.2067 57.8238 11.1C57.7172 11.0467 57.6105 11.0067 57.5038 10.98C57.4105 10.94 57.2972 10.92 57.1638 10.92C56.8572 10.92 56.6105 10.9533 56.4238 11.02C56.2372 11.0867 56.0838 11.1733 55.9638 11.28C55.8572 11.3867 55.7705 11.52 55.7038 11.68C55.6505 11.8267 55.6105 11.98 55.5838 12.14C55.5572 12.2867 55.5438 12.3867 55.5438 12.44C55.5572 12.4933 55.6172 12.5333 55.7238 12.56C55.8438 12.5733 56.0238 12.58 56.2638 12.58C56.5172 12.5667 56.8838 12.56 57.3638 12.56C57.6972 12.56 57.9438 12.5667 58.1038 12.58C58.2638 12.5933 58.3772 12.6 58.4438 12.6C58.5105 12.6 58.5438 12.58 58.5438 12.54C58.5438 12.5 58.5438 12.4333 58.5438 12.34C58.5438 12.0867 58.4772 11.8467 58.3438 11.62ZM69.3063 10.14C69.573 10.7133 69.7063 11.36 69.7063 12.08C69.2797 12.1467 68.8063 12.1867 68.2863 12.2C67.7797 12.2133 67.2997 12.1733 66.8463 12.08C66.8863 11.92 66.8663 11.76 66.7863 11.6C66.7197 11.44 66.613 11.3 66.4663 11.18C66.333 11.06 66.173 10.9733 65.9863 10.92C65.813 10.8533 65.6397 10.8267 65.4663 10.84C65.1597 10.8933 64.9263 11.0133 64.7663 11.2C64.6197 11.3733 64.5463 11.5667 64.5463 11.78C64.5463 11.9933 64.6263 12.2067 64.7863 12.42C64.9463 12.6333 65.1797 12.7933 65.4863 12.9C66.233 13.0067 66.933 13.1533 67.5863 13.34C68.2397 13.5133 68.7197 13.8 69.0263 14.2C69.3197 14.68 69.4997 15.1733 69.5663 15.68C69.633 16.1733 69.5397 16.7867 69.2863 17.52C68.9797 18.1733 68.4997 18.64 67.8463 18.92C67.193 19.2 66.4797 19.3333 65.7063 19.32C65.0263 19.3467 64.413 19.2867 63.8663 19.14C63.3197 18.9933 62.8463 18.7733 62.4463 18.48C62.0597 18.1867 61.753 17.8267 61.5263 17.4C61.313 16.9733 61.2063 16.4933 61.2063 15.96V15.9V15.86C61.6463 15.8067 62.1463 15.7933 62.7063 15.82C63.2663 15.8333 63.753 15.84 64.1663 15.84C64.1797 16.1467 64.3197 16.4 64.5863 16.6C64.8663 16.7867 65.1597 16.9 65.4663 16.94C65.773 16.9667 66.053 16.9067 66.3063 16.76C66.5597 16.6133 66.6797 16.3467 66.6663 15.96C66.7063 15.64 66.633 15.4 66.4463 15.24C66.2597 15.08 66.013 14.96 65.7063 14.88C65.3997 14.7867 65.053 14.7067 64.6663 14.64C64.2797 14.5733 63.8997 14.46 63.5263 14.3C62.7797 14.0467 62.233 13.6533 61.8863 13.12C61.553 12.5733 61.393 12.0133 61.4063 11.44C61.433 10.8533 61.6197 10.3133 61.9663 9.82C62.3263 9.32667 62.833 8.99333 63.4863 8.82C63.7397 8.75333 64.0463 8.7 64.4063 8.66C64.7797 8.62 65.173 8.6 65.5863 8.6C65.9997 8.6 66.413 8.62667 66.8263 8.68C67.2397 8.72 67.6197 8.78 67.9663 8.86C68.593 9.12667 69.0397 9.55333 69.3063 10.14ZM73.6102 5.34C73.8369 5.35333 74.0636 5.34667 74.2902 5.32V8C74.2902 8.17333 74.2902 8.35333 74.2902 8.54C74.3036 8.72667 74.3102 8.92 74.3102 9.12C74.7236 9.10667 75.1569 9.08667 75.6102 9.06C76.0769 9.03333 76.6502 9 77.3302 8.96C77.4236 9.06667 77.4769 9.22667 77.4902 9.44C77.5036 9.64 77.5036 9.86 77.4902 10.1C77.4769 10.34 77.4569 10.5867 77.4302 10.84C77.4169 11.08 77.4236 11.2867 77.4502 11.46H74.3502C74.3502 12.18 74.3502 12.8867 74.3502 13.58C74.3502 14.26 74.3569 14.9 74.3702 15.5C74.5036 15.6867 74.6969 15.8333 74.9502 15.94C75.2036 16.0467 75.4769 16.1333 75.7702 16.2C76.0636 16.2533 76.3569 16.2867 76.6502 16.3C76.9569 16.3133 77.2236 16.3133 77.4502 16.3C77.4769 16.4867 77.5036 16.6933 77.5302 16.92C77.5569 17.1467 77.5769 17.38 77.5902 17.62C77.6036 17.86 77.5969 18.1 77.5702 18.34C77.5569 18.58 77.5169 18.8 77.4502 19C76.9169 19.0267 76.3636 19.0267 75.7902 19C75.2169 18.96 74.6769 18.88 74.1702 18.76C73.6636 18.64 73.2102 18.46 72.8102 18.22C72.4236 17.98 72.1436 17.6533 71.9702 17.24C71.7969 16.2133 71.6969 15.2467 71.6702 14.34C71.6436 13.42 71.6369 12.4733 71.6502 11.5C71.4369 11.5133 71.2102 11.52 70.9702 11.52C70.7436 11.52 70.4902 11.52 70.2102 11.52L70.2702 9.08C70.5369 9.09333 70.7836 9.1 71.0102 9.1C71.2502 9.1 71.4769 9.1 71.6902 9.1C71.6902 8.80667 71.6836 8.49333 71.6702 8.16C71.6569 7.81333 71.6502 7.46667 71.6502 7.12C71.6502 6.77333 71.6502 6.44 71.6502 6.12C71.6636 5.8 71.6836 5.51333 71.7102 5.26C71.8836 5.23333 72.0702 5.22667 72.2702 5.24C72.4836 5.25333 72.7036 5.27333 72.9302 5.3C73.1569 5.31333 73.3836 5.32667 73.6102 5.34Z" fill="#2B3A06"/>
<path d="M8.13008 12.1301C10.376 12.1301 12.1951 10.311 12.1951 8.06504C12.1951 5.81911 10.376 4 8.13008 4C5.88415 4 4.06504 5.81911 4.06504 8.06504C4.06504 10.311 5.88415 12.1301 8.13008 12.1301ZM8.13008 14.1626C5.41667 14.1626 0 15.5244 0 18.2276V20.2602H16.2602V18.2276C16.2602 15.5244 10.8435 14.1626 8.13008 14.1626Z" fill="#364908"/>
<path d="M139.2 8.86C139.253 10.1 139.247 11.36 139.18 12.64L139.12 19.02C138.92 18.9933 138.7 18.98 138.46 18.98C138.22 18.98 137.98 18.98 137.74 18.98C137.5 18.98 137.267 18.9867 137.04 19C136.827 19 136.64 19 136.48 19C136.453 18.4267 136.433 17.8067 136.42 17.14C136.42 16.4733 136.413 15.7933 136.4 15.1C136.4 14.4067 136.38 13.7267 136.34 13.06C136.313 12.3933 136.267 11.78 136.2 11.22C136.107 11.3667 136 11.6 135.88 11.92C135.76 12.2267 135.64 12.5467 135.52 12.88C135.4 13.2133 135.287 13.5067 135.18 13.76C135.073 14.0133 134.993 14.14 134.94 14.14C134.873 14.14 134.793 14.0733 134.7 13.94C134.62 13.7933 134.533 13.6133 134.44 13.4C134.36 13.1867 134.273 12.96 134.18 12.72C134.087 12.48 134.007 12.26 133.94 12.06C133.873 11.86 133.813 11.6933 133.76 11.56C133.72 11.4267 133.7 11.36 133.7 11.36C133.593 12.6133 133.553 13.88 133.58 15.16C133.62 16.44 133.68 17.7 133.76 18.94C133.333 19.0067 132.867 19.0333 132.36 19.02C131.853 19.0067 131.387 19 130.96 19C130.933 19 130.913 18.98 130.9 18.94C130.887 18.8867 130.873 18.76 130.86 18.56C130.847 18.36 130.833 18.06 130.82 17.66C130.82 17.2467 130.82 16.7067 130.82 16.04C130.82 15.3733 130.82 14.5467 130.82 13.56C130.833 12.5733 130.84 11.4 130.84 10.04C130.853 8.68 130.867 7.09333 130.88 5.28C131.053 5.22667 131.253 5.19333 131.48 5.18C131.707 5.16667 131.94 5.16667 132.18 5.18C132.42 5.18 132.66 5.18667 132.9 5.2C133.14 5.2 133.373 5.19333 133.6 5.18H133.62C133.74 5.31333 133.86 5.52 133.98 5.8C134.1 6.06667 134.213 6.35333 134.32 6.66C134.427 6.96667 134.527 7.26 134.62 7.54C134.727 7.82 134.833 8.04 134.94 8.2C134.98 8.24 135.02 8.26 135.06 8.26C135.1 8.27333 135.16 8.14667 135.24 7.88C135.333 7.61333 135.427 7.30667 135.52 6.96C135.627 6.6 135.74 6.24667 135.86 5.9C135.993 5.55333 136.12 5.3 136.24 5.14C136.333 5.15333 136.5 5.15333 136.74 5.14C136.993 5.12667 137.26 5.11333 137.54 5.1C137.833 5.08667 138.127 5.08 138.42 5.08C138.727 5.06667 138.987 5.06 139.2 5.06C139.147 6.34 139.147 7.60667 139.2 8.86ZM140.74 10.48C140.82 10.2267 140.88 10.0267 140.92 9.88C141.013 9.68 141.16 9.50667 141.36 9.36C141.573 9.21333 141.813 9.09333 142.08 9C142.36 8.89333 142.653 8.82 142.96 8.78C143.28 8.74 143.6 8.72 143.92 8.72C144.186 8.74667 144.44 8.75333 144.68 8.74C144.933 8.71333 145.2 8.71333 145.48 8.74C145.906 8.76667 146.313 8.85333 146.7 9C147.086 9.13333 147.42 9.33333 147.7 9.6C147.886 9.72 148.033 9.91333 148.14 10.18C148.246 10.4467 148.326 10.76 148.38 11.12C148.433 11.4667 148.466 11.8533 148.48 12.28C148.493 12.6933 148.506 13.12 148.52 13.56C148.506 13.9467 148.486 14.3867 148.46 14.88C148.446 15.3733 148.413 15.8467 148.36 16.3C148.32 16.7533 148.26 17.16 148.18 17.52C148.113 17.88 148.013 18.1267 147.88 18.26C147.653 18.58 147.353 18.8067 146.98 18.94C146.62 19.0733 146.226 19.1533 145.8 19.18C145.373 19.22 144.933 19.22 144.48 19.18C144.026 19.1533 143.613 19.14 143.24 19.14C142.56 19.02 141.986 18.7267 141.52 18.26C141.16 17.94 140.913 17.54 140.78 17.06C140.646 16.58 140.566 16.08 140.54 15.56C140.513 15.0267 140.506 14.4933 140.52 13.96C140.546 13.4267 140.54 12.94 140.5 12.5C140.5 12.26 140.506 12.0267 140.52 11.8C140.533 11.56 140.56 11.3133 140.6 11.06C140.613 10.9133 140.66 10.72 140.74 10.48ZM144.1 11.8C143.82 11.88 143.593 12.0267 143.42 12.24C143.34 12.2933 143.28 12.4267 143.24 12.64C143.186 13.0667 143.16 13.4933 143.16 13.92C143.16 14.3333 143.146 14.7733 143.12 15.24C143.106 15.5467 143.186 15.7867 143.36 15.96C143.533 16.12 143.74 16.2333 143.98 16.3C144.233 16.3533 144.493 16.3667 144.76 16.34C145.026 16.3 145.246 16.2333 145.42 16.14C145.646 16.0333 145.8 15.8133 145.88 15.48C145.933 15.0533 145.973 14.6267 146 14.2C146.04 13.76 146.02 13.3467 145.94 12.96C145.873 12.4933 145.68 12.1533 145.36 11.94C145.04 11.7267 144.62 11.68 144.1 11.8ZM152.424 9.5C152.438 9.54 152.444 9.60667 152.444 9.7C152.498 9.67333 152.618 9.62 152.804 9.54C153.004 9.46 153.198 9.38667 153.384 9.32C153.638 9.24 153.924 9.18 154.244 9.14C154.564 9.08667 154.864 9.05333 155.144 9.04C155.424 9.02667 155.658 9.02667 155.844 9.04C156.044 9.04 156.144 9.04667 156.144 9.06C156.144 9.51333 156.138 9.91333 156.124 10.26C156.124 10.6067 156.124 10.92 156.124 11.2C156.124 11.4667 156.124 11.7133 156.124 11.94C156.124 12.1667 156.131 12.38 156.144 12.58L155.964 12.52C155.898 12.4933 155.824 12.4733 155.744 12.46C155.678 12.4333 155.611 12.4067 155.544 12.38C155.384 12.34 155.218 12.3067 155.044 12.28C154.884 12.2533 154.798 12.24 154.784 12.24C154.424 12.2 154.091 12.18 153.784 12.18C153.491 12.18 153.231 12.2267 153.004 12.32C152.791 12.4133 152.624 12.56 152.504 12.76C152.384 12.96 152.331 13.2467 152.344 13.62C152.358 14.0867 152.371 14.5267 152.384 14.94C152.398 15.3533 152.404 15.7733 152.404 16.2C152.404 16.6133 152.404 17.04 152.404 17.48C152.418 17.9067 152.424 18.3667 152.424 18.86V18.94C152.198 19.0067 151.991 19.0467 151.804 19.06C151.618 19.0733 151.424 19.0733 151.224 19.06C151.024 19.06 150.804 19.0533 150.564 19.04C150.338 19.0267 150.064 19.0333 149.744 19.06C149.744 17.42 149.724 15.78 149.684 14.14C149.658 12.5 149.671 10.8 149.724 9.04C149.884 9.05333 150.018 9.06667 150.124 9.08C150.231 9.08 150.331 9.08 150.424 9.08C150.518 9.08 150.618 9.08 150.724 9.08C150.831 9.06667 150.964 9.05333 151.124 9.04C151.178 9.04 151.271 9.03333 151.404 9.02C151.551 9.00667 151.698 8.99333 151.844 8.98C152.004 8.96667 152.138 8.96667 152.244 8.98C152.364 8.98 152.424 8.99333 152.424 9.02C152.424 9.12667 152.424 9.20667 152.424 9.26C152.424 9.31333 152.424 9.36 152.424 9.4C152.424 9.42667 152.424 9.46 152.424 9.5ZM159.048 13.88C159.048 14 159.048 14.1267 159.048 14.26V14.44C159.048 15.12 159.248 15.7 159.648 16.18C159.888 16.4733 160.208 16.6533 160.608 16.72C161.008 16.7733 161.381 16.7467 161.728 16.64C161.848 16.6 161.941 16.54 162.008 16.46C162.074 16.3667 162.128 16.2667 162.168 16.16C162.208 16.04 162.234 15.92 162.248 15.8C162.274 15.6667 162.294 15.54 162.308 15.42C162.308 14.8867 162.294 14.3467 162.268 13.8C162.254 13.24 162.181 12.7067 162.048 12.2C161.968 12 161.834 11.8467 161.648 11.74C161.474 11.62 161.281 11.5467 161.068 11.52C160.854 11.4933 160.641 11.5133 160.428 11.58C160.228 11.6333 160.048 11.7267 159.888 11.86C159.688 12.0867 159.514 12.34 159.368 12.62C159.234 12.8867 159.141 13.1733 159.088 13.48C159.061 13.6133 159.048 13.7467 159.048 13.88ZM163.028 22.92C162.841 22.96 162.668 22.9867 162.508 23C162.374 23.0267 162.134 23.0333 161.788 23.02C161.441 23.0067 160.994 23 160.448 23C159.821 23 159.261 22.8667 158.768 22.6C158.274 22.3333 157.874 21.9733 157.568 21.52C157.514 21.4267 157.461 21.3 157.408 21.14C157.368 20.9933 157.328 20.84 157.288 20.68C157.261 20.52 157.241 20.3667 157.228 20.22C157.228 20.0733 157.234 19.9467 157.248 19.84C157.381 19.7867 157.561 19.7467 157.788 19.72C158.014 19.7067 158.248 19.7 158.488 19.7C158.741 19.7133 158.981 19.7267 159.208 19.74C159.448 19.7667 159.648 19.7933 159.808 19.82C159.808 20.1667 159.914 20.44 160.128 20.64C160.354 20.8533 160.601 20.9733 160.868 21C161.148 21.0267 161.414 20.96 161.668 20.8C161.934 20.64 162.108 20.3733 162.188 20C162.201 19.8667 162.214 19.7267 162.228 19.58C162.241 19.4467 162.241 19.3267 162.228 19.22C162.201 18.9933 162.201 18.76 162.228 18.52C162.094 18.6667 161.934 18.7733 161.748 18.84C161.574 18.9067 161.381 18.9533 161.168 18.98C160.968 19.0067 160.761 19.02 160.548 19.02C160.334 19.02 160.134 19.0267 159.948 19.04C159.694 19.04 159.434 19.02 159.168 18.98C158.914 18.94 158.668 18.8733 158.428 18.78C158.201 18.6867 157.994 18.56 157.808 18.4C157.621 18.24 157.468 18.0333 157.348 17.78C157.161 17.42 157.028 17.0467 156.948 16.66C156.868 16.26 156.814 15.8533 156.788 15.44C156.788 14.8133 156.801 14.14 156.828 13.42C156.854 12.7 156.968 12.0267 157.168 11.4C157.381 10.76 157.714 10.2267 158.168 9.8C158.621 9.36 159.274 9.11333 160.128 9.06C160.554 9.03333 160.948 9.09333 161.308 9.24C161.681 9.37333 161.948 9.62667 162.108 10C162.161 10.0267 162.188 10.0067 162.188 9.94C162.201 9.86 162.201 9.76667 162.188 9.66C162.188 9.54 162.181 9.42667 162.168 9.32C162.168 9.2 162.188 9.10667 162.228 9.04C162.668 8.98667 163.114 8.97333 163.568 9C164.021 9.01333 164.474 9.02 164.928 9.02C164.981 10.6867 165.008 12.4333 165.008 14.26C165.021 16.0733 164.988 17.94 164.908 19.86C164.894 20.18 164.894 20.4933 164.908 20.8C164.921 21.12 164.861 21.3867 164.728 21.6C164.541 21.8933 164.348 22.1267 164.148 22.3C163.961 22.4733 163.774 22.6067 163.588 22.7C163.401 22.8067 163.214 22.88 163.028 22.92ZM169.444 14.04C169.15 14.0267 168.937 14.0067 168.804 13.98V14.34C168.817 14.74 168.83 15.0667 168.844 15.32C168.87 15.5733 168.957 15.82 169.104 16.06C169.264 16.3667 169.49 16.5933 169.784 16.74C170.077 16.8867 170.364 16.9333 170.644 16.88C170.924 16.8267 171.157 16.6667 171.344 16.4C171.544 16.12 171.63 15.7067 171.604 15.16C171.737 15.1733 171.917 15.18 172.144 15.18C172.37 15.1667 172.604 15.1533 172.844 15.14C173.097 15.1267 173.337 15.1267 173.564 15.14C173.79 15.14 173.977 15.16 174.124 15.2C174.097 15.5467 174.07 15.8867 174.044 16.22C174.017 16.5533 173.984 16.8667 173.944 17.16C173.904 17.44 173.85 17.6867 173.784 17.9C173.73 18.1 173.657 18.24 173.564 18.32C173.337 18.64 173.044 18.8667 172.684 19C172.324 19.1333 171.93 19.2133 171.504 19.24C171.077 19.2667 170.637 19.2667 170.184 19.24C169.744 19.2133 169.337 19.2 168.964 19.2C168.59 19.1467 168.244 19.0267 167.924 18.84C167.564 18.5867 167.264 18.26 167.024 17.86C166.784 17.4467 166.59 17 166.444 16.52C166.297 16.0267 166.197 15.5067 166.144 14.96C166.09 14.4133 166.077 13.8667 166.104 13.32C166.144 12.8267 166.184 12.3533 166.224 11.9C166.277 11.4333 166.384 10.98 166.544 10.54C166.717 10.1533 166.984 9.82667 167.344 9.56C167.704 9.28 168.11 9.07333 168.564 8.94C169.017 8.79333 169.497 8.71333 170.004 8.7C170.51 8.68667 171.004 8.74 171.484 8.86C172.097 8.96667 172.59 9.18 172.964 9.5C173.337 9.82 173.617 10.2067 173.804 10.66C174.004 11.1133 174.124 11.6133 174.164 12.16C174.204 12.7067 174.204 13.26 174.164 13.82C174.07 13.8467 173.89 13.8733 173.624 13.9C173.37 13.9267 173.064 13.9533 172.704 13.98C172.357 14.0067 171.984 14.0267 171.584 14.04C171.184 14.0533 170.797 14.06 170.424 14.06C170.064 14.06 169.737 14.0533 169.444 14.04ZM171.784 11.42C171.65 11.18 171.464 11 171.224 10.88C171.117 10.8133 171.01 10.7667 170.904 10.74C170.797 10.7 170.67 10.68 170.524 10.68C170.204 10.68 169.944 10.7133 169.744 10.78C169.544 10.8467 169.384 10.94 169.264 11.06C169.144 11.18 169.05 11.32 168.984 11.48C168.93 11.64 168.89 11.8067 168.864 11.98C168.837 12.1267 168.824 12.2333 168.824 12.3C168.837 12.3533 168.904 12.3933 169.024 12.42C169.144 12.4333 169.33 12.44 169.584 12.44C169.85 12.4267 170.237 12.42 170.744 12.42C171.09 12.42 171.35 12.4267 171.524 12.44C171.697 12.4533 171.817 12.46 171.884 12.46C171.964 12.4467 172.004 12.4267 172.004 12.4C172.004 12.36 172.004 12.2867 172.004 12.18C172.004 11.9133 171.93 11.66 171.784 11.42ZM177.93 9.58C177.93 9.72667 177.937 9.89333 177.95 10.08C178.017 10.04 178.097 9.99333 178.19 9.94C178.297 9.88667 178.384 9.83333 178.45 9.78C178.73 9.58 179.044 9.42 179.39 9.3C179.737 9.18 180.09 9.11333 180.45 9.1C180.824 9.08667 181.184 9.12667 181.53 9.22C181.877 9.31333 182.19 9.48 182.47 9.72C182.604 9.84 182.704 10.0933 182.77 10.48C182.85 10.8533 182.897 11.3067 182.91 11.84C182.937 12.3733 182.944 12.96 182.93 13.6C182.93 14.2267 182.924 14.8667 182.91 15.52C182.897 16.16 182.884 16.78 182.87 17.38C182.857 17.98 182.864 18.5067 182.89 18.96C182.424 19.0267 182.004 19.0533 181.63 19.04C181.27 19.04 180.857 19.04 180.39 19.04C180.364 18.7333 180.35 18.3867 180.35 18C180.35 17.6133 180.35 17.2133 180.35 16.8C180.364 16.3867 180.364 15.9733 180.35 15.56C180.35 15.1467 180.337 14.76 180.31 14.4C180.297 14.24 180.284 14.0667 180.27 13.88C180.257 13.68 180.23 13.4867 180.19 13.3C180.164 13.1133 180.117 12.9467 180.05 12.8C179.997 12.6533 179.917 12.54 179.81 12.46C179.797 12.4467 179.784 12.44 179.77 12.44C179.757 12.44 179.744 12.4333 179.73 12.42C179.624 12.3667 179.464 12.3267 179.25 12.3C179.05 12.26 178.85 12.2733 178.65 12.34C178.45 12.3933 178.27 12.5133 178.11 12.7C177.95 12.8733 177.857 13.14 177.83 13.5C177.804 13.9667 177.797 14.4267 177.81 14.88C177.824 15.32 177.837 15.7667 177.85 16.22C177.877 16.66 177.89 17.1 177.89 17.54C177.89 17.98 177.864 18.42 177.81 18.86V18.94C177.584 19.0067 177.384 19.0467 177.21 19.06C177.05 19.0733 176.884 19.0733 176.71 19.06C176.537 19.06 176.344 19.0533 176.13 19.04C175.917 19.0267 175.65 19.0333 175.33 19.06C175.33 17.42 175.31 15.78 175.27 14.14C175.244 12.5 175.257 10.8 175.31 9.04C175.47 9.05333 175.604 9.06667 175.71 9.08C175.817 9.08 175.917 9.08 176.01 9.08C176.104 9.08 176.204 9.08 176.31 9.08C176.417 9.06667 176.55 9.05333 176.71 9.04C176.764 9.04 176.857 9.03333 176.99 9.02C177.124 8.99333 177.257 8.97333 177.39 8.96C177.524 8.94667 177.644 8.94667 177.75 8.96C177.857 8.96 177.91 8.98 177.91 9.02C177.937 9.24667 177.944 9.43333 177.93 9.58Z" fill="#2B3A06"/>
<path d="M110.727 5.31818V3.77273C110.727 3.34773 111.075 3 111.5 3C111.925 3 112.273 3.34773 112.273 3.77273V5.31818C112.273 5.74318 111.925 6.09091 111.5 6.09091C111.075 6.09091 110.727 5.74318 110.727 5.31818ZM116.415 7.675L117.504 6.57773C117.805 6.27636 117.805 5.78955 117.504 5.48818C117.203 5.18682 116.716 5.18682 116.415 5.48818L115.325 6.58545C115.024 6.88682 115.024 7.37364 115.325 7.675C115.626 7.97636 116.113 7.97636 116.415 7.675ZM119.227 10.7273H117.682C117.257 10.7273 116.909 11.075 116.909 11.5C116.909 11.925 117.257 12.2727 117.682 12.2727H119.227C119.652 12.2727 120 11.925 120 11.5C120 11.075 119.652 10.7273 119.227 10.7273ZM111.5 16.9091C111.075 16.9091 110.727 17.2568 110.727 17.6818V19.2273C110.727 19.6523 111.075 20 111.5 20C111.925 20 112.273 19.6523 112.273 19.2273V17.6818C112.273 17.2568 111.925 16.9091 111.5 16.9091ZM106.585 7.675L105.488 6.58545C105.187 6.28409 105.187 5.78955 105.488 5.49591C105.79 5.20227 106.284 5.19455 106.578 5.49591L107.667 6.58545C107.969 6.88682 107.969 7.38136 107.667 7.675C107.366 7.96864 106.879 7.97636 106.585 7.675ZM115.325 15.325C115.024 15.6264 115.024 16.1209 115.325 16.4145L116.415 17.5041C116.716 17.8055 117.21 17.8055 117.504 17.5041C117.805 17.2027 117.805 16.7082 117.504 16.4145L116.415 15.325C116.121 15.0236 115.626 15.0236 115.325 15.325ZM103.773 12.2727H105.318C105.743 12.2727 106.091 11.925 106.091 11.5C106.091 11.075 105.743 10.7273 105.318 10.7273H103.773C103.348 10.7273 103 11.075 103 11.5C103 11.925 103.348 12.2727 103.773 12.2727ZM106.585 17.5118L107.675 16.4223C107.976 16.1209 107.976 15.6264 107.675 15.3327C107.374 15.0391 106.879 15.0314 106.585 15.3327L105.496 16.4223C105.195 16.7236 105.195 17.2182 105.496 17.5118C105.79 17.8132 106.284 17.8132 106.585 17.5118ZM111.5 6.86364C108.942 6.86364 106.864 8.94227 106.864 11.5C106.864 14.0577 108.942 16.1364 111.5 16.1364C114.058 16.1364 116.136 14.0577 116.136 11.5C116.136 8.94227 114.058 6.86364 111.5 6.86364Z" fill="#364908"/>
</svg>
