<svg width="265" height="35" viewBox="0 0 265 35" fill="none" xmlns="http://www.w3.org/2000/svg">
<path d="M44.4623 26.41C44.4623 26.77 44.4723 27.12 44.4923 27.46C44.4923 27.58 44.4323 27.68 44.3123 27.76C44.1923 27.82 44.0423 27.87 43.8623 27.91C43.6823 27.95 43.4823 27.98 43.2623 28C43.0423 28 42.8423 28 42.6623 28C42.1623 28 41.6423 27.98 41.1023 27.94C40.5823 27.88 40.1223 27.83 39.7223 27.79V27.76V24.85C39.7223 22.91 39.7823 20.99 39.9023 19.09C40.0223 17.19 40.0823 15.27 40.0823 13.33C40.0823 13.23 40.0823 13.14 40.0823 13.06C40.0823 12.98 40.0723 12.89 40.0523 12.79C39.9523 12.77 39.8623 12.85 39.7823 13.03C39.7023 13.19 39.6123 13.38 39.5123 13.6C39.4123 13.8 39.3023 13.99 39.1823 14.17C39.0623 14.35 38.9223 14.44 38.7623 14.44C38.6623 14.44 38.4223 14.4 38.0423 14.32C37.6623 14.24 37.2523 14.14 36.8123 14.02C36.3723 13.9 35.9823 13.78 35.6423 13.66C35.3023 13.54 35.1323 13.43 35.1323 13.33C35.1523 13.09 35.2523 12.77 35.4323 12.37C35.6123 11.97 35.8223 11.53 36.0623 11.05C36.3223 10.57 36.6023 10.08 36.9023 9.58C37.2023 9.08 37.4823 8.62 37.7423 8.2C38.0023 7.78 38.2223 7.43 38.4023 7.15C38.6023 6.85 38.7223 6.68 38.7623 6.64C39.2223 6.62 39.6723 6.61 40.1123 6.61C40.5723 6.59 41.0323 6.58 41.4923 6.58C42.0123 6.58 42.5323 6.59 43.0523 6.61C43.5723 6.63 44.1023 6.66 44.6423 6.7C44.7023 7.56 44.7423 8.41 44.7623 9.25C44.7823 10.07 44.7923 10.9 44.7923 11.74C44.7923 14.04 44.7323 16.31 44.6123 18.55C44.5123 20.79 44.4623 23.06 44.4623 25.36C44.4623 25.7 44.4623 26.05 44.4623 26.41ZM56.1145 20.32C56.1145 20.5 56.1145 20.69 56.1145 20.89V21.16C56.1145 22.18 56.4145 23.05 57.0145 23.77C57.3745 24.21 57.8545 24.48 58.4545 24.58C59.0545 24.66 59.6145 24.62 60.1345 24.46C60.3145 24.4 60.4545 24.31 60.5545 24.19C60.6545 24.05 60.7345 23.9 60.7945 23.74C60.8545 23.56 60.8945 23.38 60.9145 23.2C60.9545 23 60.9845 22.81 61.0045 22.63C61.0045 21.83 60.9845 21.02 60.9445 20.2C60.9245 19.36 60.8145 18.56 60.6145 17.8C60.4945 17.5 60.2945 17.27 60.0145 17.11C59.7545 16.93 59.4645 16.82 59.1445 16.78C58.8245 16.74 58.5045 16.77 58.1845 16.87C57.8845 16.95 57.6145 17.09 57.3745 17.29C57.0745 17.63 56.8145 18.01 56.5945 18.43C56.3945 18.83 56.2545 19.26 56.1745 19.72C56.1345 19.92 56.1145 20.12 56.1145 20.32ZM62.0845 33.88C61.8045 33.94 61.5445 33.98 61.3045 34C61.1045 34.04 60.7445 34.05 60.2245 34.03C59.7045 34.01 59.0345 34 58.2145 34C57.2745 34 56.4345 33.8 55.6945 33.4C54.9545 33 54.3545 32.46 53.8945 31.78C53.8145 31.64 53.7345 31.45 53.6545 31.21C53.5945 30.99 53.5345 30.76 53.4745 30.52C53.4345 30.28 53.4045 30.05 53.3845 29.83C53.3845 29.61 53.3945 29.42 53.4145 29.26C53.6145 29.18 53.8845 29.12 54.2245 29.08C54.5645 29.06 54.9145 29.05 55.2745 29.05C55.6545 29.07 56.0145 29.09 56.3545 29.11C56.7145 29.15 57.0145 29.19 57.2545 29.23C57.2545 29.75 57.4145 30.16 57.7345 30.46C58.0745 30.78 58.4445 30.96 58.8445 31C59.2645 31.04 59.6645 30.94 60.0445 30.7C60.4445 30.46 60.7045 30.06 60.8245 29.5C60.8445 29.3 60.8645 29.09 60.8845 28.87C60.9045 28.67 60.9045 28.49 60.8845 28.33C60.8445 27.99 60.8445 27.64 60.8845 27.28C60.6845 27.5 60.4445 27.66 60.1645 27.76C59.9045 27.86 59.6145 27.93 59.2945 27.97C58.9945 28.01 58.6845 28.03 58.3645 28.03C58.0445 28.03 57.7445 28.04 57.4645 28.06C57.0845 28.06 56.6945 28.03 56.2945 27.97C55.9145 27.91 55.5445 27.81 55.1845 27.67C54.8445 27.53 54.5345 27.34 54.2545 27.1C53.9745 26.86 53.7445 26.55 53.5645 26.17C53.2845 25.63 53.0845 25.07 52.9645 24.49C52.8445 23.89 52.7645 23.28 52.7245 22.66C52.7245 21.72 52.7445 20.71 52.7845 19.63C52.8245 18.55 52.9945 17.54 53.2945 16.6C53.6145 15.64 54.1145 14.84 54.7945 14.2C55.4745 13.54 56.4545 13.17 57.7345 13.09C58.3745 13.05 58.9645 13.14 59.5045 13.36C60.0645 13.56 60.4645 13.94 60.7045 14.5C60.7845 14.54 60.8245 14.51 60.8245 14.41C60.8445 14.29 60.8445 14.15 60.8245 13.99C60.8245 13.81 60.8145 13.64 60.7945 13.48C60.7945 13.3 60.8245 13.16 60.8845 13.06C61.5445 12.98 62.2145 12.96 62.8945 13C63.5745 13.02 64.2545 13.03 64.9345 13.03C65.0145 15.53 65.0545 18.15 65.0545 20.89C65.0745 23.61 65.0245 26.41 64.9045 29.29C64.8845 29.77 64.8845 30.24 64.9045 30.7C64.9245 31.18 64.8345 31.58 64.6345 31.9C64.3545 32.34 64.0645 32.69 63.7645 32.95C63.4845 33.21 63.2045 33.41 62.9245 33.55C62.6445 33.71 62.3645 33.82 62.0845 33.88ZM80.5284 20.65C79.7884 20.63 79.2684 20.59 78.9684 20.53V21.04C78.9884 21.62 79.0084 22.09 79.0284 22.45C79.0684 22.81 79.1984 23.16 79.4184 23.5C79.6584 23.92 79.9784 24.24 80.3784 24.46C80.7984 24.66 81.1984 24.72 81.5784 24.64C81.9784 24.56 82.3184 24.33 82.5984 23.95C82.8784 23.57 82.9984 22.99 82.9584 22.21C83.1384 22.23 83.3884 22.24 83.7084 22.24C84.0284 22.22 84.3584 22.2 84.6984 22.18C85.0584 22.16 85.3984 22.16 85.7184 22.18C86.0384 22.18 86.2984 22.21 86.4984 22.27C86.4584 22.75 86.4184 23.23 86.3784 23.71C86.3584 24.19 86.3184 24.64 86.2584 25.06C86.1984 25.46 86.1284 25.81 86.0484 26.11C85.9684 26.39 85.8584 26.59 85.7184 26.71C85.3984 27.15 84.9784 27.46 84.4584 27.64C83.9384 27.82 83.3784 27.94 82.7784 28C82.1784 28.04 81.5684 28.04 80.9484 28C80.3284 27.94 79.7484 27.91 79.2084 27.91C78.6084 27.81 78.0884 27.61 77.6484 27.31C77.2084 27.01 76.8384 26.65 76.5384 26.23C76.3184 26.41 76.0784 26.6 75.8184 26.8C75.5784 26.98 75.2984 27.17 74.9784 27.37C74.1984 27.81 73.3884 28.08 72.5484 28.18C71.7284 28.28 70.9384 28.24 70.1784 28.06C69.4384 27.88 68.7684 27.58 68.1684 27.16C67.5684 26.72 67.1084 26.19 66.7884 25.57C66.4684 24.95 66.3184 24.26 66.3384 23.5C66.3784 22.72 66.6584 21.89 67.1784 21.01C67.4984 20.51 67.9684 20.12 68.5884 19.84C69.2084 19.56 69.8684 19.39 70.5684 19.33C71.2684 19.25 71.9684 19.27 72.6684 19.39C73.3684 19.49 73.9684 19.68 74.4684 19.96C74.4484 19.52 74.4384 19.17 74.4384 18.91C74.4384 18.63 74.4384 18.41 74.4384 18.25C74.4384 18.07 74.4384 17.93 74.4384 17.83C74.4384 17.71 74.4184 17.59 74.3784 17.47C74.2584 16.93 73.9984 16.55 73.5984 16.33C73.2184 16.11 72.8184 16.03 72.3984 16.09C71.9784 16.13 71.5984 16.31 71.2584 16.63C70.9184 16.93 70.7484 17.33 70.7484 17.83C70.5084 17.87 70.2184 17.91 69.8784 17.95C69.5384 17.99 69.1884 18.02 68.8284 18.04C68.4684 18.04 68.1284 18.03 67.8084 18.01C67.4884 17.97 67.2284 17.9 67.0284 17.8C66.9284 17.02 67.0484 16.35 67.3884 15.79C67.7284 15.21 68.1884 14.74 68.7684 14.38C69.3684 14 70.0484 13.73 70.8084 13.57C71.5684 13.39 72.3184 13.31 73.0584 13.33C73.7984 13.33 74.4884 13.43 75.1284 13.63C75.7884 13.83 76.3084 14.11 76.6884 14.47C77.0484 14.15 77.4684 13.88 77.9484 13.66C78.4284 13.44 78.9284 13.28 79.4484 13.18C79.9884 13.08 80.5384 13.04 81.0984 13.06C81.6784 13.08 82.2384 13.16 82.7784 13.3C83.6584 13.46 84.3584 13.77 84.8784 14.23C85.4184 14.67 85.8184 15.21 86.0784 15.85C86.3584 16.49 86.5184 17.2 86.5584 17.98C86.6184 18.74 86.6184 19.51 86.5584 20.29C86.3584 20.35 85.9084 20.41 85.2084 20.47C84.5084 20.53 83.7384 20.58 82.8984 20.62C82.0784 20.64 81.2884 20.65 80.5284 20.65ZM69.9384 24.61C70.1784 24.85 70.5784 25.01 71.1384 25.09C72.0984 25.25 72.8084 25.21 73.2684 24.97C73.7284 24.71 74.0184 24.39 74.1384 24.01C74.2784 23.61 74.2784 23.21 74.1384 22.81C74.0184 22.41 73.8384 22.14 73.5984 22C72.9984 21.72 72.3984 21.57 71.7984 21.55C71.2184 21.53 70.6684 21.75 70.1484 22.21C69.9684 22.39 69.8084 22.63 69.6684 22.93C69.5484 23.21 69.4984 23.5 69.5184 23.8C69.5584 24.08 69.6984 24.35 69.9384 24.61ZM83.1984 16.93C83.0184 16.57 82.7584 16.31 82.4184 16.15C82.2584 16.07 82.0984 16.01 81.9384 15.97C81.7984 15.91 81.6284 15.88 81.4284 15.88C80.9684 15.88 80.5984 15.93 80.3184 16.03C80.0384 16.13 79.8084 16.26 79.6284 16.42C79.4684 16.58 79.3384 16.78 79.2384 17.02C79.1584 17.24 79.0984 17.47 79.0584 17.71C79.0184 17.93 78.9984 18.08 78.9984 18.16C79.0184 18.24 79.1084 18.3 79.2684 18.34C79.4484 18.36 79.7184 18.37 80.0784 18.37C80.4584 18.35 81.0084 18.34 81.7284 18.34C82.2284 18.34 82.5984 18.35 82.8384 18.37C83.0784 18.39 83.2484 18.4 83.3484 18.4C83.4484 18.4 83.4984 18.37 83.4984 18.31C83.4984 18.25 83.4984 18.15 83.4984 18.01C83.4984 17.63 83.3984 17.27 83.1984 16.93ZM99.6421 14.71C100.042 15.57 100.242 16.54 100.242 17.62C99.6021 17.72 98.8921 17.78 98.1121 17.8C97.3521 17.82 96.6321 17.76 95.9521 17.62C96.0121 17.38 95.9821 17.14 95.8621 16.9C95.7621 16.66 95.6021 16.45 95.3821 16.27C95.1821 16.09 94.9421 15.96 94.6621 15.88C94.4021 15.78 94.1421 15.74 93.8821 15.76C93.4221 15.84 93.0721 16.02 92.8321 16.3C92.6121 16.56 92.5021 16.85 92.5021 17.17C92.5021 17.49 92.6221 17.81 92.8621 18.13C93.1021 18.45 93.4521 18.69 93.9121 18.85C95.0321 19.01 96.0821 19.23 97.0621 19.51C98.0421 19.77 98.7621 20.2 99.2221 20.8C99.6621 21.52 99.9321 22.26 100.032 23.02C100.132 23.76 99.9921 24.68 99.6121 25.78C99.1521 26.76 98.4321 27.46 97.4521 27.88C96.4721 28.3 95.4021 28.5 94.2421 28.48C93.2221 28.52 92.3021 28.43 91.4821 28.21C90.6621 27.99 89.9521 27.66 89.3521 27.22C88.7721 26.78 88.3121 26.24 87.9721 25.6C87.6521 24.96 87.4921 24.24 87.4921 23.44V23.35V23.29C88.1521 23.21 88.9021 23.19 89.7421 23.23C90.5821 23.25 91.3121 23.26 91.9321 23.26C91.9521 23.72 92.1621 24.1 92.5621 24.4C92.9821 24.68 93.4221 24.85 93.8821 24.91C94.3421 24.95 94.7621 24.86 95.1421 24.64C95.5221 24.42 95.7021 24.02 95.6821 23.44C95.7421 22.96 95.6321 22.6 95.3521 22.36C95.0721 22.12 94.7021 21.94 94.2421 21.82C93.7821 21.68 93.2621 21.56 92.6821 21.46C92.1021 21.36 91.5321 21.19 90.9721 20.95C89.8521 20.57 89.0321 19.98 88.5121 19.18C88.0121 18.36 87.7721 17.52 87.7921 16.66C87.8321 15.78 88.1121 14.97 88.6321 14.23C89.1721 13.49 89.9321 12.99 90.9121 12.73C91.2921 12.63 91.7521 12.55 92.2921 12.49C92.8521 12.43 93.4421 12.4 94.0621 12.4C94.6821 12.4 95.3021 12.44 95.9221 12.52C96.5421 12.58 97.1121 12.67 97.6321 12.79C98.5721 13.19 99.2421 13.83 99.6421 14.71ZM106.098 7.51C106.438 7.53 106.778 7.52 107.118 7.48V11.5C107.118 11.76 107.118 12.03 107.118 12.31C107.138 12.59 107.148 12.88 107.148 13.18C107.768 13.16 108.418 13.13 109.098 13.09C109.798 13.05 110.658 13 111.678 12.94C111.818 13.1 111.898 13.34 111.918 13.66C111.938 13.96 111.938 14.29 111.918 14.65C111.898 15.01 111.868 15.38 111.828 15.76C111.808 16.12 111.818 16.43 111.858 16.69H107.208C107.208 17.77 107.208 18.83 107.208 19.87C107.208 20.89 107.218 21.85 107.238 22.75C107.438 23.03 107.728 23.25 108.108 23.41C108.488 23.57 108.898 23.7 109.338 23.8C109.778 23.88 110.218 23.93 110.658 23.95C111.118 23.97 111.518 23.97 111.858 23.95C111.898 24.23 111.938 24.54 111.978 24.88C112.018 25.22 112.048 25.57 112.068 25.93C112.088 26.29 112.078 26.65 112.038 27.01C112.018 27.37 111.958 27.7 111.858 28C111.058 28.04 110.228 28.04 109.368 28C108.508 27.94 107.698 27.82 106.938 27.64C106.178 27.46 105.498 27.19 104.898 26.83C104.318 26.47 103.898 25.98 103.638 25.36C103.378 23.82 103.228 22.37 103.188 21.01C103.148 19.63 103.138 18.21 103.158 16.75C102.838 16.77 102.498 16.78 102.138 16.78C101.798 16.78 101.418 16.78 100.998 16.78L101.088 13.12C101.488 13.14 101.858 13.15 102.198 13.15C102.558 13.15 102.898 13.15 103.218 13.15C103.218 12.71 103.208 12.24 103.188 11.74C103.168 11.22 103.158 10.7 103.158 10.18C103.158 9.66 103.158 9.16 103.158 8.68C103.178 8.2 103.208 7.77 103.248 7.39C103.508 7.35 103.788 7.34 104.088 7.36C104.408 7.38 104.738 7.41 105.078 7.45C105.418 7.47 105.758 7.49 106.098 7.51Z" fill="#2B3A06"/>
<path d="M196.872 12.79C196.952 14.65 196.942 16.54 196.842 18.46L196.752 28.03C196.452 27.99 196.122 27.97 195.762 27.97C195.402 27.97 195.042 27.97 194.682 27.97C194.322 27.97 193.972 27.98 193.632 28C193.312 28 193.032 28 192.792 28C192.752 27.14 192.722 26.21 192.702 25.21C192.702 24.21 192.692 23.19 192.672 22.15C192.672 21.11 192.642 20.09 192.582 19.09C192.542 18.09 192.472 17.17 192.372 16.33C192.232 16.55 192.072 16.9 191.892 17.38C191.712 17.84 191.532 18.32 191.352 18.82C191.172 19.32 191.002 19.76 190.842 20.14C190.682 20.52 190.562 20.71 190.482 20.71C190.382 20.71 190.262 20.61 190.122 20.41C190.002 20.19 189.872 19.92 189.732 19.6C189.612 19.28 189.482 18.94 189.342 18.58C189.202 18.22 189.082 17.89 188.982 17.59C188.882 17.29 188.792 17.04 188.712 16.84C188.652 16.64 188.622 16.54 188.622 16.54C188.462 18.42 188.402 20.32 188.442 22.24C188.502 24.16 188.592 26.05 188.712 27.91C188.072 28.01 187.372 28.05 186.612 28.03C185.852 28.01 185.152 28 184.512 28C184.472 28 184.442 27.97 184.422 27.91C184.402 27.83 184.382 27.64 184.362 27.34C184.342 27.04 184.322 26.59 184.302 25.99C184.302 25.37 184.302 24.56 184.302 23.56C184.302 22.56 184.302 21.32 184.302 19.84C184.322 18.36 184.332 16.6 184.332 14.56C184.352 12.52 184.372 10.14 184.392 7.42C184.652 7.34 184.952 7.29 185.292 7.27C185.632 7.25 185.982 7.25 186.342 7.27C186.702 7.27 187.062 7.28 187.422 7.3C187.782 7.3 188.132 7.29 188.472 7.27H188.502C188.682 7.47 188.862 7.78 189.042 8.2C189.222 8.6 189.392 9.03 189.552 9.49C189.712 9.95 189.862 10.39 190.002 10.81C190.162 11.23 190.322 11.56 190.482 11.8C190.542 11.86 190.602 11.89 190.662 11.89C190.722 11.91 190.812 11.72 190.932 11.32C191.072 10.92 191.212 10.46 191.352 9.94C191.512 9.4 191.682 8.87 191.862 8.35C192.062 7.83 192.252 7.45 192.432 7.21C192.572 7.23 192.822 7.23 193.182 7.21C193.562 7.19 193.962 7.17 194.382 7.15C194.822 7.13 195.262 7.12 195.702 7.12C196.162 7.1 196.552 7.09 196.872 7.09C196.792 9.01 196.792 10.91 196.872 12.79ZM199.182 15.22C199.302 14.84 199.392 14.54 199.452 14.32C199.592 14.02 199.812 13.76 200.112 13.54C200.432 13.32 200.792 13.14 201.192 13C201.612 12.84 202.052 12.73 202.512 12.67C202.992 12.61 203.472 12.58 203.952 12.58C204.352 12.62 204.732 12.63 205.092 12.61C205.472 12.57 205.872 12.57 206.292 12.61C206.932 12.65 207.542 12.78 208.122 13C208.702 13.2 209.202 13.5 209.622 13.9C209.902 14.08 210.122 14.37 210.282 14.77C210.442 15.17 210.562 15.64 210.642 16.18C210.722 16.7 210.772 17.28 210.792 17.92C210.812 18.54 210.832 19.18 210.852 19.84C210.832 20.42 210.802 21.08 210.762 21.82C210.742 22.56 210.692 23.27 210.612 23.95C210.552 24.63 210.462 25.24 210.342 25.78C210.242 26.32 210.092 26.69 209.892 26.89C209.552 27.37 209.102 27.71 208.542 27.91C208.002 28.11 207.412 28.23 206.772 28.27C206.132 28.33 205.472 28.33 204.792 28.27C204.112 28.23 203.492 28.21 202.932 28.21C201.912 28.03 201.052 27.59 200.352 26.89C199.812 26.41 199.442 25.81 199.242 25.09C199.042 24.37 198.922 23.62 198.882 22.84C198.842 22.04 198.832 21.24 198.852 20.44C198.892 19.64 198.882 18.91 198.822 18.25C198.822 17.89 198.832 17.54 198.852 17.2C198.872 16.84 198.912 16.47 198.972 16.09C198.992 15.87 199.062 15.58 199.182 15.22ZM204.222 17.2C203.802 17.32 203.462 17.54 203.202 17.86C203.082 17.94 202.992 18.14 202.932 18.46C202.852 19.1 202.812 19.74 202.812 20.38C202.812 21 202.792 21.66 202.752 22.36C202.732 22.82 202.852 23.18 203.112 23.44C203.372 23.68 203.682 23.85 204.042 23.95C204.422 24.03 204.812 24.05 205.212 24.01C205.612 23.95 205.942 23.85 206.202 23.71C206.542 23.55 206.772 23.22 206.892 22.72C206.972 22.08 207.032 21.44 207.072 20.8C207.132 20.14 207.102 19.52 206.982 18.94C206.882 18.24 206.592 17.73 206.112 17.41C205.632 17.09 205.002 17.02 204.222 17.2ZM216.709 13.75C216.729 13.81 216.739 13.91 216.739 14.05C216.819 14.01 216.999 13.93 217.279 13.81C217.579 13.69 217.869 13.58 218.149 13.48C218.529 13.36 218.959 13.27 219.439 13.21C219.919 13.13 220.369 13.08 220.789 13.06C221.209 13.04 221.559 13.04 221.839 13.06C222.139 13.06 222.289 13.07 222.289 13.09C222.289 13.77 222.279 14.37 222.259 14.89C222.259 15.41 222.259 15.88 222.259 16.3C222.259 16.7 222.259 17.07 222.259 17.41C222.259 17.75 222.269 18.07 222.289 18.37L222.019 18.28C221.919 18.24 221.809 18.21 221.689 18.19C221.589 18.15 221.489 18.11 221.389 18.07C221.149 18.01 220.899 17.96 220.639 17.92C220.399 17.88 220.269 17.86 220.249 17.86C219.709 17.8 219.209 17.77 218.749 17.77C218.309 17.77 217.919 17.84 217.579 17.98C217.259 18.12 217.009 18.34 216.829 18.64C216.649 18.94 216.569 19.37 216.589 19.93C216.609 20.63 216.629 21.29 216.649 21.91C216.669 22.53 216.679 23.16 216.679 23.8C216.679 24.42 216.679 25.06 216.679 25.72C216.699 26.36 216.709 27.05 216.709 27.79V27.91C216.369 28.01 216.059 28.07 215.779 28.09C215.499 28.11 215.209 28.11 214.909 28.09C214.609 28.09 214.279 28.08 213.919 28.06C213.579 28.04 213.169 28.05 212.689 28.09C212.689 25.63 212.659 23.17 212.599 20.71C212.559 18.25 212.579 15.7 212.659 13.06C212.899 13.08 213.099 13.1 213.259 13.12C213.419 13.12 213.569 13.12 213.709 13.12C213.849 13.12 213.999 13.12 214.159 13.12C214.319 13.1 214.519 13.08 214.759 13.06C214.839 13.06 214.979 13.05 215.179 13.03C215.399 13.01 215.619 12.99 215.839 12.97C216.079 12.95 216.279 12.95 216.439 12.97C216.619 12.97 216.709 12.99 216.709 13.03C216.709 13.19 216.709 13.31 216.709 13.39C216.709 13.47 216.709 13.54 216.709 13.6C216.709 13.64 216.709 13.69 216.709 13.75ZM226.644 20.32C226.644 20.5 226.644 20.69 226.644 20.89V21.16C226.644 22.18 226.944 23.05 227.544 23.77C227.904 24.21 228.384 24.48 228.984 24.58C229.584 24.66 230.144 24.62 230.664 24.46C230.844 24.4 230.984 24.31 231.084 24.19C231.184 24.05 231.264 23.9 231.324 23.74C231.384 23.56 231.424 23.38 231.444 23.2C231.484 23 231.514 22.81 231.534 22.63C231.534 21.83 231.514 21.02 231.474 20.2C231.454 19.36 231.344 18.56 231.144 17.8C231.024 17.5 230.824 17.27 230.544 17.11C230.284 16.93 229.994 16.82 229.674 16.78C229.354 16.74 229.034 16.77 228.714 16.87C228.414 16.95 228.144 17.09 227.904 17.29C227.604 17.63 227.344 18.01 227.124 18.43C226.924 18.83 226.784 19.26 226.704 19.72C226.664 19.92 226.644 20.12 226.644 20.32ZM232.614 33.88C232.334 33.94 232.074 33.98 231.834 34C231.634 34.04 231.274 34.05 230.754 34.03C230.234 34.01 229.564 34 228.744 34C227.804 34 226.964 33.8 226.224 33.4C225.484 33 224.884 32.46 224.424 31.78C224.344 31.64 224.264 31.45 224.184 31.21C224.124 30.99 224.064 30.76 224.004 30.52C223.964 30.28 223.934 30.05 223.914 29.83C223.914 29.61 223.924 29.42 223.944 29.26C224.144 29.18 224.414 29.12 224.754 29.08C225.094 29.06 225.444 29.05 225.804 29.05C226.184 29.07 226.544 29.09 226.884 29.11C227.244 29.15 227.544 29.19 227.784 29.23C227.784 29.75 227.944 30.16 228.264 30.46C228.604 30.78 228.974 30.96 229.374 31C229.794 31.04 230.194 30.94 230.574 30.7C230.974 30.46 231.234 30.06 231.354 29.5C231.374 29.3 231.394 29.09 231.414 28.87C231.434 28.67 231.434 28.49 231.414 28.33C231.374 27.99 231.374 27.64 231.414 27.28C231.214 27.5 230.974 27.66 230.694 27.76C230.434 27.86 230.144 27.93 229.824 27.97C229.524 28.01 229.214 28.03 228.894 28.03C228.574 28.03 228.274 28.04 227.994 28.06C227.614 28.06 227.224 28.03 226.824 27.97C226.444 27.91 226.074 27.81 225.714 27.67C225.374 27.53 225.064 27.34 224.784 27.1C224.504 26.86 224.274 26.55 224.094 26.17C223.814 25.63 223.614 25.07 223.494 24.49C223.374 23.89 223.294 23.28 223.254 22.66C223.254 21.72 223.274 20.71 223.314 19.63C223.354 18.55 223.524 17.54 223.824 16.6C224.144 15.64 224.644 14.84 225.324 14.2C226.004 13.54 226.984 13.17 228.264 13.09C228.904 13.05 229.494 13.14 230.034 13.36C230.594 13.56 230.994 13.94 231.234 14.5C231.314 14.54 231.354 14.51 231.354 14.41C231.374 14.29 231.374 14.15 231.354 13.99C231.354 13.81 231.344 13.64 231.324 13.48C231.324 13.3 231.354 13.16 231.414 13.06C232.074 12.98 232.744 12.96 233.424 13C234.104 13.02 234.784 13.03 235.464 13.03C235.544 15.53 235.584 18.15 235.584 20.89C235.604 23.61 235.554 26.41 235.434 29.29C235.414 29.77 235.414 30.24 235.434 30.7C235.454 31.18 235.364 31.58 235.164 31.9C234.884 32.34 234.594 32.69 234.294 32.95C234.014 33.21 233.734 33.41 233.454 33.55C233.174 33.71 232.894 33.82 232.614 33.88ZM242.238 20.56C241.798 20.54 241.478 20.51 241.278 20.47V21.01C241.298 21.61 241.318 22.1 241.338 22.48C241.378 22.86 241.508 23.23 241.728 23.59C241.968 24.05 242.308 24.39 242.748 24.61C243.188 24.83 243.618 24.9 244.038 24.82C244.458 24.74 244.808 24.5 245.088 24.1C245.388 23.68 245.518 23.06 245.478 22.24C245.678 22.26 245.948 22.27 246.288 22.27C246.628 22.25 246.978 22.23 247.338 22.21C247.718 22.19 248.078 22.19 248.418 22.21C248.758 22.21 249.038 22.24 249.258 22.3C249.218 22.82 249.178 23.33 249.138 23.83C249.098 24.33 249.048 24.8 248.988 25.24C248.928 25.66 248.848 26.03 248.748 26.35C248.668 26.65 248.558 26.86 248.418 26.98C248.078 27.46 247.638 27.8 247.098 28C246.558 28.2 245.968 28.32 245.328 28.36C244.688 28.4 244.028 28.4 243.348 28.36C242.688 28.32 242.078 28.3 241.518 28.3C240.958 28.22 240.438 28.04 239.958 27.76C239.418 27.38 238.968 26.89 238.608 26.29C238.248 25.67 237.958 25 237.738 24.28C237.518 23.54 237.368 22.76 237.288 21.94C237.208 21.12 237.188 20.3 237.228 19.48C237.288 18.74 237.348 18.03 237.408 17.35C237.488 16.65 237.648 15.97 237.888 15.31C238.148 14.73 238.548 14.24 239.088 13.84C239.628 13.42 240.238 13.11 240.918 12.91C241.598 12.69 242.318 12.57 243.078 12.55C243.838 12.53 244.578 12.61 245.298 12.79C246.218 12.95 246.958 13.27 247.518 13.75C248.078 14.23 248.498 14.81 248.778 15.49C249.078 16.17 249.258 16.92 249.318 17.74C249.378 18.56 249.378 19.39 249.318 20.23C249.178 20.27 248.908 20.31 248.508 20.35C248.128 20.39 247.668 20.43 247.128 20.47C246.608 20.51 246.048 20.54 245.448 20.56C244.848 20.58 244.268 20.59 243.708 20.59C243.168 20.59 242.678 20.58 242.238 20.56ZM245.748 16.63C245.548 16.27 245.268 16 244.908 15.82C244.748 15.72 244.588 15.65 244.428 15.61C244.268 15.55 244.078 15.52 243.858 15.52C243.378 15.52 242.988 15.57 242.688 15.67C242.388 15.77 242.148 15.91 241.968 16.09C241.788 16.27 241.648 16.48 241.548 16.72C241.468 16.96 241.408 17.21 241.368 17.47C241.328 17.69 241.308 17.85 241.308 17.95C241.328 18.03 241.428 18.09 241.608 18.13C241.788 18.15 242.068 18.16 242.448 18.16C242.848 18.14 243.428 18.13 244.188 18.13C244.708 18.13 245.098 18.14 245.358 18.16C245.618 18.18 245.798 18.19 245.898 18.19C246.018 18.17 246.078 18.14 246.078 18.1C246.078 18.04 246.078 17.93 246.078 17.77C246.078 17.37 245.968 16.99 245.748 16.63ZM254.968 13.87C254.968 14.09 254.978 14.34 254.998 14.62C255.098 14.56 255.218 14.49 255.358 14.41C255.518 14.33 255.648 14.25 255.748 14.17C256.168 13.87 256.638 13.63 257.158 13.45C257.678 13.27 258.208 13.17 258.748 13.15C259.308 13.13 259.848 13.19 260.368 13.33C260.888 13.47 261.358 13.72 261.778 14.08C261.978 14.26 262.128 14.64 262.228 15.22C262.348 15.78 262.418 16.46 262.438 17.26C262.478 18.06 262.488 18.94 262.468 19.9C262.468 20.84 262.458 21.8 262.438 22.78C262.418 23.74 262.398 24.67 262.378 25.57C262.358 26.47 262.368 27.26 262.408 27.94C261.708 28.04 261.078 28.08 260.518 28.06C259.978 28.06 259.358 28.06 258.658 28.06C258.618 27.6 258.598 27.08 258.598 26.5C258.598 25.92 258.598 25.32 258.598 24.7C258.618 24.08 258.618 23.46 258.598 22.84C258.598 22.22 258.578 21.64 258.538 21.1C258.518 20.86 258.498 20.6 258.478 20.32C258.458 20.02 258.418 19.73 258.358 19.45C258.318 19.17 258.248 18.92 258.148 18.7C258.068 18.48 257.948 18.31 257.788 18.19C257.768 18.17 257.748 18.16 257.728 18.16C257.708 18.16 257.688 18.15 257.668 18.13C257.508 18.05 257.268 17.99 256.948 17.95C256.648 17.89 256.348 17.91 256.048 18.01C255.748 18.09 255.478 18.27 255.238 18.55C254.998 18.81 254.858 19.21 254.818 19.75C254.778 20.45 254.768 21.14 254.788 21.82C254.808 22.48 254.828 23.15 254.848 23.83C254.888 24.49 254.908 25.15 254.908 25.81C254.908 26.47 254.868 27.13 254.788 27.79V27.91C254.448 28.01 254.148 28.07 253.888 28.09C253.648 28.11 253.398 28.11 253.138 28.09C252.878 28.09 252.588 28.08 252.268 28.06C251.948 28.04 251.548 28.05 251.068 28.09C251.068 25.63 251.038 23.17 250.978 20.71C250.938 18.25 250.958 15.7 251.038 13.06C251.278 13.08 251.478 13.1 251.638 13.12C251.798 13.12 251.948 13.12 252.088 13.12C252.228 13.12 252.378 13.12 252.538 13.12C252.698 13.1 252.898 13.08 253.138 13.06C253.218 13.06 253.358 13.05 253.558 13.03C253.758 12.99 253.958 12.96 254.158 12.94C254.358 12.92 254.538 12.92 254.698 12.94C254.858 12.94 254.938 12.97 254.938 13.03C254.978 13.37 254.988 13.65 254.968 13.87Z" fill="#2B3A06"/>
<path d="M12.5723 17.5C16.0254 17.5 18.8223 14.7031 18.8223 11.25C18.8223 7.79688 16.0254 5 12.5723 5C9.11914 5 6.32227 7.79688 6.32227 11.25C6.32227 14.7031 9.11914 17.5 12.5723 17.5ZM12.5723 20.625C8.40039 20.625 0.0722656 22.7188 0.0722656 26.875V30H25.0723V26.875C25.0723 22.7188 16.7441 20.625 12.5723 20.625Z" fill="#364908"/>
<path d="M159.436 8.40909V6.13636C159.436 5.51136 159.947 5 160.572 5C161.197 5 161.709 5.51136 161.709 6.13636V8.40909C161.709 9.03409 161.197 9.54545 160.572 9.54545C159.947 9.54545 159.436 9.03409 159.436 8.40909ZM167.8 11.875L169.402 10.2614C169.845 9.81818 169.845 9.10227 169.402 8.65909C168.959 8.21591 168.243 8.21591 167.8 8.65909L166.197 10.2727C165.754 10.7159 165.754 11.4318 166.197 11.875C166.64 12.3182 167.356 12.3182 167.8 11.875ZM171.936 16.3636H169.663C169.038 16.3636 168.527 16.875 168.527 17.5C168.527 18.125 169.038 18.6364 169.663 18.6364H171.936C172.561 18.6364 173.072 18.125 173.072 17.5C173.072 16.875 172.561 16.3636 171.936 16.3636ZM160.572 25.4545C159.947 25.4545 159.436 25.9659 159.436 26.5909V28.8636C159.436 29.4886 159.947 30 160.572 30C161.197 30 161.709 29.4886 161.709 28.8636V26.5909C161.709 25.9659 161.197 25.4545 160.572 25.4545ZM153.345 11.875L151.731 10.2727C151.288 9.82955 151.288 9.10227 151.731 8.67045C152.175 8.23864 152.902 8.22727 153.334 8.67045L154.936 10.2727C155.379 10.7159 155.379 11.4432 154.936 11.875C154.493 12.3068 153.777 12.3182 153.345 11.875ZM166.197 23.125C165.754 23.5682 165.754 24.2955 166.197 24.7273L167.8 26.3295C168.243 26.7727 168.97 26.7727 169.402 26.3295C169.845 25.8864 169.845 25.1591 169.402 24.7273L167.8 23.125C167.368 22.6818 166.64 22.6818 166.197 23.125ZM149.209 18.6364H151.481C152.106 18.6364 152.618 18.125 152.618 17.5C152.618 16.875 152.106 16.3636 151.481 16.3636H149.209C148.584 16.3636 148.072 16.875 148.072 17.5C148.072 18.125 148.584 18.6364 149.209 18.6364ZM153.345 26.3409L154.947 24.7386C155.39 24.2955 155.39 23.5682 154.947 23.1364C154.504 22.7045 153.777 22.6932 153.345 23.1364L151.743 24.7386C151.3 25.1818 151.3 25.9091 151.743 26.3409C152.175 26.7841 152.902 26.7841 153.345 26.3409ZM160.572 10.6818C156.811 10.6818 153.754 13.7386 153.754 17.5C153.754 21.2614 156.811 24.3182 160.572 24.3182C164.334 24.3182 167.39 21.2614 167.39 17.5C167.39 13.7386 164.334 10.6818 160.572 10.6818Z" fill="#364908"/>
</svg>
