<?xml version="1.0" encoding="UTF-8"?>
<svg id="Layer_2" data-name="Layer 2" xmlns="http://www.w3.org/2000/svg" viewBox="0 0 119.76 119.28">
  <defs>
    <style>
      .cls-1 {
        fill: #634020;
        stroke-width: 0px;
      }
    </style>
  </defs>
  <g id="Layer_1-2" data-name="Layer 1">
    <path class="cls-1" d="m66.02,119.28v-41.24h17.67v-18.11c-5.06,0-10.03-.13-14.99.06-2.37.09-3.01-.71-2.87-2.95.18-2.73,0-5.48.05-8.23.08-4.45,2.37-6.73,6.8-6.78,3.57-.03,7.14,0,10.94,0v-17.76c-.17-.08-.38-.27-.6-.27-5.24-.02-10.5-.27-15.72.03-10.91.62-19.29,9.69-19.49,20.83-.09,4.9-.01,9.79-.01,14.96h-11.77v18.05h11.54v40.47C25.5,114.93-.86,92.65.02,58.39.92,23.74,30.55-2.74,65.23.23c30.64,2.62,57.2,29.5,54.31,64.85-2.77,33.82-31.3,53.25-53.52,54.21Z"/>
  </g>
</svg>