<svg width="17" height="17" viewBox="0 0 17 17" fill="none" xmlns="http://www.w3.org/2000/svg">
<path d="M2.69232 16.3382C2.71421 16.0633 2.82368 15.797 3.00977 15.5737C3.13018 15.4362 3.27248 15.3074 3.42574 15.1871C3.90738 14.8005 4.43282 14.4827 4.89257 14.079C5.28665 13.7268 5.69167 13.3832 6.08575 13.031L10.1579 10.6944L15.1714 8.41803L10.4863 5.48877C7.15851 4.0628 3.52426 3.04915 0.14177 1.64036C0.087037 1.62318 0.0323043 1.59741 0.0104112 1.55446C-0.0224285 1.49433 0.0104112 1.4342 0.0541974 1.37407C0.349754 0.970327 0.700044 0.600949 1.11601 0.265931C1.22548 0.171439 1.34589 0.0855368 1.49914 0.0339956C1.69618 -0.0261358 1.91511 -0.000365169 2.1231 0.0339956C3.90738 0.369013 5.07867 1.65754 6.50172 2.55951C7.72773 3.33263 9.17268 3.83086 10.6286 4.25178C11.2416 4.43218 11.975 4.53526 12.5004 4.81874C13.1682 5.17093 13.7483 5.75507 14.3285 6.18458C14.7992 6.53677 15.259 6.88038 15.7297 7.23258C15.9595 7.40438 16.1347 7.55042 16.277 7.77376C16.4521 8.04006 16.9338 8.39226 16.9885 8.67573C16.9885 8.71869 16.9885 8.77023 16.9666 8.81318C16.7477 9.43167 16.2332 9.62066 15.6749 9.98144C14.9853 10.4281 14.3723 10.9693 13.7264 11.459C13.1682 11.8885 12.6427 12.3867 12.0188 12.7561C11.351 13.1598 10.5738 13.4433 9.82947 13.7525C8.0014 14.5171 6.32657 15.4878 4.71743 16.5014C4.06064 16.9137 3.3929 17.3089 2.80178 16.6474C2.76894 16.6045 2.72516 16.5615 2.71421 16.5186C2.69232 16.467 2.69232 16.4241 2.69232 16.3726C2.69232 16.364 2.69232 16.3468 2.69232 16.3382Z" fill="#FAF7F3"/>
</svg>
