<svg width="270" height="24" viewBox="0 0 270 24" fill="none" xmlns="http://www.w3.org/2000/svg">
<path d="M100.727 6.31818V4.77273C100.727 4.34773 101.075 4 101.5 4C101.925 4 102.273 4.34773 102.273 4.77273V6.31818C102.273 6.74318 101.925 7.09091 101.5 7.09091C101.075 7.09091 100.727 6.74318 100.727 6.31818ZM106.415 8.675L107.504 7.57773C107.805 7.27636 107.805 6.78955 107.504 6.48818C107.203 6.18682 106.716 6.18682 106.415 6.48818L105.325 7.58545C105.024 7.88682 105.024 8.37364 105.325 8.675C105.626 8.97636 106.113 8.97636 106.415 8.675ZM109.227 11.7273H107.682C107.257 11.7273 106.909 12.075 106.909 12.5C106.909 12.925 107.257 13.2727 107.682 13.2727H109.227C109.652 13.2727 110 12.925 110 12.5C110 12.075 109.652 11.7273 109.227 11.7273ZM101.5 17.9091C101.075 17.9091 100.727 18.2568 100.727 18.6818V20.2273C100.727 20.6523 101.075 21 101.5 21C101.925 21 102.273 20.6523 102.273 20.2273V18.6818C102.273 18.2568 101.925 17.9091 101.5 17.9091ZM96.5855 8.675L95.4882 7.58545C95.1868 7.28409 95.1868 6.78955 95.4882 6.49591C95.7895 6.20227 96.2841 6.19455 96.5777 6.49591L97.6673 7.58545C97.9686 7.88682 97.9686 8.38136 97.6673 8.675C97.3659 8.96864 96.8791 8.97636 96.5855 8.675ZM105.325 16.325C105.024 16.6264 105.024 17.1209 105.325 17.4145L106.415 18.5041C106.716 18.8055 107.21 18.8055 107.504 18.5041C107.805 18.2027 107.805 17.7082 107.504 17.4145L106.415 16.325C106.121 16.0236 105.626 16.0236 105.325 16.325ZM93.7727 13.2727H95.3182C95.7432 13.2727 96.0909 12.925 96.0909 12.5C96.0909 12.075 95.7432 11.7273 95.3182 11.7273H93.7727C93.3477 11.7273 93 12.075 93 12.5C93 12.925 93.3477 13.2727 93.7727 13.2727ZM96.5855 18.5118L97.675 17.4223C97.9764 17.1209 97.9764 16.6264 97.675 16.3327C97.3736 16.0391 96.8791 16.0314 96.5855 16.3327L95.4959 17.4223C95.1945 17.7236 95.1945 18.2182 95.4959 18.5118C95.7895 18.8132 96.2841 18.8132 96.5855 18.5118ZM101.5 7.86364C98.9423 7.86364 96.8636 9.94227 96.8636 12.5C96.8636 15.0577 98.9423 17.1364 101.5 17.1364C104.058 17.1364 106.136 15.0577 106.136 12.5C106.136 9.94227 104.058 7.86364 101.5 7.86364Z" fill="#364908"/>
<path d="M129.2 8.86C129.253 10.1 129.247 11.36 129.18 12.64L129.12 19.02C128.92 18.9933 128.7 18.98 128.46 18.98C128.22 18.98 127.98 18.98 127.74 18.98C127.5 18.98 127.267 18.9867 127.04 19C126.827 19 126.64 19 126.48 19C126.453 18.4267 126.433 17.8067 126.42 17.14C126.42 16.4733 126.413 15.7933 126.4 15.1C126.4 14.4067 126.38 13.7267 126.34 13.06C126.313 12.3933 126.267 11.78 126.2 11.22C126.107 11.3667 126 11.6 125.88 11.92C125.76 12.2267 125.64 12.5467 125.52 12.88C125.4 13.2133 125.287 13.5067 125.18 13.76C125.073 14.0133 124.993 14.14 124.94 14.14C124.873 14.14 124.793 14.0733 124.7 13.94C124.62 13.7933 124.533 13.6133 124.44 13.4C124.36 13.1867 124.273 12.96 124.18 12.72C124.087 12.48 124.007 12.26 123.94 12.06C123.873 11.86 123.813 11.6933 123.76 11.56C123.72 11.4267 123.7 11.36 123.7 11.36C123.593 12.6133 123.553 13.88 123.58 15.16C123.62 16.44 123.68 17.7 123.76 18.94C123.333 19.0067 122.867 19.0333 122.36 19.02C121.853 19.0067 121.387 19 120.96 19C120.933 19 120.913 18.98 120.9 18.94C120.887 18.8867 120.873 18.76 120.86 18.56C120.847 18.36 120.833 18.06 120.82 17.66C120.82 17.2467 120.82 16.7067 120.82 16.04C120.82 15.3733 120.82 14.5467 120.82 13.56C120.833 12.5733 120.84 11.4 120.84 10.04C120.853 8.68 120.867 7.09333 120.88 5.28C121.053 5.22667 121.253 5.19333 121.48 5.18C121.707 5.16667 121.94 5.16667 122.18 5.18C122.42 5.18 122.66 5.18667 122.9 5.2C123.14 5.2 123.373 5.19333 123.6 5.18H123.62C123.74 5.31333 123.86 5.52 123.98 5.8C124.1 6.06667 124.213 6.35333 124.32 6.66C124.427 6.96667 124.527 7.26 124.62 7.54C124.727 7.82 124.833 8.04 124.94 8.2C124.98 8.24 125.02 8.26 125.06 8.26C125.1 8.27333 125.16 8.14667 125.24 7.88C125.333 7.61333 125.427 7.30667 125.52 6.96C125.627 6.6 125.74 6.24667 125.86 5.9C125.993 5.55333 126.12 5.3 126.24 5.14C126.333 5.15333 126.5 5.15333 126.74 5.14C126.993 5.12667 127.26 5.11333 127.54 5.1C127.833 5.08667 128.127 5.08 128.42 5.08C128.727 5.06667 128.987 5.06 129.2 5.06C129.147 6.34 129.147 7.60667 129.2 8.86ZM130.74 10.48C130.82 10.2267 130.88 10.0267 130.92 9.88C131.013 9.68 131.16 9.50667 131.36 9.36C131.573 9.21333 131.813 9.09333 132.08 9C132.36 8.89333 132.653 8.82 132.96 8.78C133.28 8.74 133.6 8.72 133.92 8.72C134.186 8.74667 134.44 8.75333 134.68 8.74C134.933 8.71333 135.2 8.71333 135.48 8.74C135.906 8.76667 136.313 8.85333 136.7 9C137.086 9.13333 137.42 9.33333 137.7 9.6C137.886 9.72 138.033 9.91333 138.14 10.18C138.246 10.4467 138.326 10.76 138.38 11.12C138.433 11.4667 138.466 11.8533 138.48 12.28C138.493 12.6933 138.506 13.12 138.52 13.56C138.506 13.9467 138.486 14.3867 138.46 14.88C138.446 15.3733 138.413 15.8467 138.36 16.3C138.32 16.7533 138.26 17.16 138.18 17.52C138.113 17.88 138.013 18.1267 137.88 18.26C137.653 18.58 137.353 18.8067 136.98 18.94C136.62 19.0733 136.226 19.1533 135.8 19.18C135.373 19.22 134.933 19.22 134.48 19.18C134.026 19.1533 133.613 19.14 133.24 19.14C132.56 19.02 131.986 18.7267 131.52 18.26C131.16 17.94 130.913 17.54 130.78 17.06C130.646 16.58 130.566 16.08 130.54 15.56C130.513 15.0267 130.506 14.4933 130.52 13.96C130.546 13.4267 130.54 12.94 130.5 12.5C130.5 12.26 130.506 12.0267 130.52 11.8C130.533 11.56 130.56 11.3133 130.6 11.06C130.613 10.9133 130.66 10.72 130.74 10.48ZM134.1 11.8C133.82 11.88 133.593 12.0267 133.42 12.24C133.34 12.2933 133.28 12.4267 133.24 12.64C133.186 13.0667 133.16 13.4933 133.16 13.92C133.16 14.3333 133.146 14.7733 133.12 15.24C133.106 15.5467 133.186 15.7867 133.36 15.96C133.533 16.12 133.74 16.2333 133.98 16.3C134.233 16.3533 134.493 16.3667 134.76 16.34C135.026 16.3 135.246 16.2333 135.42 16.14C135.646 16.0333 135.8 15.8133 135.88 15.48C135.933 15.0533 135.973 14.6267 136 14.2C136.04 13.76 136.02 13.3467 135.94 12.96C135.873 12.4933 135.68 12.1533 135.36 11.94C135.04 11.7267 134.62 11.68 134.1 11.8ZM142.424 9.5C142.438 9.54 142.444 9.60667 142.444 9.7C142.498 9.67333 142.618 9.62 142.804 9.54C143.004 9.46 143.198 9.38667 143.384 9.32C143.638 9.24 143.924 9.18 144.244 9.14C144.564 9.08667 144.864 9.05333 145.144 9.04C145.424 9.02667 145.658 9.02667 145.844 9.04C146.044 9.04 146.144 9.04667 146.144 9.06C146.144 9.51333 146.138 9.91333 146.124 10.26C146.124 10.6067 146.124 10.92 146.124 11.2C146.124 11.4667 146.124 11.7133 146.124 11.94C146.124 12.1667 146.131 12.38 146.144 12.58L145.964 12.52C145.898 12.4933 145.824 12.4733 145.744 12.46C145.678 12.4333 145.611 12.4067 145.544 12.38C145.384 12.34 145.218 12.3067 145.044 12.28C144.884 12.2533 144.798 12.24 144.784 12.24C144.424 12.2 144.091 12.18 143.784 12.18C143.491 12.18 143.231 12.2267 143.004 12.32C142.791 12.4133 142.624 12.56 142.504 12.76C142.384 12.96 142.331 13.2467 142.344 13.62C142.358 14.0867 142.371 14.5267 142.384 14.94C142.398 15.3533 142.404 15.7733 142.404 16.2C142.404 16.6133 142.404 17.04 142.404 17.48C142.418 17.9067 142.424 18.3667 142.424 18.86V18.94C142.198 19.0067 141.991 19.0467 141.804 19.06C141.618 19.0733 141.424 19.0733 141.224 19.06C141.024 19.06 140.804 19.0533 140.564 19.04C140.338 19.0267 140.064 19.0333 139.744 19.06C139.744 17.42 139.724 15.78 139.684 14.14C139.658 12.5 139.671 10.8 139.724 9.04C139.884 9.05333 140.018 9.06667 140.124 9.08C140.231 9.08 140.331 9.08 140.424 9.08C140.518 9.08 140.618 9.08 140.724 9.08C140.831 9.06667 140.964 9.05333 141.124 9.04C141.178 9.04 141.271 9.03333 141.404 9.02C141.551 9.00667 141.698 8.99333 141.844 8.98C142.004 8.96667 142.138 8.96667 142.244 8.98C142.364 8.98 142.424 8.99333 142.424 9.02C142.424 9.12667 142.424 9.20667 142.424 9.26C142.424 9.31333 142.424 9.36 142.424 9.4C142.424 9.42667 142.424 9.46 142.424 9.5ZM149.048 13.88C149.048 14 149.048 14.1267 149.048 14.26V14.44C149.048 15.12 149.248 15.7 149.648 16.18C149.888 16.4733 150.208 16.6533 150.608 16.72C151.008 16.7733 151.381 16.7467 151.728 16.64C151.848 16.6 151.941 16.54 152.008 16.46C152.074 16.3667 152.128 16.2667 152.168 16.16C152.208 16.04 152.234 15.92 152.248 15.8C152.274 15.6667 152.294 15.54 152.308 15.42C152.308 14.8867 152.294 14.3467 152.268 13.8C152.254 13.24 152.181 12.7067 152.048 12.2C151.968 12 151.834 11.8467 151.648 11.74C151.474 11.62 151.281 11.5467 151.068 11.52C150.854 11.4933 150.641 11.5133 150.428 11.58C150.228 11.6333 150.048 11.7267 149.888 11.86C149.688 12.0867 149.514 12.34 149.368 12.62C149.234 12.8867 149.141 13.1733 149.088 13.48C149.061 13.6133 149.048 13.7467 149.048 13.88ZM153.028 22.92C152.841 22.96 152.668 22.9867 152.508 23C152.374 23.0267 152.134 23.0333 151.788 23.02C151.441 23.0067 150.994 23 150.448 23C149.821 23 149.261 22.8667 148.768 22.6C148.274 22.3333 147.874 21.9733 147.568 21.52C147.514 21.4267 147.461 21.3 147.408 21.14C147.368 20.9933 147.328 20.84 147.288 20.68C147.261 20.52 147.241 20.3667 147.228 20.22C147.228 20.0733 147.234 19.9467 147.248 19.84C147.381 19.7867 147.561 19.7467 147.788 19.72C148.014 19.7067 148.248 19.7 148.488 19.7C148.741 19.7133 148.981 19.7267 149.208 19.74C149.448 19.7667 149.648 19.7933 149.808 19.82C149.808 20.1667 149.914 20.44 150.128 20.64C150.354 20.8533 150.601 20.9733 150.868 21C151.148 21.0267 151.414 20.96 151.668 20.8C151.934 20.64 152.108 20.3733 152.188 20C152.201 19.8667 152.214 19.7267 152.228 19.58C152.241 19.4467 152.241 19.3267 152.228 19.22C152.201 18.9933 152.201 18.76 152.228 18.52C152.094 18.6667 151.934 18.7733 151.748 18.84C151.574 18.9067 151.381 18.9533 151.168 18.98C150.968 19.0067 150.761 19.02 150.548 19.02C150.334 19.02 150.134 19.0267 149.948 19.04C149.694 19.04 149.434 19.02 149.168 18.98C148.914 18.94 148.668 18.8733 148.428 18.78C148.201 18.6867 147.994 18.56 147.808 18.4C147.621 18.24 147.468 18.0333 147.348 17.78C147.161 17.42 147.028 17.0467 146.948 16.66C146.868 16.26 146.814 15.8533 146.788 15.44C146.788 14.8133 146.801 14.14 146.828 13.42C146.854 12.7 146.968 12.0267 147.168 11.4C147.381 10.76 147.714 10.2267 148.168 9.8C148.621 9.36 149.274 9.11333 150.128 9.06C150.554 9.03333 150.948 9.09333 151.308 9.24C151.681 9.37333 151.948 9.62667 152.108 10C152.161 10.0267 152.188 10.0067 152.188 9.94C152.201 9.86 152.201 9.76667 152.188 9.66C152.188 9.54 152.181 9.42667 152.168 9.32C152.168 9.2 152.188 9.10667 152.228 9.04C152.668 8.98667 153.114 8.97333 153.568 9C154.021 9.01333 154.474 9.02 154.928 9.02C154.981 10.6867 155.008 12.4333 155.008 14.26C155.021 16.0733 154.988 17.94 154.908 19.86C154.894 20.18 154.894 20.4933 154.908 20.8C154.921 21.12 154.861 21.3867 154.728 21.6C154.541 21.8933 154.348 22.1267 154.148 22.3C153.961 22.4733 153.774 22.6067 153.588 22.7C153.401 22.8067 153.214 22.88 153.028 22.92ZM159.444 14.04C159.15 14.0267 158.937 14.0067 158.804 13.98V14.34C158.817 14.74 158.83 15.0667 158.844 15.32C158.87 15.5733 158.957 15.82 159.104 16.06C159.264 16.3667 159.49 16.5933 159.784 16.74C160.077 16.8867 160.364 16.9333 160.644 16.88C160.924 16.8267 161.157 16.6667 161.344 16.4C161.544 16.12 161.63 15.7067 161.604 15.16C161.737 15.1733 161.917 15.18 162.144 15.18C162.37 15.1667 162.604 15.1533 162.844 15.14C163.097 15.1267 163.337 15.1267 163.564 15.14C163.79 15.14 163.977 15.16 164.124 15.2C164.097 15.5467 164.07 15.8867 164.044 16.22C164.017 16.5533 163.984 16.8667 163.944 17.16C163.904 17.44 163.85 17.6867 163.784 17.9C163.73 18.1 163.657 18.24 163.564 18.32C163.337 18.64 163.044 18.8667 162.684 19C162.324 19.1333 161.93 19.2133 161.504 19.24C161.077 19.2667 160.637 19.2667 160.184 19.24C159.744 19.2133 159.337 19.2 158.964 19.2C158.59 19.1467 158.244 19.0267 157.924 18.84C157.564 18.5867 157.264 18.26 157.024 17.86C156.784 17.4467 156.59 17 156.444 16.52C156.297 16.0267 156.197 15.5067 156.144 14.96C156.09 14.4133 156.077 13.8667 156.104 13.32C156.144 12.8267 156.184 12.3533 156.224 11.9C156.277 11.4333 156.384 10.98 156.544 10.54C156.717 10.1533 156.984 9.82667 157.344 9.56C157.704 9.28 158.11 9.07333 158.564 8.94C159.017 8.79333 159.497 8.71333 160.004 8.7C160.51 8.68667 161.004 8.74 161.484 8.86C162.097 8.96667 162.59 9.18 162.964 9.5C163.337 9.82 163.617 10.2067 163.804 10.66C164.004 11.1133 164.124 11.6133 164.164 12.16C164.204 12.7067 164.204 13.26 164.164 13.82C164.07 13.8467 163.89 13.8733 163.624 13.9C163.37 13.9267 163.064 13.9533 162.704 13.98C162.357 14.0067 161.984 14.0267 161.584 14.04C161.184 14.0533 160.797 14.06 160.424 14.06C160.064 14.06 159.737 14.0533 159.444 14.04ZM161.784 11.42C161.65 11.18 161.464 11 161.224 10.88C161.117 10.8133 161.01 10.7667 160.904 10.74C160.797 10.7 160.67 10.68 160.524 10.68C160.204 10.68 159.944 10.7133 159.744 10.78C159.544 10.8467 159.384 10.94 159.264 11.06C159.144 11.18 159.05 11.32 158.984 11.48C158.93 11.64 158.89 11.8067 158.864 11.98C158.837 12.1267 158.824 12.2333 158.824 12.3C158.837 12.3533 158.904 12.3933 159.024 12.42C159.144 12.4333 159.33 12.44 159.584 12.44C159.85 12.4267 160.237 12.42 160.744 12.42C161.09 12.42 161.35 12.4267 161.524 12.44C161.697 12.4533 161.817 12.46 161.884 12.46C161.964 12.4467 162.004 12.4267 162.004 12.4C162.004 12.36 162.004 12.2867 162.004 12.18C162.004 11.9133 161.93 11.66 161.784 11.42ZM167.93 9.58C167.93 9.72667 167.937 9.89333 167.95 10.08C168.017 10.04 168.097 9.99333 168.19 9.94C168.297 9.88667 168.384 9.83333 168.45 9.78C168.73 9.58 169.044 9.42 169.39 9.3C169.737 9.18 170.09 9.11333 170.45 9.1C170.824 9.08667 171.184 9.12667 171.53 9.22C171.877 9.31333 172.19 9.48 172.47 9.72C172.604 9.84 172.704 10.0933 172.77 10.48C172.85 10.8533 172.897 11.3067 172.91 11.84C172.937 12.3733 172.944 12.96 172.93 13.6C172.93 14.2267 172.924 14.8667 172.91 15.52C172.897 16.16 172.884 16.78 172.87 17.38C172.857 17.98 172.864 18.5067 172.89 18.96C172.424 19.0267 172.004 19.0533 171.63 19.04C171.27 19.04 170.857 19.04 170.39 19.04C170.364 18.7333 170.35 18.3867 170.35 18C170.35 17.6133 170.35 17.2133 170.35 16.8C170.364 16.3867 170.364 15.9733 170.35 15.56C170.35 15.1467 170.337 14.76 170.31 14.4C170.297 14.24 170.284 14.0667 170.27 13.88C170.257 13.68 170.23 13.4867 170.19 13.3C170.164 13.1133 170.117 12.9467 170.05 12.8C169.997 12.6533 169.917 12.54 169.81 12.46C169.797 12.4467 169.784 12.44 169.77 12.44C169.757 12.44 169.744 12.4333 169.73 12.42C169.624 12.3667 169.464 12.3267 169.25 12.3C169.05 12.26 168.85 12.2733 168.65 12.34C168.45 12.3933 168.27 12.5133 168.11 12.7C167.95 12.8733 167.857 13.14 167.83 13.5C167.804 13.9667 167.797 14.4267 167.81 14.88C167.824 15.32 167.837 15.7667 167.85 16.22C167.877 16.66 167.89 17.1 167.89 17.54C167.89 17.98 167.864 18.42 167.81 18.86V18.94C167.584 19.0067 167.384 19.0467 167.21 19.06C167.05 19.0733 166.884 19.0733 166.71 19.06C166.537 19.06 166.344 19.0533 166.13 19.04C165.917 19.0267 165.65 19.0333 165.33 19.06C165.33 17.42 165.31 15.78 165.27 14.14C165.244 12.5 165.257 10.8 165.31 9.04C165.47 9.05333 165.604 9.06667 165.71 9.08C165.817 9.08 165.917 9.08 166.01 9.08C166.104 9.08 166.204 9.08 166.31 9.08C166.417 9.06667 166.55 9.05333 166.71 9.04C166.764 9.04 166.857 9.03333 166.99 9.02C167.124 8.99333 167.257 8.97333 167.39 8.96C167.524 8.94667 167.644 8.94667 167.75 8.96C167.857 8.96 167.91 8.98 167.91 9.02C167.937 9.24667 167.944 9.43333 167.93 9.58Z" fill="#2B3A06"/>
<path d="M8.13008 12.1301C10.376 12.1301 12.1951 10.311 12.1951 8.06504C12.1951 5.81911 10.376 4 8.13008 4C5.88415 4 4.06504 5.81911 4.06504 8.06504C4.06504 10.311 5.88415 12.1301 8.13008 12.1301ZM8.13008 14.1626C5.41667 14.1626 0 15.5244 0 18.2276V20.2602H16.2602V18.2276C16.2602 15.5244 10.8435 14.1626 8.13008 14.1626Z" fill="#364908"/>
<path d="M32.26 17.94C32.26 18.18 32.2667 18.4133 32.28 18.64C32.28 18.72 32.24 18.7867 32.16 18.84C32.08 18.88 31.98 18.9133 31.86 18.94C31.74 18.9667 31.6067 18.9867 31.46 19C31.3133 19 31.18 19 31.06 19C30.7267 19 30.38 18.9867 30.02 18.96C29.6733 18.92 29.3667 18.8867 29.1 18.86V18.84V16.9C29.1 15.6067 29.14 14.3267 29.22 13.06C29.3 11.7933 29.34 10.5133 29.34 9.22C29.34 9.15333 29.34 9.09333 29.34 9.04C29.34 8.98667 29.3333 8.92667 29.32 8.86C29.2533 8.84667 29.1933 8.9 29.14 9.02C29.0867 9.12667 29.0267 9.25333 28.96 9.4C28.8933 9.53333 28.82 9.66 28.74 9.78C28.66 9.9 28.5667 9.96 28.46 9.96C28.3933 9.96 28.2333 9.93333 27.98 9.88C27.7267 9.82667 27.4533 9.76 27.16 9.68C26.8667 9.6 26.6067 9.52 26.38 9.44C26.1533 9.36 26.04 9.28667 26.04 9.22C26.0533 9.06 26.12 8.84667 26.24 8.58C26.36 8.31333 26.5 8.02 26.66 7.7C26.8333 7.38 27.02 7.05333 27.22 6.72C27.42 6.38667 27.6067 6.08 27.78 5.8C27.9533 5.52 28.1 5.28667 28.22 5.1C28.3533 4.9 28.4333 4.78667 28.46 4.76C28.7667 4.74667 29.0667 4.74 29.36 4.74C29.6667 4.72667 29.9733 4.72 30.28 4.72C30.6267 4.72 30.9733 4.72667 31.32 4.74C31.6667 4.75333 32.02 4.77333 32.38 4.8C32.42 5.37333 32.4467 5.94 32.46 6.5C32.4733 7.04667 32.48 7.6 32.48 8.16C32.48 9.69333 32.44 11.2067 32.36 12.7C32.2933 14.1933 32.26 15.7067 32.26 17.24C32.26 17.4667 32.26 17.7 32.26 17.94ZM40.0281 13.88C40.0281 14 40.0281 14.1267 40.0281 14.26V14.44C40.0281 15.12 40.2281 15.7 40.6281 16.18C40.8681 16.4733 41.1881 16.6533 41.5881 16.72C41.9881 16.7733 42.3615 16.7467 42.7081 16.64C42.8281 16.6 42.9215 16.54 42.9881 16.46C43.0548 16.3667 43.1081 16.2667 43.1481 16.16C43.1881 16.04 43.2148 15.92 43.2281 15.8C43.2548 15.6667 43.2748 15.54 43.2881 15.42C43.2881 14.8867 43.2748 14.3467 43.2481 13.8C43.2348 13.24 43.1615 12.7067 43.0281 12.2C42.9481 12 42.8148 11.8467 42.6281 11.74C42.4548 11.62 42.2615 11.5467 42.0481 11.52C41.8348 11.4933 41.6215 11.5133 41.4081 11.58C41.2081 11.6333 41.0281 11.7267 40.8681 11.86C40.6681 12.0867 40.4948 12.34 40.3481 12.62C40.2148 12.8867 40.1215 13.1733 40.0681 13.48C40.0415 13.6133 40.0281 13.7467 40.0281 13.88ZM44.0081 22.92C43.8215 22.96 43.6481 22.9867 43.4881 23C43.3548 23.0267 43.1148 23.0333 42.7681 23.02C42.4215 23.0067 41.9748 23 41.4281 23C40.8015 23 40.2415 22.8667 39.7481 22.6C39.2548 22.3333 38.8548 21.9733 38.5481 21.52C38.4948 21.4267 38.4415 21.3 38.3881 21.14C38.3481 20.9933 38.3081 20.84 38.2681 20.68C38.2415 20.52 38.2215 20.3667 38.2081 20.22C38.2081 20.0733 38.2148 19.9467 38.2281 19.84C38.3615 19.7867 38.5415 19.7467 38.7681 19.72C38.9948 19.7067 39.2281 19.7 39.4681 19.7C39.7215 19.7133 39.9615 19.7267 40.1881 19.74C40.4281 19.7667 40.6281 19.7933 40.7881 19.82C40.7881 20.1667 40.8948 20.44 41.1081 20.64C41.3348 20.8533 41.5815 20.9733 41.8481 21C42.1281 21.0267 42.3948 20.96 42.6481 20.8C42.9148 20.64 43.0881 20.3733 43.1681 20C43.1815 19.8667 43.1948 19.7267 43.2081 19.58C43.2215 19.4467 43.2215 19.3267 43.2081 19.22C43.1815 18.9933 43.1815 18.76 43.2081 18.52C43.0748 18.6667 42.9148 18.7733 42.7281 18.84C42.5548 18.9067 42.3615 18.9533 42.1481 18.98C41.9481 19.0067 41.7415 19.02 41.5281 19.02C41.3148 19.02 41.1148 19.0267 40.9281 19.04C40.6748 19.04 40.4148 19.02 40.1481 18.98C39.8948 18.94 39.6481 18.8733 39.4081 18.78C39.1815 18.6867 38.9748 18.56 38.7881 18.4C38.6015 18.24 38.4481 18.0333 38.3281 17.78C38.1415 17.42 38.0081 17.0467 37.9281 16.66C37.8481 16.26 37.7948 15.8533 37.7681 15.44C37.7681 14.8133 37.7815 14.14 37.8081 13.42C37.8348 12.7 37.9481 12.0267 38.1481 11.4C38.3615 10.76 38.6948 10.2267 39.1481 9.8C39.6015 9.36 40.2548 9.11333 41.1081 9.06C41.5348 9.03333 41.9281 9.09333 42.2881 9.24C42.6615 9.37333 42.9281 9.62667 43.0881 10C43.1415 10.0267 43.1681 10.0067 43.1681 9.94C43.1815 9.86 43.1815 9.76667 43.1681 9.66C43.1681 9.54 43.1615 9.42667 43.1481 9.32C43.1481 9.2 43.1681 9.10667 43.2081 9.04C43.6481 8.98667 44.0948 8.97333 44.5481 9C45.0015 9.01333 45.4548 9.02 45.9081 9.02C45.9615 10.6867 45.9881 12.4333 45.9881 14.26C46.0015 16.0733 45.9681 17.94 45.8881 19.86C45.8748 20.18 45.8748 20.4933 45.8881 20.8C45.9015 21.12 45.8415 21.3867 45.7081 21.6C45.5215 21.8933 45.3281 22.1267 45.1281 22.3C44.9415 22.4733 44.7548 22.6067 44.5681 22.7C44.3815 22.8067 44.1948 22.88 44.0081 22.92ZM56.3041 14.1C55.8107 14.0867 55.4641 14.06 55.2641 14.02V14.36C55.2774 14.7467 55.2907 15.06 55.3041 15.3C55.3307 15.54 55.4174 15.7733 55.5641 16C55.7241 16.28 55.9374 16.4933 56.2041 16.64C56.4841 16.7733 56.7507 16.8133 57.0041 16.76C57.2707 16.7067 57.4974 16.5533 57.6841 16.3C57.8707 16.0467 57.9507 15.66 57.9241 15.14C58.0441 15.1533 58.2107 15.16 58.4241 15.16C58.6374 15.1467 58.8574 15.1333 59.0841 15.12C59.3241 15.1067 59.5507 15.1067 59.7641 15.12C59.9774 15.12 60.1507 15.14 60.2841 15.18C60.2574 15.5 60.2307 15.82 60.2041 16.14C60.1907 16.46 60.1641 16.76 60.1241 17.04C60.0841 17.3067 60.0374 17.54 59.9841 17.74C59.9307 17.9267 59.8574 18.06 59.7641 18.14C59.5507 18.4333 59.2707 18.64 58.9241 18.76C58.5774 18.88 58.2041 18.96 57.8041 19C57.4041 19.0267 56.9974 19.0267 56.5841 19C56.1707 18.96 55.7841 18.94 55.4241 18.94C55.0241 18.8733 54.6774 18.74 54.3841 18.54C54.0907 18.34 53.8441 18.1 53.6441 17.82C53.4974 17.94 53.3374 18.0667 53.1641 18.2C53.0041 18.32 52.8174 18.4467 52.6041 18.58C52.0841 18.8733 51.5441 19.0533 50.9841 19.12C50.4374 19.1867 49.9107 19.16 49.4041 19.04C48.9107 18.92 48.4641 18.72 48.0641 18.44C47.6641 18.1467 47.3574 17.7933 47.1441 17.38C46.9307 16.9667 46.8307 16.5067 46.8441 16C46.8707 15.48 47.0574 14.9267 47.4041 14.34C47.6174 14.0067 47.9307 13.7467 48.3441 13.56C48.7574 13.3733 49.1974 13.26 49.6641 13.22C50.1307 13.1667 50.5974 13.18 51.0641 13.26C51.5307 13.3267 51.9307 13.4533 52.2641 13.64C52.2507 13.3467 52.2441 13.1133 52.2441 12.94C52.2441 12.7533 52.2441 12.6067 52.2441 12.5C52.2441 12.38 52.2441 12.2867 52.2441 12.22C52.2441 12.14 52.2307 12.06 52.2041 11.98C52.1241 11.62 51.9507 11.3667 51.6841 11.22C51.4307 11.0733 51.1641 11.02 50.8841 11.06C50.6041 11.0867 50.3507 11.2067 50.1241 11.42C49.8974 11.62 49.7841 11.8867 49.7841 12.22C49.6241 12.2467 49.4307 12.2733 49.2041 12.3C48.9774 12.3267 48.7441 12.3467 48.5041 12.36C48.2641 12.36 48.0374 12.3533 47.8241 12.34C47.6107 12.3133 47.4374 12.2667 47.3041 12.2C47.2374 11.68 47.3174 11.2333 47.5441 10.86C47.7707 10.4733 48.0774 10.16 48.4641 9.92C48.8641 9.66667 49.3174 9.48667 49.8241 9.38C50.3307 9.26 50.8307 9.20667 51.3241 9.22C51.8174 9.22 52.2774 9.28667 52.7041 9.42C53.1441 9.55333 53.4907 9.74 53.7441 9.98C53.9841 9.76667 54.2641 9.58667 54.5841 9.44C54.9041 9.29333 55.2374 9.18667 55.5841 9.12C55.9441 9.05333 56.3107 9.02667 56.6841 9.04C57.0707 9.05333 57.4441 9.10667 57.8041 9.2C58.3907 9.30667 58.8574 9.51333 59.2041 9.82C59.5641 10.1133 59.8307 10.4733 60.0041 10.9C60.1907 11.3267 60.2974 11.8 60.3241 12.32C60.3641 12.8267 60.3641 13.34 60.3241 13.86C60.1907 13.9 59.8907 13.94 59.4241 13.98C58.9574 14.02 58.4441 14.0533 57.8841 14.08C57.3374 14.0933 56.8107 14.1 56.3041 14.1ZM49.2441 16.74C49.4041 16.9 49.6707 17.0067 50.0441 17.06C50.6841 17.1667 51.1574 17.14 51.4641 16.98C51.7707 16.8067 51.9641 16.5933 52.0441 16.34C52.1374 16.0733 52.1374 15.8067 52.0441 15.54C51.9641 15.2733 51.8441 15.0933 51.6841 15C51.2841 14.8133 50.8841 14.7133 50.4841 14.7C50.0974 14.6867 49.7307 14.8333 49.3841 15.14C49.2641 15.26 49.1574 15.42 49.0641 15.62C48.9841 15.8067 48.9507 16 48.9641 16.2C48.9907 16.3867 49.0841 16.5667 49.2441 16.74ZM58.0841 11.62C57.9641 11.38 57.7907 11.2067 57.5641 11.1C57.4574 11.0467 57.3507 11.0067 57.2441 10.98C57.1507 10.94 57.0374 10.92 56.9041 10.92C56.5974 10.92 56.3507 10.9533 56.1641 11.02C55.9774 11.0867 55.8241 11.1733 55.7041 11.28C55.5974 11.3867 55.5107 11.52 55.4441 11.68C55.3907 11.8267 55.3507 11.98 55.3241 12.14C55.2974 12.2867 55.2841 12.3867 55.2841 12.44C55.2974 12.4933 55.3574 12.5333 55.4641 12.56C55.5841 12.5733 55.7641 12.58 56.0041 12.58C56.2574 12.5667 56.6241 12.56 57.1041 12.56C57.4374 12.56 57.6841 12.5667 57.8441 12.58C58.0041 12.5933 58.1174 12.6 58.1841 12.6C58.2507 12.6 58.2841 12.58 58.2841 12.54C58.2841 12.5 58.2841 12.4333 58.2841 12.34C58.2841 12.0867 58.2174 11.8467 58.0841 11.62ZM69.0466 10.14C69.3132 10.7133 69.4466 11.36 69.4466 12.08C69.0199 12.1467 68.5466 12.1867 68.0266 12.2C67.5199 12.2133 67.0399 12.1733 66.5866 12.08C66.6266 11.92 66.6066 11.76 66.5266 11.6C66.4599 11.44 66.3532 11.3 66.2066 11.18C66.0732 11.06 65.9132 10.9733 65.7266 10.92C65.5532 10.8533 65.3799 10.8267 65.2066 10.84C64.8999 10.8933 64.6666 11.0133 64.5066 11.2C64.3599 11.3733 64.2866 11.5667 64.2866 11.78C64.2866 11.9933 64.3666 12.2067 64.5266 12.42C64.6866 12.6333 64.9199 12.7933 65.2266 12.9C65.9732 13.0067 66.6732 13.1533 67.3266 13.34C67.9799 13.5133 68.4599 13.8 68.7666 14.2C69.0599 14.68 69.2399 15.1733 69.3066 15.68C69.3732 16.1733 69.2799 16.7867 69.0266 17.52C68.7199 18.1733 68.2399 18.64 67.5866 18.92C66.9332 19.2 66.2199 19.3333 65.4466 19.32C64.7666 19.3467 64.1532 19.2867 63.6066 19.14C63.0599 18.9933 62.5866 18.7733 62.1866 18.48C61.7999 18.1867 61.4932 17.8267 61.2666 17.4C61.0532 16.9733 60.9466 16.4933 60.9466 15.96V15.9V15.86C61.3866 15.8067 61.8866 15.7933 62.4466 15.82C63.0066 15.8333 63.4932 15.84 63.9066 15.84C63.9199 16.1467 64.0599 16.4 64.3266 16.6C64.6066 16.7867 64.8999 16.9 65.2066 16.94C65.5132 16.9667 65.7932 16.9067 66.0466 16.76C66.2999 16.6133 66.4199 16.3467 66.4066 15.96C66.4466 15.64 66.3732 15.4 66.1866 15.24C65.9999 15.08 65.7532 14.96 65.4466 14.88C65.1399 14.7867 64.7932 14.7067 64.4066 14.64C64.0199 14.5733 63.6399 14.46 63.2666 14.3C62.5199 14.0467 61.9732 13.6533 61.6266 13.12C61.2932 12.5733 61.1332 12.0133 61.1466 11.44C61.1732 10.8533 61.3599 10.3133 61.7066 9.82C62.0666 9.32667 62.5732 8.99333 63.2266 8.82C63.4799 8.75333 63.7866 8.7 64.1466 8.66C64.5199 8.62 64.9132 8.6 65.3266 8.6C65.7399 8.6 66.1532 8.62667 66.5666 8.68C66.9799 8.72 67.3599 8.78 67.7066 8.86C68.3332 9.12667 68.7799 9.55333 69.0466 10.14ZM73.3505 5.34C73.5771 5.35333 73.8038 5.34667 74.0305 5.32V8C74.0305 8.17333 74.0305 8.35333 74.0305 8.54C74.0438 8.72667 74.0505 8.92 74.0505 9.12C74.4638 9.10667 74.8971 9.08667 75.3505 9.06C75.8171 9.03333 76.3905 9 77.0705 8.96C77.1638 9.06667 77.2171 9.22667 77.2305 9.44C77.2438 9.64 77.2438 9.86 77.2305 10.1C77.2171 10.34 77.1971 10.5867 77.1705 10.84C77.1571 11.08 77.1638 11.2867 77.1905 11.46H74.0905C74.0905 12.18 74.0905 12.8867 74.0905 13.58C74.0905 14.26 74.0971 14.9 74.1105 15.5C74.2438 15.6867 74.4371 15.8333 74.6905 15.94C74.9438 16.0467 75.2171 16.1333 75.5105 16.2C75.8038 16.2533 76.0971 16.2867 76.3905 16.3C76.6971 16.3133 76.9638 16.3133 77.1905 16.3C77.2171 16.4867 77.2438 16.6933 77.2705 16.92C77.2971 17.1467 77.3171 17.38 77.3305 17.62C77.3438 17.86 77.3371 18.1 77.3105 18.34C77.2971 18.58 77.2571 18.8 77.1905 19C76.6571 19.0267 76.1038 19.0267 75.5305 19C74.9571 18.96 74.4171 18.88 73.9105 18.76C73.4038 18.64 72.9505 18.46 72.5505 18.22C72.1638 17.98 71.8838 17.6533 71.7105 17.24C71.5371 16.2133 71.4371 15.2467 71.4105 14.34C71.3838 13.42 71.3771 12.4733 71.3905 11.5C71.1771 11.5133 70.9505 11.52 70.7105 11.52C70.4838 11.52 70.2305 11.52 69.9505 11.52L70.0105 9.08C70.2771 9.09333 70.5238 9.1 70.7505 9.1C70.9905 9.1 71.2171 9.1 71.4305 9.1C71.4305 8.80667 71.4238 8.49333 71.4105 8.16C71.3971 7.81333 71.3905 7.46667 71.3905 7.12C71.3905 6.77333 71.3905 6.44 71.3905 6.12C71.4038 5.8 71.4238 5.51333 71.4505 5.26C71.6238 5.23333 71.8105 5.22667 72.0105 5.24C72.2238 5.25333 72.4438 5.27333 72.6705 5.3C72.8971 5.31333 73.1238 5.32667 73.3505 5.34Z" fill="#2B3A06"/>
<path d="M204.111 5.7H203.167V4H201.278V5.7H193.722V4H191.833V5.7H190.889C189.841 5.7 189.009 6.465 189.009 7.4L189 19.3C189 20.235 189.841 21 190.889 21H204.111C205.15 21 206 20.235 206 19.3V7.4C206 6.465 205.15 5.7 204.111 5.7ZM204.111 19.3H190.889V10.8H204.111V19.3ZM194.667 14.2H192.778V12.5H194.667V14.2ZM198.444 14.2H196.556V12.5H198.444V14.2ZM202.222 14.2H200.333V12.5H202.222V14.2ZM194.667 17.6H192.778V15.9H194.667V17.6ZM198.444 17.6H196.556V15.9H198.444V17.6ZM202.222 17.6H200.333V15.9H202.222V17.6Z" fill="#364908"/>
<path d="M224.636 17.94C224.636 18.18 224.643 18.4133 224.656 18.64C224.656 18.72 224.616 18.7867 224.536 18.84C224.456 18.88 224.356 18.9133 224.236 18.94C224.116 18.9667 223.983 18.9867 223.836 19C223.69 19 223.556 19 223.436 19C223.103 19 222.756 18.9867 222.396 18.96C222.05 18.92 221.743 18.8867 221.476 18.86V18.84V16.9C221.476 15.6067 221.516 14.3267 221.596 13.06C221.676 11.7933 221.716 10.5133 221.716 9.22C221.716 9.15333 221.716 9.09333 221.716 9.04C221.716 8.98667 221.71 8.92667 221.696 8.86C221.63 8.84667 221.57 8.9 221.516 9.02C221.463 9.12667 221.403 9.25333 221.336 9.4C221.27 9.53333 221.196 9.66 221.116 9.78C221.036 9.9 220.943 9.96 220.836 9.96C220.77 9.96 220.61 9.93333 220.356 9.88C220.103 9.82667 219.83 9.76 219.536 9.68C219.243 9.6 218.983 9.52 218.756 9.44C218.53 9.36 218.416 9.28667 218.416 9.22C218.43 9.06 218.496 8.84667 218.616 8.58C218.736 8.31333 218.876 8.02 219.036 7.7C219.21 7.38 219.396 7.05333 219.596 6.72C219.796 6.38667 219.983 6.08 220.156 5.8C220.33 5.52 220.476 5.28667 220.596 5.1C220.73 4.9 220.81 4.78667 220.836 4.76C221.143 4.74667 221.443 4.74 221.736 4.74C222.043 4.72667 222.35 4.72 222.656 4.72C223.003 4.72 223.35 4.72667 223.696 4.74C224.043 4.75333 224.396 4.77333 224.756 4.8C224.796 5.37333 224.823 5.94 224.836 6.5C224.85 7.04667 224.856 7.6 224.856 8.16C224.856 9.69333 224.816 11.2067 224.736 12.7C224.67 14.1933 224.636 15.7067 224.636 17.24C224.636 17.4667 224.636 17.7 224.636 17.94ZM227.381 18.34C227.221 18.22 227.127 18.1467 227.101 18.12C226.914 17.9333 226.761 17.72 226.641 17.48C226.534 17.2267 226.467 16.9667 226.441 16.7C226.387 16.3933 226.354 16.08 226.341 15.76C226.341 15.4267 226.314 15.0533 226.261 14.64C226.261 14.6267 226.267 14.62 226.281 14.62H226.301C226.701 14.6467 227.107 14.62 227.521 14.54C227.947 14.4467 228.407 14.4133 228.901 14.44H228.921L228.941 14.46C229.021 14.7 229.167 14.9267 229.381 15.14C229.594 15.3533 229.834 15.5133 230.101 15.62C230.367 15.7133 230.634 15.74 230.901 15.7C231.181 15.66 231.421 15.5 231.621 15.22C231.781 14.9533 231.834 14.6533 231.781 14.32C231.741 13.9733 231.581 13.6933 231.301 13.48C231.007 13.2667 230.647 13.1533 230.221 13.14C229.807 13.1267 229.434 13.1533 229.101 13.22C229.021 13.0467 228.974 12.84 228.961 12.6C228.947 12.36 228.947 12.1133 228.961 11.86C228.974 11.6067 228.987 11.36 229.001 11.12C229.027 10.8667 229.027 10.6467 229.001 10.46V10.44C229.227 10.36 229.501 10.3267 229.821 10.34C230.154 10.34 230.467 10.32 230.761 10.28C231.067 10.24 231.321 10.14 231.521 9.98C231.721 9.82 231.807 9.52667 231.781 9.1C231.767 8.64667 231.627 8.34667 231.361 8.2C231.107 8.05333 230.814 8.00667 230.481 8.06C230.147 8.11333 229.827 8.25333 229.521 8.48C229.214 8.69333 229.007 8.94 228.901 9.22C228.794 9.23333 228.601 9.24 228.321 9.24C228.041 9.24 227.747 9.24 227.441 9.24C227.147 9.24 226.881 9.24667 226.641 9.26C226.414 9.26 226.287 9.26 226.261 9.26V9.22C226.261 8.95333 226.247 8.65333 226.221 8.32C226.194 7.97333 226.234 7.65333 226.341 7.36C226.501 6.82667 226.781 6.38 227.181 6.02C227.594 5.66 228.061 5.38 228.581 5.18C229.114 4.98 229.674 4.86667 230.261 4.84C230.861 4.8 231.434 4.84 231.981 4.96C232.541 5.08 233.041 5.27333 233.481 5.54C233.934 5.80667 234.274 6.14 234.501 6.54C234.634 6.75333 234.714 6.98667 234.741 7.24C234.781 7.48 234.794 7.72667 234.781 7.98C234.807 9.11333 234.814 10.2333 234.801 11.34C234.801 12.4333 234.781 13.52 234.741 14.6C234.714 14.9867 234.694 15.38 234.681 15.78C234.667 16.18 234.574 16.56 234.401 16.92C234.214 17.36 233.954 17.74 233.621 18.06C233.301 18.38 232.894 18.62 232.401 18.78C231.907 18.9267 231.367 19 230.781 19C230.194 19.0133 229.647 18.9867 229.141 18.92C228.954 18.8933 228.767 18.8533 228.581 18.8C228.407 18.7467 228.227 18.6933 228.041 18.64C227.761 18.56 227.541 18.46 227.381 18.34ZM238.584 19H238.544L236.284 18.98H236.224C236.198 18.8333 236.178 18.6467 236.164 18.42C236.164 18.1933 236.164 17.9667 236.164 17.74C236.178 17.5133 236.184 17.3 236.184 17.1C236.198 16.9 236.204 16.7533 236.204 16.66C236.338 16.6067 236.524 16.5667 236.764 16.54C237.018 16.5133 237.271 16.5 237.524 16.5C237.778 16.5 238.011 16.5133 238.224 16.54C238.451 16.5533 238.611 16.58 238.704 16.62C238.704 16.6333 238.698 16.7467 238.684 16.96C238.671 17.16 238.658 17.3933 238.644 17.66C238.631 17.9267 238.618 18.1867 238.604 18.44C238.591 18.6933 238.584 18.8667 238.584 18.96V18.98V19ZM255.2 8.86C255.253 10.1 255.247 11.36 255.18 12.64L255.12 19.02C254.92 18.9933 254.7 18.98 254.46 18.98C254.22 18.98 253.98 18.98 253.74 18.98C253.5 18.98 253.267 18.9867 253.04 19C252.827 19 252.64 19 252.48 19C252.453 18.4267 252.433 17.8067 252.42 17.14C252.42 16.4733 252.413 15.7933 252.4 15.1C252.4 14.4067 252.38 13.7267 252.34 13.06C252.313 12.3933 252.267 11.78 252.2 11.22C252.107 11.3667 252 11.6 251.88 11.92C251.76 12.2267 251.64 12.5467 251.52 12.88C251.4 13.2133 251.287 13.5067 251.18 13.76C251.073 14.0133 250.993 14.14 250.94 14.14C250.873 14.14 250.793 14.0733 250.7 13.94C250.62 13.7933 250.533 13.6133 250.44 13.4C250.36 13.1867 250.273 12.96 250.18 12.72C250.087 12.48 250.007 12.26 249.94 12.06C249.873 11.86 249.813 11.6933 249.76 11.56C249.72 11.4267 249.7 11.36 249.7 11.36C249.593 12.6133 249.553 13.88 249.58 15.16C249.62 16.44 249.68 17.7 249.76 18.94C249.333 19.0067 248.867 19.0333 248.36 19.02C247.853 19.0067 247.387 19 246.96 19C246.933 19 246.913 18.98 246.9 18.94C246.887 18.8867 246.873 18.76 246.86 18.56C246.847 18.36 246.833 18.06 246.82 17.66C246.82 17.2467 246.82 16.7067 246.82 16.04C246.82 15.3733 246.82 14.5467 246.82 13.56C246.833 12.5733 246.84 11.4 246.84 10.04C246.853 8.68 246.867 7.09333 246.88 5.28C247.053 5.22667 247.253 5.19333 247.48 5.18C247.707 5.16667 247.94 5.16667 248.18 5.18C248.42 5.18 248.66 5.18667 248.9 5.2C249.14 5.2 249.373 5.19333 249.6 5.18H249.62C249.74 5.31333 249.86 5.52 249.98 5.8C250.1 6.06667 250.213 6.35333 250.32 6.66C250.427 6.96667 250.527 7.26 250.62 7.54C250.727 7.82 250.833 8.04 250.94 8.2C250.98 8.24 251.02 8.26 251.06 8.26C251.1 8.27333 251.16 8.14667 251.24 7.88C251.333 7.61333 251.427 7.30667 251.52 6.96C251.627 6.6 251.74 6.24667 251.86 5.9C251.993 5.55333 252.12 5.3 252.24 5.14C252.333 5.15333 252.5 5.15333 252.74 5.14C252.993 5.12667 253.26 5.11333 253.54 5.1C253.833 5.08667 254.127 5.08 254.42 5.08C254.727 5.06667 254.987 5.06 255.2 5.06C255.147 6.34 255.147 7.60667 255.2 8.86ZM263.562 8.98C263.895 8.99333 264.275 9.01333 264.702 9.04C264.715 9.12 264.722 9.2 264.722 9.28C264.735 9.36 264.742 9.44 264.742 9.52V9.72C264.702 11.16 264.709 12.58 264.762 13.98C264.815 15.3667 264.795 16.7733 264.702 18.2C264.702 18.3733 264.695 18.5467 264.682 18.72C264.682 18.8933 264.602 18.9933 264.442 19.02H264.202C263.989 19.02 263.769 19.0133 263.542 19C263.329 18.9733 263.115 18.96 262.902 18.96C262.755 18.96 262.609 18.9733 262.462 19C262.329 19.0133 262.189 19.02 262.042 19.02C261.949 18.9933 261.882 18.94 261.842 18.86C261.815 18.78 261.802 18.6867 261.802 18.58C261.802 18.4333 261.815 18.3133 261.842 18.22C261.869 18.1267 261.882 18.0133 261.882 17.88C261.562 18.2 261.155 18.4733 260.662 18.7C260.182 18.9267 259.709 19.04 259.242 19.04C258.722 19.04 258.275 18.86 257.902 18.5C257.542 18.14 257.242 17.6933 257.002 17.16C256.762 16.6267 256.582 16.0467 256.462 15.42C256.355 14.7933 256.302 14.2133 256.302 13.68C256.302 13.0133 256.389 12.4 256.562 11.84C256.735 11.28 256.969 10.8 257.262 10.4C257.569 9.98667 257.929 9.66667 258.342 9.44C258.755 9.2 259.195 9.07333 259.662 9.06C259.902 9.06 260.122 9.06667 260.322 9.08C260.535 9.08 260.729 9.11333 260.902 9.18C261.075 9.23333 261.229 9.32667 261.362 9.46C261.495 9.58 261.609 9.75333 261.702 9.98C261.689 9.76667 261.695 9.58667 261.722 9.44C261.762 9.28 261.782 9.12 261.782 8.96C261.782 8.94667 261.822 8.94 261.902 8.94C261.995 8.92667 262.095 8.92667 262.202 8.94C262.309 8.94 262.415 8.94 262.522 8.94C262.629 8.94 262.702 8.94 262.742 8.94C262.969 8.95333 263.242 8.96667 263.562 8.98ZM259.442 12.14C259.135 12.3933 258.949 12.6867 258.882 13.02C258.829 13.1933 258.795 13.3733 258.782 13.56C258.769 13.7333 258.762 13.9067 258.762 14.08C258.762 14.68 258.915 15.1933 259.222 15.62C259.542 16.0333 259.982 16.24 260.542 16.24C260.875 16.24 261.122 16.1867 261.282 16.08C261.455 15.96 261.575 15.8 261.642 15.6C261.722 15.3867 261.762 15.1333 261.762 14.84C261.775 14.5333 261.782 14.1933 261.782 13.82C261.782 13.3533 261.775 12.9867 261.762 12.72C261.762 12.44 261.729 12.2267 261.662 12.08C261.609 11.9333 261.509 11.84 261.362 11.8C261.229 11.76 261.022 11.74 260.742 11.74C260.195 11.74 259.762 11.8733 259.442 12.14ZM266.134 13.48C266.147 12.84 266.167 12.26 266.194 11.74V9.06C266.407 9.08667 266.627 9.09333 266.854 9.08C267.094 9.06667 267.327 9.05333 267.554 9.04C267.78 9.01333 267.994 8.99333 268.194 8.98C268.407 8.96667 268.6 8.97333 268.774 9C268.814 9.32 268.834 9.70667 268.834 10.16C268.834 10.6 268.827 11.0467 268.814 11.5C268.814 11.94 268.807 12.3667 268.794 12.78C268.78 13.18 268.787 13.5 268.814 13.74C268.814 14.3933 268.814 15.02 268.814 15.62C268.827 16.2067 268.827 16.7933 268.814 17.38C268.814 17.9533 268.787 18.5333 268.734 19.12C268.694 19.72 268.62 20.34 268.514 20.98C268.34 21.3933 268.054 21.72 267.654 21.96C267.267 22.2 266.82 22.38 266.314 22.5C265.807 22.62 265.267 22.6933 264.694 22.72C264.12 22.76 263.567 22.7667 263.034 22.74C262.967 22.54 262.927 22.32 262.914 22.08C262.887 21.84 262.88 21.6 262.894 21.36C262.907 21.12 262.927 20.8867 262.954 20.66C262.98 20.4333 263.007 20.2267 263.034 20.04C263.26 20.0533 263.527 20.0533 263.834 20.04C264.127 20.0267 264.42 19.9867 264.714 19.92C265.007 19.8667 265.28 19.7867 265.534 19.68C265.787 19.5733 265.98 19.4267 266.114 19.24C266.127 18.68 266.134 18.0733 266.134 17.42C266.134 16.7667 266.134 16.1067 266.134 15.44C266.134 14.7733 266.134 14.12 266.134 13.48ZM266.094 6.14C266.067 5.71333 266.06 5.19333 266.074 4.58L268.734 4.64C268.734 4.72 268.734 4.86667 268.734 5.08C268.747 5.28 268.754 5.50667 268.754 5.76C268.767 6 268.774 6.25333 268.774 6.52C268.787 6.77333 268.794 7 268.794 7.2C268.74 7.28 268.62 7.33333 268.434 7.36C268.247 7.38667 268.027 7.4 267.774 7.4C267.534 7.38667 267.267 7.37333 266.974 7.36C266.68 7.33333 266.407 7.32667 266.154 7.34C266.154 6.95333 266.134 6.55333 266.094 6.14Z" fill="#2B3A06"/>
</svg>
