<svg width="113" height="35" viewBox="0 0 113 35" fill="none" xmlns="http://www.w3.org/2000/svg">
<path d="M44.39 26.41C44.39 26.77 44.4 27.12 44.42 27.46C44.42 27.58 44.36 27.68 44.24 27.76C44.12 27.82 43.97 27.87 43.79 27.91C43.61 27.95 43.41 27.98 43.19 28C42.97 28 42.77 28 42.59 28C42.09 28 41.57 27.98 41.03 27.94C40.51 27.88 40.05 27.83 39.65 27.79V27.76V24.85C39.65 22.91 39.71 20.99 39.83 19.09C39.95 17.19 40.01 15.27 40.01 13.33C40.01 13.23 40.01 13.14 40.01 13.06C40.01 12.98 40 12.89 39.98 12.79C39.88 12.77 39.79 12.85 39.71 13.03C39.63 13.19 39.54 13.38 39.44 13.6C39.34 13.8 39.23 13.99 39.11 14.17C38.99 14.35 38.85 14.44 38.69 14.44C38.59 14.44 38.35 14.4 37.97 14.32C37.59 14.24 37.18 14.14 36.74 14.02C36.3 13.9 35.91 13.78 35.57 13.66C35.23 13.54 35.06 13.43 35.06 13.33C35.08 13.09 35.18 12.77 35.36 12.37C35.54 11.97 35.75 11.53 35.99 11.05C36.25 10.57 36.53 10.08 36.83 9.58C37.13 9.08 37.41 8.62 37.67 8.2C37.93 7.78 38.15 7.43 38.33 7.15C38.53 6.85 38.65 6.68 38.69 6.64C39.15 6.62 39.6 6.61 40.04 6.61C40.5 6.59 40.96 6.58 41.42 6.58C41.94 6.58 42.46 6.59 42.98 6.61C43.5 6.63 44.03 6.66 44.57 6.7C44.63 7.56 44.67 8.41 44.69 9.25C44.71 10.07 44.72 10.9 44.72 11.74C44.72 14.04 44.66 16.31 44.54 18.55C44.44 20.79 44.39 23.06 44.39 25.36C44.39 25.7 44.39 26.05 44.39 26.41ZM56.0422 20.32C56.0422 20.5 56.0422 20.69 56.0422 20.89V21.16C56.0422 22.18 56.3422 23.05 56.9422 23.77C57.3022 24.21 57.7822 24.48 58.3822 24.58C58.9822 24.66 59.5422 24.62 60.0622 24.46C60.2422 24.4 60.3822 24.31 60.4822 24.19C60.5822 24.05 60.6622 23.9 60.7222 23.74C60.7822 23.56 60.8222 23.38 60.8422 23.2C60.8822 23 60.9122 22.81 60.9322 22.63C60.9322 21.83 60.9122 21.02 60.8722 20.2C60.8522 19.36 60.7422 18.56 60.5422 17.8C60.4222 17.5 60.2222 17.27 59.9422 17.11C59.6822 16.93 59.3922 16.82 59.0722 16.78C58.7522 16.74 58.4322 16.77 58.1122 16.87C57.8122 16.95 57.5422 17.09 57.3022 17.29C57.0022 17.63 56.7422 18.01 56.5222 18.43C56.3222 18.83 56.1822 19.26 56.1022 19.72C56.0622 19.92 56.0422 20.12 56.0422 20.32ZM62.0122 33.88C61.7322 33.94 61.4722 33.98 61.2322 34C61.0322 34.04 60.6722 34.05 60.1522 34.03C59.6322 34.01 58.9622 34 58.1422 34C57.2022 34 56.3622 33.8 55.6222 33.4C54.8822 33 54.2822 32.46 53.8222 31.78C53.7422 31.64 53.6622 31.45 53.5822 31.21C53.5222 30.99 53.4622 30.76 53.4022 30.52C53.3622 30.28 53.3322 30.05 53.3122 29.83C53.3122 29.61 53.3222 29.42 53.3422 29.26C53.5422 29.18 53.8122 29.12 54.1522 29.08C54.4922 29.06 54.8422 29.05 55.2022 29.05C55.5822 29.07 55.9422 29.09 56.2822 29.11C56.6422 29.15 56.9422 29.19 57.1822 29.23C57.1822 29.75 57.3422 30.16 57.6622 30.46C58.0022 30.78 58.3722 30.96 58.7722 31C59.1922 31.04 59.5922 30.94 59.9722 30.7C60.3722 30.46 60.6322 30.06 60.7522 29.5C60.7722 29.3 60.7922 29.09 60.8122 28.87C60.8322 28.67 60.8322 28.49 60.8122 28.33C60.7722 27.99 60.7722 27.64 60.8122 27.28C60.6122 27.5 60.3722 27.66 60.0922 27.76C59.8322 27.86 59.5422 27.93 59.2222 27.97C58.9222 28.01 58.6122 28.03 58.2922 28.03C57.9722 28.03 57.6722 28.04 57.3922 28.06C57.0122 28.06 56.6222 28.03 56.2222 27.97C55.8422 27.91 55.4722 27.81 55.1122 27.67C54.7722 27.53 54.4622 27.34 54.1822 27.1C53.9022 26.86 53.6722 26.55 53.4922 26.17C53.2122 25.63 53.0122 25.07 52.8922 24.49C52.7722 23.89 52.6922 23.28 52.6522 22.66C52.6522 21.72 52.6722 20.71 52.7122 19.63C52.7522 18.55 52.9222 17.54 53.2222 16.6C53.5422 15.64 54.0422 14.84 54.7222 14.2C55.4022 13.54 56.3822 13.17 57.6622 13.09C58.3022 13.05 58.8922 13.14 59.4322 13.36C59.9922 13.56 60.3922 13.94 60.6322 14.5C60.7122 14.54 60.7522 14.51 60.7522 14.41C60.7722 14.29 60.7722 14.15 60.7522 13.99C60.7522 13.81 60.7422 13.64 60.7222 13.48C60.7222 13.3 60.7522 13.16 60.8122 13.06C61.4722 12.98 62.1422 12.96 62.8222 13C63.5022 13.02 64.1822 13.03 64.8622 13.03C64.9422 15.53 64.9822 18.15 64.9822 20.89C65.0022 23.61 64.9522 26.41 64.8322 29.29C64.8122 29.77 64.8122 30.24 64.8322 30.7C64.8522 31.18 64.7622 31.58 64.5622 31.9C64.2822 32.34 63.9922 32.69 63.6922 32.95C63.4122 33.21 63.1322 33.41 62.8522 33.55C62.5722 33.71 62.2922 33.82 62.0122 33.88ZM80.4561 20.65C79.7161 20.63 79.1961 20.59 78.8961 20.53V21.04C78.9161 21.62 78.9361 22.09 78.9561 22.45C78.9961 22.81 79.1261 23.16 79.3461 23.5C79.5861 23.92 79.9061 24.24 80.3061 24.46C80.7261 24.66 81.1261 24.72 81.5061 24.64C81.9061 24.56 82.2461 24.33 82.5261 23.95C82.8061 23.57 82.9261 22.99 82.8861 22.21C83.0661 22.23 83.3161 22.24 83.6361 22.24C83.9561 22.22 84.2861 22.2 84.6261 22.18C84.9861 22.16 85.3261 22.16 85.6461 22.18C85.9661 22.18 86.2261 22.21 86.4261 22.27C86.3861 22.75 86.3461 23.23 86.3061 23.71C86.2861 24.19 86.2461 24.64 86.1861 25.06C86.1261 25.46 86.0561 25.81 85.9761 26.11C85.8961 26.39 85.7861 26.59 85.6461 26.71C85.3261 27.15 84.9061 27.46 84.3861 27.64C83.8661 27.82 83.3061 27.94 82.7061 28C82.1061 28.04 81.4961 28.04 80.8761 28C80.2561 27.94 79.6761 27.91 79.1361 27.91C78.5361 27.81 78.0161 27.61 77.5761 27.31C77.1361 27.01 76.7661 26.65 76.4661 26.23C76.2461 26.41 76.0061 26.6 75.7461 26.8C75.5061 26.98 75.2261 27.17 74.9061 27.37C74.1261 27.81 73.3161 28.08 72.4761 28.18C71.6561 28.28 70.8661 28.24 70.1061 28.06C69.3661 27.88 68.6961 27.58 68.0961 27.16C67.4961 26.72 67.0361 26.19 66.7161 25.57C66.3961 24.95 66.2461 24.26 66.2661 23.5C66.3061 22.72 66.5861 21.89 67.1061 21.01C67.4261 20.51 67.8961 20.12 68.5161 19.84C69.1361 19.56 69.7961 19.39 70.4961 19.33C71.1961 19.25 71.8961 19.27 72.5961 19.39C73.2961 19.49 73.8961 19.68 74.3961 19.96C74.3761 19.52 74.3661 19.17 74.3661 18.91C74.3661 18.63 74.3661 18.41 74.3661 18.25C74.3661 18.07 74.3661 17.93 74.3661 17.83C74.3661 17.71 74.3461 17.59 74.3061 17.47C74.1861 16.93 73.9261 16.55 73.5261 16.33C73.1461 16.11 72.7461 16.03 72.3261 16.09C71.9061 16.13 71.5261 16.31 71.1861 16.63C70.8461 16.93 70.6761 17.33 70.6761 17.83C70.4361 17.87 70.1461 17.91 69.8061 17.95C69.4661 17.99 69.1161 18.02 68.7561 18.04C68.3961 18.04 68.0561 18.03 67.7361 18.01C67.4161 17.97 67.1561 17.9 66.9561 17.8C66.8561 17.02 66.9761 16.35 67.3161 15.79C67.6561 15.21 68.1161 14.74 68.6961 14.38C69.2961 14 69.9761 13.73 70.7361 13.57C71.4961 13.39 72.2461 13.31 72.9861 13.33C73.7261 13.33 74.4161 13.43 75.0561 13.63C75.7161 13.83 76.2361 14.11 76.6161 14.47C76.9761 14.15 77.3961 13.88 77.8761 13.66C78.3561 13.44 78.8561 13.28 79.3761 13.18C79.9161 13.08 80.4661 13.04 81.0261 13.06C81.6061 13.08 82.1661 13.16 82.7061 13.3C83.5861 13.46 84.2861 13.77 84.8061 14.23C85.3461 14.67 85.7461 15.21 86.0061 15.85C86.2861 16.49 86.4461 17.2 86.4861 17.98C86.5461 18.74 86.5461 19.51 86.4861 20.29C86.2861 20.35 85.8361 20.41 85.1361 20.47C84.4361 20.53 83.6661 20.58 82.8261 20.62C82.0061 20.64 81.2161 20.65 80.4561 20.65ZM69.8661 24.61C70.1061 24.85 70.5061 25.01 71.0661 25.09C72.0261 25.25 72.7361 25.21 73.1961 24.97C73.6561 24.71 73.9461 24.39 74.0661 24.01C74.2061 23.61 74.2061 23.21 74.0661 22.81C73.9461 22.41 73.7661 22.14 73.5261 22C72.9261 21.72 72.3261 21.57 71.7261 21.55C71.1461 21.53 70.5961 21.75 70.0761 22.21C69.8961 22.39 69.7361 22.63 69.5961 22.93C69.4761 23.21 69.4261 23.5 69.4461 23.8C69.4861 24.08 69.6261 24.35 69.8661 24.61ZM83.1261 16.93C82.9461 16.57 82.6861 16.31 82.3461 16.15C82.1861 16.07 82.0261 16.01 81.8661 15.97C81.7261 15.91 81.5561 15.88 81.3561 15.88C80.8961 15.88 80.5261 15.93 80.2461 16.03C79.9661 16.13 79.7361 16.26 79.5561 16.42C79.3961 16.58 79.2661 16.78 79.1661 17.02C79.0861 17.24 79.0261 17.47 78.9861 17.71C78.9461 17.93 78.9261 18.08 78.9261 18.16C78.9461 18.24 79.0361 18.3 79.1961 18.34C79.3761 18.36 79.6461 18.37 80.0061 18.37C80.3861 18.35 80.9361 18.34 81.6561 18.34C82.1561 18.34 82.5261 18.35 82.7661 18.37C83.0061 18.39 83.1761 18.4 83.2761 18.4C83.3761 18.4 83.4261 18.37 83.4261 18.31C83.4261 18.25 83.4261 18.15 83.4261 18.01C83.4261 17.63 83.3261 17.27 83.1261 16.93ZM99.5698 14.71C99.9698 15.57 100.17 16.54 100.17 17.62C99.5298 17.72 98.8198 17.78 98.0398 17.8C97.2798 17.82 96.5598 17.76 95.8798 17.62C95.9398 17.38 95.9098 17.14 95.7898 16.9C95.6898 16.66 95.5298 16.45 95.3098 16.27C95.1098 16.09 94.8698 15.96 94.5898 15.88C94.3298 15.78 94.0698 15.74 93.8098 15.76C93.3498 15.84 92.9998 16.02 92.7598 16.3C92.5398 16.56 92.4298 16.85 92.4298 17.17C92.4298 17.49 92.5498 17.81 92.7898 18.13C93.0298 18.45 93.3798 18.69 93.8398 18.85C94.9598 19.01 96.0098 19.23 96.9898 19.51C97.9698 19.77 98.6898 20.2 99.1498 20.8C99.5898 21.52 99.8598 22.26 99.9598 23.02C100.06 23.76 99.9198 24.68 99.5398 25.78C99.0798 26.76 98.3598 27.46 97.3798 27.88C96.3998 28.3 95.3298 28.5 94.1698 28.48C93.1498 28.52 92.2298 28.43 91.4098 28.21C90.5898 27.99 89.8798 27.66 89.2798 27.22C88.6998 26.78 88.2398 26.24 87.8998 25.6C87.5798 24.96 87.4198 24.24 87.4198 23.44V23.35V23.29C88.0798 23.21 88.8298 23.19 89.6698 23.23C90.5098 23.25 91.2398 23.26 91.8598 23.26C91.8798 23.72 92.0898 24.1 92.4898 24.4C92.9098 24.68 93.3498 24.85 93.8098 24.91C94.2698 24.95 94.6898 24.86 95.0698 24.64C95.4498 24.42 95.6298 24.02 95.6098 23.44C95.6698 22.96 95.5598 22.6 95.2798 22.36C94.9998 22.12 94.6298 21.94 94.1698 21.82C93.7098 21.68 93.1898 21.56 92.6098 21.46C92.0298 21.36 91.4598 21.19 90.8998 20.95C89.7798 20.57 88.9598 19.98 88.4398 19.18C87.9398 18.36 87.6998 17.52 87.7198 16.66C87.7598 15.78 88.0398 14.97 88.5598 14.23C89.0998 13.49 89.8598 12.99 90.8398 12.73C91.2198 12.63 91.6798 12.55 92.2198 12.49C92.7798 12.43 93.3698 12.4 93.9898 12.4C94.6098 12.4 95.2298 12.44 95.8498 12.52C96.4698 12.58 97.0398 12.67 97.5598 12.79C98.4998 13.19 99.1698 13.83 99.5698 14.71ZM106.026 7.51C106.366 7.53 106.706 7.52 107.046 7.48V11.5C107.046 11.76 107.046 12.03 107.046 12.31C107.066 12.59 107.076 12.88 107.076 13.18C107.696 13.16 108.346 13.13 109.026 13.09C109.726 13.05 110.586 13 111.606 12.94C111.746 13.1 111.826 13.34 111.846 13.66C111.866 13.96 111.866 14.29 111.846 14.65C111.826 15.01 111.796 15.38 111.756 15.76C111.736 16.12 111.746 16.43 111.786 16.69H107.136C107.136 17.77 107.136 18.83 107.136 19.87C107.136 20.89 107.146 21.85 107.166 22.75C107.366 23.03 107.656 23.25 108.036 23.41C108.416 23.57 108.826 23.7 109.266 23.8C109.706 23.88 110.146 23.93 110.586 23.95C111.046 23.97 111.446 23.97 111.786 23.95C111.826 24.23 111.866 24.54 111.906 24.88C111.946 25.22 111.976 25.57 111.996 25.93C112.016 26.29 112.006 26.65 111.966 27.01C111.946 27.37 111.886 27.7 111.786 28C110.986 28.04 110.156 28.04 109.296 28C108.436 27.94 107.626 27.82 106.866 27.64C106.106 27.46 105.426 27.19 104.826 26.83C104.246 26.47 103.826 25.98 103.566 25.36C103.306 23.82 103.156 22.37 103.116 21.01C103.076 19.63 103.066 18.21 103.086 16.75C102.766 16.77 102.426 16.78 102.066 16.78C101.726 16.78 101.346 16.78 100.926 16.78L101.016 13.12C101.416 13.14 101.786 13.15 102.126 13.15C102.486 13.15 102.826 13.15 103.146 13.15C103.146 12.71 103.136 12.24 103.116 11.74C103.096 11.22 103.086 10.7 103.086 10.18C103.086 9.66 103.086 9.16 103.086 8.68C103.106 8.2 103.136 7.77 103.176 7.39C103.436 7.35 103.716 7.34 104.016 7.36C104.336 7.38 104.666 7.41 105.006 7.45C105.346 7.47 105.686 7.49 106.026 7.51Z" fill="#2B3A06"/>
<path d="M12.5 17.5C15.9531 17.5 18.75 14.7031 18.75 11.25C18.75 7.79688 15.9531 5 12.5 5C9.04688 5 6.25 7.79688 6.25 11.25C6.25 14.7031 9.04688 17.5 12.5 17.5ZM12.5 20.625C8.32812 20.625 0 22.7188 0 26.875V30H25V26.875C25 22.7188 16.6719 20.625 12.5 20.625Z" fill="#364908"/>
</svg>
