<svg width="415" height="35" viewBox="0 0 415 35" fill="none" xmlns="http://www.w3.org/2000/svg">
<path d="M159.364 8.40909V6.13636C159.364 5.51136 159.875 5 160.5 5C161.125 5 161.636 5.51136 161.636 6.13636V8.40909C161.636 9.03409 161.125 9.54545 160.5 9.54545C159.875 9.54545 159.364 9.03409 159.364 8.40909ZM167.727 11.875L169.33 10.2614C169.773 9.81818 169.773 9.10227 169.33 8.65909C168.886 8.21591 168.17 8.21591 167.727 8.65909L166.125 10.2727C165.682 10.7159 165.682 11.4318 166.125 11.875C166.568 12.3182 167.284 12.3182 167.727 11.875ZM171.864 16.3636H169.591C168.966 16.3636 168.455 16.875 168.455 17.5C168.455 18.125 168.966 18.6364 169.591 18.6364H171.864C172.489 18.6364 173 18.125 173 17.5C173 16.875 172.489 16.3636 171.864 16.3636ZM160.5 25.4545C159.875 25.4545 159.364 25.9659 159.364 26.5909V28.8636C159.364 29.4886 159.875 30 160.5 30C161.125 30 161.636 29.4886 161.636 28.8636V26.5909C161.636 25.9659 161.125 25.4545 160.5 25.4545ZM153.273 11.875L151.659 10.2727C151.216 9.82955 151.216 9.10227 151.659 8.67045C152.102 8.23864 152.83 8.22727 153.261 8.67045L154.864 10.2727C155.307 10.7159 155.307 11.4432 154.864 11.875C154.42 12.3068 153.705 12.3182 153.273 11.875ZM166.125 23.125C165.682 23.5682 165.682 24.2955 166.125 24.7273L167.727 26.3295C168.17 26.7727 168.898 26.7727 169.33 26.3295C169.773 25.8864 169.773 25.1591 169.33 24.7273L167.727 23.125C167.295 22.6818 166.568 22.6818 166.125 23.125ZM149.136 18.6364H151.409C152.034 18.6364 152.545 18.125 152.545 17.5C152.545 16.875 152.034 16.3636 151.409 16.3636H149.136C148.511 16.3636 148 16.875 148 17.5C148 18.125 148.511 18.6364 149.136 18.6364ZM153.273 26.3409L154.875 24.7386C155.318 24.2955 155.318 23.5682 154.875 23.1364C154.432 22.7045 153.705 22.6932 153.273 23.1364L151.67 24.7386C151.227 25.1818 151.227 25.9091 151.67 26.3409C152.102 26.7841 152.83 26.7841 153.273 26.3409ZM160.5 10.6818C156.739 10.6818 153.682 13.7386 153.682 17.5C153.682 21.2614 156.739 24.3182 160.5 24.3182C164.261 24.3182 167.318 21.2614 167.318 17.5C167.318 13.7386 164.261 10.6818 160.5 10.6818Z" fill="#364908"/>
<path d="M44.39 26.41C44.39 26.77 44.4 27.12 44.42 27.46C44.42 27.58 44.36 27.68 44.24 27.76C44.12 27.82 43.97 27.87 43.79 27.91C43.61 27.95 43.41 27.98 43.19 28C42.97 28 42.77 28 42.59 28C42.09 28 41.57 27.98 41.03 27.94C40.51 27.88 40.05 27.83 39.65 27.79V27.76V24.85C39.65 22.91 39.71 20.99 39.83 19.09C39.95 17.19 40.01 15.27 40.01 13.33C40.01 13.23 40.01 13.14 40.01 13.06C40.01 12.98 40 12.89 39.98 12.79C39.88 12.77 39.79 12.85 39.71 13.03C39.63 13.19 39.54 13.38 39.44 13.6C39.34 13.8 39.23 13.99 39.11 14.17C38.99 14.35 38.85 14.44 38.69 14.44C38.59 14.44 38.35 14.4 37.97 14.32C37.59 14.24 37.18 14.14 36.74 14.02C36.3 13.9 35.91 13.78 35.57 13.66C35.23 13.54 35.06 13.43 35.06 13.33C35.08 13.09 35.18 12.77 35.36 12.37C35.54 11.97 35.75 11.53 35.99 11.05C36.25 10.57 36.53 10.08 36.83 9.58C37.13 9.08 37.41 8.62 37.67 8.2C37.93 7.78 38.15 7.43 38.33 7.15C38.53 6.85 38.65 6.68 38.69 6.64C39.15 6.62 39.6 6.61 40.04 6.61C40.5 6.59 40.96 6.58 41.42 6.58C41.94 6.58 42.46 6.59 42.98 6.61C43.5 6.63 44.03 6.66 44.57 6.7C44.63 7.56 44.67 8.41 44.69 9.25C44.71 10.07 44.72 10.9 44.72 11.74C44.72 14.04 44.66 16.31 44.54 18.55C44.44 20.79 44.39 23.06 44.39 25.36C44.39 25.7 44.39 26.05 44.39 26.41ZM56.0422 20.32C56.0422 20.5 56.0422 20.69 56.0422 20.89V21.16C56.0422 22.18 56.3422 23.05 56.9422 23.77C57.3022 24.21 57.7822 24.48 58.3822 24.58C58.9822 24.66 59.5422 24.62 60.0622 24.46C60.2422 24.4 60.3822 24.31 60.4822 24.19C60.5822 24.05 60.6622 23.9 60.7222 23.74C60.7822 23.56 60.8222 23.38 60.8422 23.2C60.8822 23 60.9122 22.81 60.9322 22.63C60.9322 21.83 60.9122 21.02 60.8722 20.2C60.8522 19.36 60.7422 18.56 60.5422 17.8C60.4222 17.5 60.2222 17.27 59.9422 17.11C59.6822 16.93 59.3922 16.82 59.0722 16.78C58.7522 16.74 58.4322 16.77 58.1122 16.87C57.8122 16.95 57.5422 17.09 57.3022 17.29C57.0022 17.63 56.7422 18.01 56.5222 18.43C56.3222 18.83 56.1822 19.26 56.1022 19.72C56.0622 19.92 56.0422 20.12 56.0422 20.32ZM62.0122 33.88C61.7322 33.94 61.4722 33.98 61.2322 34C61.0322 34.04 60.6722 34.05 60.1522 34.03C59.6322 34.01 58.9622 34 58.1422 34C57.2022 34 56.3622 33.8 55.6222 33.4C54.8822 33 54.2822 32.46 53.8222 31.78C53.7422 31.64 53.6622 31.45 53.5822 31.21C53.5222 30.99 53.4622 30.76 53.4022 30.52C53.3622 30.28 53.3322 30.05 53.3122 29.83C53.3122 29.61 53.3222 29.42 53.3422 29.26C53.5422 29.18 53.8122 29.12 54.1522 29.08C54.4922 29.06 54.8422 29.05 55.2022 29.05C55.5822 29.07 55.9422 29.09 56.2822 29.11C56.6422 29.15 56.9422 29.19 57.1822 29.23C57.1822 29.75 57.3422 30.16 57.6622 30.46C58.0022 30.78 58.3722 30.96 58.7722 31C59.1922 31.04 59.5922 30.94 59.9722 30.7C60.3722 30.46 60.6322 30.06 60.7522 29.5C60.7722 29.3 60.7922 29.09 60.8122 28.87C60.8322 28.67 60.8322 28.49 60.8122 28.33C60.7722 27.99 60.7722 27.64 60.8122 27.28C60.6122 27.5 60.3722 27.66 60.0922 27.76C59.8322 27.86 59.5422 27.93 59.2222 27.97C58.9222 28.01 58.6122 28.03 58.2922 28.03C57.9722 28.03 57.6722 28.04 57.3922 28.06C57.0122 28.06 56.6222 28.03 56.2222 27.97C55.8422 27.91 55.4722 27.81 55.1122 27.67C54.7722 27.53 54.4622 27.34 54.1822 27.1C53.9022 26.86 53.6722 26.55 53.4922 26.17C53.2122 25.63 53.0122 25.07 52.8922 24.49C52.7722 23.89 52.6922 23.28 52.6522 22.66C52.6522 21.72 52.6722 20.71 52.7122 19.63C52.7522 18.55 52.9222 17.54 53.2222 16.6C53.5422 15.64 54.0422 14.84 54.7222 14.2C55.4022 13.54 56.3822 13.17 57.6622 13.09C58.3022 13.05 58.8922 13.14 59.4322 13.36C59.9922 13.56 60.3922 13.94 60.6322 14.5C60.7122 14.54 60.7522 14.51 60.7522 14.41C60.7722 14.29 60.7722 14.15 60.7522 13.99C60.7522 13.81 60.7422 13.64 60.7222 13.48C60.7222 13.3 60.7522 13.16 60.8122 13.06C61.4722 12.98 62.1422 12.96 62.8222 13C63.5022 13.02 64.1822 13.03 64.8622 13.03C64.9422 15.53 64.9822 18.15 64.9822 20.89C65.0022 23.61 64.9522 26.41 64.8322 29.29C64.8122 29.77 64.8122 30.24 64.8322 30.7C64.8522 31.18 64.7622 31.58 64.5622 31.9C64.2822 32.34 63.9922 32.69 63.6922 32.95C63.4122 33.21 63.1322 33.41 62.8522 33.55C62.5722 33.71 62.2922 33.82 62.0122 33.88ZM80.4561 20.65C79.7161 20.63 79.1961 20.59 78.8961 20.53V21.04C78.9161 21.62 78.9361 22.09 78.9561 22.45C78.9961 22.81 79.1261 23.16 79.3461 23.5C79.5861 23.92 79.9061 24.24 80.3061 24.46C80.7261 24.66 81.1261 24.72 81.5061 24.64C81.9061 24.56 82.2461 24.33 82.5261 23.95C82.8061 23.57 82.9261 22.99 82.8861 22.21C83.0661 22.23 83.3161 22.24 83.6361 22.24C83.9561 22.22 84.2861 22.2 84.6261 22.18C84.9861 22.16 85.3261 22.16 85.6461 22.18C85.9661 22.18 86.2261 22.21 86.4261 22.27C86.3861 22.75 86.3461 23.23 86.3061 23.71C86.2861 24.19 86.2461 24.64 86.1861 25.06C86.1261 25.46 86.0561 25.81 85.9761 26.11C85.8961 26.39 85.7861 26.59 85.6461 26.71C85.3261 27.15 84.9061 27.46 84.3861 27.64C83.8661 27.82 83.3061 27.94 82.7061 28C82.1061 28.04 81.4961 28.04 80.8761 28C80.2561 27.94 79.6761 27.91 79.1361 27.91C78.5361 27.81 78.0161 27.61 77.5761 27.31C77.1361 27.01 76.7661 26.65 76.4661 26.23C76.2461 26.41 76.0061 26.6 75.7461 26.8C75.5061 26.98 75.2261 27.17 74.9061 27.37C74.1261 27.81 73.3161 28.08 72.4761 28.18C71.6561 28.28 70.8661 28.24 70.1061 28.06C69.3661 27.88 68.6961 27.58 68.0961 27.16C67.4961 26.72 67.0361 26.19 66.7161 25.57C66.3961 24.95 66.2461 24.26 66.2661 23.5C66.3061 22.72 66.5861 21.89 67.1061 21.01C67.4261 20.51 67.8961 20.12 68.5161 19.84C69.1361 19.56 69.7961 19.39 70.4961 19.33C71.1961 19.25 71.8961 19.27 72.5961 19.39C73.2961 19.49 73.8961 19.68 74.3961 19.96C74.3761 19.52 74.3661 19.17 74.3661 18.91C74.3661 18.63 74.3661 18.41 74.3661 18.25C74.3661 18.07 74.3661 17.93 74.3661 17.83C74.3661 17.71 74.3461 17.59 74.3061 17.47C74.1861 16.93 73.9261 16.55 73.5261 16.33C73.1461 16.11 72.7461 16.03 72.3261 16.09C71.9061 16.13 71.5261 16.31 71.1861 16.63C70.8461 16.93 70.6761 17.33 70.6761 17.83C70.4361 17.87 70.1461 17.91 69.8061 17.95C69.4661 17.99 69.1161 18.02 68.7561 18.04C68.3961 18.04 68.0561 18.03 67.7361 18.01C67.4161 17.97 67.1561 17.9 66.9561 17.8C66.8561 17.02 66.9761 16.35 67.3161 15.79C67.6561 15.21 68.1161 14.74 68.6961 14.38C69.2961 14 69.9761 13.73 70.7361 13.57C71.4961 13.39 72.2461 13.31 72.9861 13.33C73.7261 13.33 74.4161 13.43 75.0561 13.63C75.7161 13.83 76.2361 14.11 76.6161 14.47C76.9761 14.15 77.3961 13.88 77.8761 13.66C78.3561 13.44 78.8561 13.28 79.3761 13.18C79.9161 13.08 80.4661 13.04 81.0261 13.06C81.6061 13.08 82.1661 13.16 82.7061 13.3C83.5861 13.46 84.2861 13.77 84.8061 14.23C85.3461 14.67 85.7461 15.21 86.0061 15.85C86.2861 16.49 86.4461 17.2 86.4861 17.98C86.5461 18.74 86.5461 19.51 86.4861 20.29C86.2861 20.35 85.8361 20.41 85.1361 20.47C84.4361 20.53 83.6661 20.58 82.8261 20.62C82.0061 20.64 81.2161 20.65 80.4561 20.65ZM69.8661 24.61C70.1061 24.85 70.5061 25.01 71.0661 25.09C72.0261 25.25 72.7361 25.21 73.1961 24.97C73.6561 24.71 73.9461 24.39 74.0661 24.01C74.2061 23.61 74.2061 23.21 74.0661 22.81C73.9461 22.41 73.7661 22.14 73.5261 22C72.9261 21.72 72.3261 21.57 71.7261 21.55C71.1461 21.53 70.5961 21.75 70.0761 22.21C69.8961 22.39 69.7361 22.63 69.5961 22.93C69.4761 23.21 69.4261 23.5 69.4461 23.8C69.4861 24.08 69.6261 24.35 69.8661 24.61ZM83.1261 16.93C82.9461 16.57 82.6861 16.31 82.3461 16.15C82.1861 16.07 82.0261 16.01 81.8661 15.97C81.7261 15.91 81.5561 15.88 81.3561 15.88C80.8961 15.88 80.5261 15.93 80.2461 16.03C79.9661 16.13 79.7361 16.26 79.5561 16.42C79.3961 16.58 79.2661 16.78 79.1661 17.02C79.0861 17.24 79.0261 17.47 78.9861 17.71C78.9461 17.93 78.9261 18.08 78.9261 18.16C78.9461 18.24 79.0361 18.3 79.1961 18.34C79.3761 18.36 79.6461 18.37 80.0061 18.37C80.3861 18.35 80.9361 18.34 81.6561 18.34C82.1561 18.34 82.5261 18.35 82.7661 18.37C83.0061 18.39 83.1761 18.4 83.2761 18.4C83.3761 18.4 83.4261 18.37 83.4261 18.31C83.4261 18.25 83.4261 18.15 83.4261 18.01C83.4261 17.63 83.3261 17.27 83.1261 16.93ZM99.5698 14.71C99.9698 15.57 100.17 16.54 100.17 17.62C99.5298 17.72 98.8198 17.78 98.0398 17.8C97.2798 17.82 96.5598 17.76 95.8798 17.62C95.9398 17.38 95.9098 17.14 95.7898 16.9C95.6898 16.66 95.5298 16.45 95.3098 16.27C95.1098 16.09 94.8698 15.96 94.5898 15.88C94.3298 15.78 94.0698 15.74 93.8098 15.76C93.3498 15.84 92.9998 16.02 92.7598 16.3C92.5398 16.56 92.4298 16.85 92.4298 17.17C92.4298 17.49 92.5498 17.81 92.7898 18.13C93.0298 18.45 93.3798 18.69 93.8398 18.85C94.9598 19.01 96.0098 19.23 96.9898 19.51C97.9698 19.77 98.6898 20.2 99.1498 20.8C99.5898 21.52 99.8598 22.26 99.9598 23.02C100.06 23.76 99.9198 24.68 99.5398 25.78C99.0798 26.76 98.3598 27.46 97.3798 27.88C96.3998 28.3 95.3298 28.5 94.1698 28.48C93.1498 28.52 92.2298 28.43 91.4098 28.21C90.5898 27.99 89.8798 27.66 89.2798 27.22C88.6998 26.78 88.2398 26.24 87.8998 25.6C87.5798 24.96 87.4198 24.24 87.4198 23.44V23.35V23.29C88.0798 23.21 88.8298 23.19 89.6698 23.23C90.5098 23.25 91.2398 23.26 91.8598 23.26C91.8798 23.72 92.0898 24.1 92.4898 24.4C92.9098 24.68 93.3498 24.85 93.8098 24.91C94.2698 24.95 94.6898 24.86 95.0698 24.64C95.4498 24.42 95.6298 24.02 95.6098 23.44C95.6698 22.96 95.5598 22.6 95.2798 22.36C94.9998 22.12 94.6298 21.94 94.1698 21.82C93.7098 21.68 93.1898 21.56 92.6098 21.46C92.0298 21.36 91.4598 21.19 90.8998 20.95C89.7798 20.57 88.9598 19.98 88.4398 19.18C87.9398 18.36 87.6998 17.52 87.7198 16.66C87.7598 15.78 88.0398 14.97 88.5598 14.23C89.0998 13.49 89.8598 12.99 90.8398 12.73C91.2198 12.63 91.6798 12.55 92.2198 12.49C92.7798 12.43 93.3698 12.4 93.9898 12.4C94.6098 12.4 95.2298 12.44 95.8498 12.52C96.4698 12.58 97.0398 12.67 97.5598 12.79C98.4998 13.19 99.1698 13.83 99.5698 14.71ZM106.026 7.51C106.366 7.53 106.706 7.52 107.046 7.48V11.5C107.046 11.76 107.046 12.03 107.046 12.31C107.066 12.59 107.076 12.88 107.076 13.18C107.696 13.16 108.346 13.13 109.026 13.09C109.726 13.05 110.586 13 111.606 12.94C111.746 13.1 111.826 13.34 111.846 13.66C111.866 13.96 111.866 14.29 111.846 14.65C111.826 15.01 111.796 15.38 111.756 15.76C111.736 16.12 111.746 16.43 111.786 16.69H107.136C107.136 17.77 107.136 18.83 107.136 19.87C107.136 20.89 107.146 21.85 107.166 22.75C107.366 23.03 107.656 23.25 108.036 23.41C108.416 23.57 108.826 23.7 109.266 23.8C109.706 23.88 110.146 23.93 110.586 23.95C111.046 23.97 111.446 23.97 111.786 23.95C111.826 24.23 111.866 24.54 111.906 24.88C111.946 25.22 111.976 25.57 111.996 25.93C112.016 26.29 112.006 26.65 111.966 27.01C111.946 27.37 111.886 27.7 111.786 28C110.986 28.04 110.156 28.04 109.296 28C108.436 27.94 107.626 27.82 106.866 27.64C106.106 27.46 105.426 27.19 104.826 26.83C104.246 26.47 103.826 25.98 103.566 25.36C103.306 23.82 103.156 22.37 103.116 21.01C103.076 19.63 103.066 18.21 103.086 16.75C102.766 16.77 102.426 16.78 102.066 16.78C101.726 16.78 101.346 16.78 100.926 16.78L101.016 13.12C101.416 13.14 101.786 13.15 102.126 13.15C102.486 13.15 102.826 13.15 103.146 13.15C103.146 12.71 103.136 12.24 103.116 11.74C103.096 11.22 103.086 10.7 103.086 10.18C103.086 9.66 103.086 9.16 103.086 8.68C103.106 8.2 103.136 7.77 103.176 7.39C103.436 7.35 103.716 7.34 104.016 7.36C104.336 7.38 104.666 7.41 105.006 7.45C105.346 7.47 105.686 7.49 106.026 7.51Z" fill="#2B3A06"/>
<path d="M196.8 12.79C196.88 14.65 196.87 16.54 196.77 18.46L196.68 28.03C196.38 27.99 196.05 27.97 195.69 27.97C195.33 27.97 194.97 27.97 194.61 27.97C194.25 27.97 193.9 27.98 193.56 28C193.24 28 192.96 28 192.72 28C192.68 27.14 192.65 26.21 192.63 25.21C192.63 24.21 192.62 23.19 192.6 22.15C192.6 21.11 192.57 20.09 192.51 19.09C192.47 18.09 192.4 17.17 192.3 16.33C192.16 16.55 192 16.9 191.82 17.38C191.64 17.84 191.46 18.32 191.28 18.82C191.1 19.32 190.93 19.76 190.77 20.14C190.61 20.52 190.49 20.71 190.41 20.71C190.31 20.71 190.19 20.61 190.05 20.41C189.93 20.19 189.8 19.92 189.66 19.6C189.54 19.28 189.41 18.94 189.27 18.58C189.13 18.22 189.01 17.89 188.91 17.59C188.81 17.29 188.72 17.04 188.64 16.84C188.58 16.64 188.55 16.54 188.55 16.54C188.39 18.42 188.33 20.32 188.37 22.24C188.43 24.16 188.52 26.05 188.64 27.91C188 28.01 187.3 28.05 186.54 28.03C185.78 28.01 185.08 28 184.44 28C184.4 28 184.37 27.97 184.35 27.91C184.33 27.83 184.31 27.64 184.29 27.34C184.27 27.04 184.25 26.59 184.23 25.99C184.23 25.37 184.23 24.56 184.23 23.56C184.23 22.56 184.23 21.32 184.23 19.84C184.25 18.36 184.26 16.6 184.26 14.56C184.28 12.52 184.3 10.14 184.32 7.42C184.58 7.34 184.88 7.29 185.22 7.27C185.56 7.25 185.91 7.25 186.27 7.27C186.63 7.27 186.99 7.28 187.35 7.3C187.71 7.3 188.06 7.29 188.4 7.27H188.43C188.61 7.47 188.79 7.78 188.97 8.2C189.15 8.6 189.32 9.03 189.48 9.49C189.64 9.95 189.79 10.39 189.93 10.81C190.09 11.23 190.25 11.56 190.41 11.8C190.47 11.86 190.53 11.89 190.59 11.89C190.65 11.91 190.74 11.72 190.86 11.32C191 10.92 191.14 10.46 191.28 9.94C191.44 9.4 191.61 8.87 191.79 8.35C191.99 7.83 192.18 7.45 192.36 7.21C192.5 7.23 192.75 7.23 193.11 7.21C193.49 7.19 193.89 7.17 194.31 7.15C194.75 7.13 195.19 7.12 195.63 7.12C196.09 7.1 196.48 7.09 196.8 7.09C196.72 9.01 196.72 10.91 196.8 12.79ZM199.109 15.22C199.229 14.84 199.319 14.54 199.379 14.32C199.519 14.02 199.739 13.76 200.039 13.54C200.359 13.32 200.719 13.14 201.119 13C201.539 12.84 201.979 12.73 202.439 12.67C202.919 12.61 203.399 12.58 203.879 12.58C204.279 12.62 204.659 12.63 205.019 12.61C205.399 12.57 205.799 12.57 206.219 12.61C206.859 12.65 207.469 12.78 208.049 13C208.629 13.2 209.129 13.5 209.549 13.9C209.829 14.08 210.049 14.37 210.209 14.77C210.369 15.17 210.489 15.64 210.569 16.18C210.649 16.7 210.699 17.28 210.719 17.92C210.739 18.54 210.759 19.18 210.779 19.84C210.759 20.42 210.729 21.08 210.689 21.82C210.669 22.56 210.619 23.27 210.539 23.95C210.479 24.63 210.389 25.24 210.269 25.78C210.169 26.32 210.019 26.69 209.819 26.89C209.479 27.37 209.029 27.71 208.469 27.91C207.929 28.11 207.339 28.23 206.699 28.27C206.059 28.33 205.399 28.33 204.719 28.27C204.039 28.23 203.419 28.21 202.859 28.21C201.839 28.03 200.979 27.59 200.279 26.89C199.739 26.41 199.369 25.81 199.169 25.09C198.969 24.37 198.849 23.62 198.809 22.84C198.769 22.04 198.759 21.24 198.779 20.44C198.819 19.64 198.809 18.91 198.749 18.25C198.749 17.89 198.759 17.54 198.779 17.2C198.799 16.84 198.839 16.47 198.899 16.09C198.919 15.87 198.989 15.58 199.109 15.22ZM204.149 17.2C203.729 17.32 203.389 17.54 203.129 17.86C203.009 17.94 202.919 18.14 202.859 18.46C202.779 19.1 202.739 19.74 202.739 20.38C202.739 21 202.719 21.66 202.679 22.36C202.659 22.82 202.779 23.18 203.039 23.44C203.299 23.68 203.609 23.85 203.969 23.95C204.349 24.03 204.739 24.05 205.139 24.01C205.539 23.95 205.869 23.85 206.129 23.71C206.469 23.55 206.699 23.22 206.819 22.72C206.899 22.08 206.959 21.44 206.999 20.8C207.059 20.14 207.029 19.52 206.909 18.94C206.809 18.24 206.519 17.73 206.039 17.41C205.559 17.09 204.929 17.02 204.149 17.2ZM216.637 13.75C216.657 13.81 216.667 13.91 216.667 14.05C216.747 14.01 216.927 13.93 217.207 13.81C217.507 13.69 217.797 13.58 218.077 13.48C218.457 13.36 218.887 13.27 219.367 13.21C219.847 13.13 220.297 13.08 220.717 13.06C221.137 13.04 221.487 13.04 221.767 13.06C222.067 13.06 222.217 13.07 222.217 13.09C222.217 13.77 222.207 14.37 222.187 14.89C222.187 15.41 222.187 15.88 222.187 16.3C222.187 16.7 222.187 17.07 222.187 17.41C222.187 17.75 222.197 18.07 222.217 18.37L221.947 18.28C221.847 18.24 221.737 18.21 221.617 18.19C221.517 18.15 221.417 18.11 221.317 18.07C221.077 18.01 220.827 17.96 220.567 17.92C220.327 17.88 220.197 17.86 220.177 17.86C219.637 17.8 219.137 17.77 218.677 17.77C218.237 17.77 217.847 17.84 217.507 17.98C217.187 18.12 216.937 18.34 216.757 18.64C216.577 18.94 216.497 19.37 216.517 19.93C216.537 20.63 216.557 21.29 216.577 21.91C216.597 22.53 216.607 23.16 216.607 23.8C216.607 24.42 216.607 25.06 216.607 25.72C216.627 26.36 216.637 27.05 216.637 27.79V27.91C216.297 28.01 215.987 28.07 215.707 28.09C215.427 28.11 215.137 28.11 214.837 28.09C214.537 28.09 214.207 28.08 213.847 28.06C213.507 28.04 213.097 28.05 212.617 28.09C212.617 25.63 212.587 23.17 212.527 20.71C212.487 18.25 212.507 15.7 212.587 13.06C212.827 13.08 213.027 13.1 213.187 13.12C213.347 13.12 213.497 13.12 213.637 13.12C213.777 13.12 213.927 13.12 214.087 13.12C214.247 13.1 214.447 13.08 214.687 13.06C214.767 13.06 214.907 13.05 215.107 13.03C215.327 13.01 215.547 12.99 215.767 12.97C216.007 12.95 216.207 12.95 216.367 12.97C216.547 12.97 216.637 12.99 216.637 13.03C216.637 13.19 216.637 13.31 216.637 13.39C216.637 13.47 216.637 13.54 216.637 13.6C216.637 13.64 216.637 13.69 216.637 13.75ZM226.571 20.32C226.571 20.5 226.571 20.69 226.571 20.89V21.16C226.571 22.18 226.871 23.05 227.471 23.77C227.831 24.21 228.311 24.48 228.911 24.58C229.511 24.66 230.071 24.62 230.591 24.46C230.771 24.4 230.911 24.31 231.011 24.19C231.111 24.05 231.191 23.9 231.251 23.74C231.311 23.56 231.351 23.38 231.371 23.2C231.411 23 231.441 22.81 231.461 22.63C231.461 21.83 231.441 21.02 231.401 20.2C231.381 19.36 231.271 18.56 231.071 17.8C230.951 17.5 230.751 17.27 230.471 17.11C230.211 16.93 229.921 16.82 229.601 16.78C229.281 16.74 228.961 16.77 228.641 16.87C228.341 16.95 228.071 17.09 227.831 17.29C227.531 17.63 227.271 18.01 227.051 18.43C226.851 18.83 226.711 19.26 226.631 19.72C226.591 19.92 226.571 20.12 226.571 20.32ZM232.541 33.88C232.261 33.94 232.001 33.98 231.761 34C231.561 34.04 231.201 34.05 230.681 34.03C230.161 34.01 229.491 34 228.671 34C227.731 34 226.891 33.8 226.151 33.4C225.411 33 224.811 32.46 224.351 31.78C224.271 31.64 224.191 31.45 224.111 31.21C224.051 30.99 223.991 30.76 223.931 30.52C223.891 30.28 223.861 30.05 223.841 29.83C223.841 29.61 223.851 29.42 223.871 29.26C224.071 29.18 224.341 29.12 224.681 29.08C225.021 29.06 225.371 29.05 225.731 29.05C226.111 29.07 226.471 29.09 226.811 29.11C227.171 29.15 227.471 29.19 227.711 29.23C227.711 29.75 227.871 30.16 228.191 30.46C228.531 30.78 228.901 30.96 229.301 31C229.721 31.04 230.121 30.94 230.501 30.7C230.901 30.46 231.161 30.06 231.281 29.5C231.301 29.3 231.321 29.09 231.341 28.87C231.361 28.67 231.361 28.49 231.341 28.33C231.301 27.99 231.301 27.64 231.341 27.28C231.141 27.5 230.901 27.66 230.621 27.76C230.361 27.86 230.071 27.93 229.751 27.97C229.451 28.01 229.141 28.03 228.821 28.03C228.501 28.03 228.201 28.04 227.921 28.06C227.541 28.06 227.151 28.03 226.751 27.97C226.371 27.91 226.001 27.81 225.641 27.67C225.301 27.53 224.991 27.34 224.711 27.1C224.431 26.86 224.201 26.55 224.021 26.17C223.741 25.63 223.541 25.07 223.421 24.49C223.301 23.89 223.221 23.28 223.181 22.66C223.181 21.72 223.201 20.71 223.241 19.63C223.281 18.55 223.451 17.54 223.751 16.6C224.071 15.64 224.571 14.84 225.251 14.2C225.931 13.54 226.911 13.17 228.191 13.09C228.831 13.05 229.421 13.14 229.961 13.36C230.521 13.56 230.921 13.94 231.161 14.5C231.241 14.54 231.281 14.51 231.281 14.41C231.301 14.29 231.301 14.15 231.281 13.99C231.281 13.81 231.271 13.64 231.251 13.48C231.251 13.3 231.281 13.16 231.341 13.06C232.001 12.98 232.671 12.96 233.351 13C234.031 13.02 234.711 13.03 235.391 13.03C235.471 15.53 235.511 18.15 235.511 20.89C235.531 23.61 235.481 26.41 235.361 29.29C235.341 29.77 235.341 30.24 235.361 30.7C235.381 31.18 235.291 31.58 235.091 31.9C234.811 32.34 234.521 32.69 234.221 32.95C233.941 33.21 233.661 33.41 233.381 33.55C233.101 33.71 232.821 33.82 232.541 33.88ZM242.165 20.56C241.725 20.54 241.405 20.51 241.205 20.47V21.01C241.225 21.61 241.245 22.1 241.265 22.48C241.305 22.86 241.435 23.23 241.655 23.59C241.895 24.05 242.235 24.39 242.675 24.61C243.115 24.83 243.545 24.9 243.965 24.82C244.385 24.74 244.735 24.5 245.015 24.1C245.315 23.68 245.445 23.06 245.405 22.24C245.605 22.26 245.875 22.27 246.215 22.27C246.555 22.25 246.905 22.23 247.265 22.21C247.645 22.19 248.005 22.19 248.345 22.21C248.685 22.21 248.965 22.24 249.185 22.3C249.145 22.82 249.105 23.33 249.065 23.83C249.025 24.33 248.975 24.8 248.915 25.24C248.855 25.66 248.775 26.03 248.675 26.35C248.595 26.65 248.485 26.86 248.345 26.98C248.005 27.46 247.565 27.8 247.025 28C246.485 28.2 245.895 28.32 245.255 28.36C244.615 28.4 243.955 28.4 243.275 28.36C242.615 28.32 242.005 28.3 241.445 28.3C240.885 28.22 240.365 28.04 239.885 27.76C239.345 27.38 238.895 26.89 238.535 26.29C238.175 25.67 237.885 25 237.665 24.28C237.445 23.54 237.295 22.76 237.215 21.94C237.135 21.12 237.115 20.3 237.155 19.48C237.215 18.74 237.275 18.03 237.335 17.35C237.415 16.65 237.575 15.97 237.815 15.31C238.075 14.73 238.475 14.24 239.015 13.84C239.555 13.42 240.165 13.11 240.845 12.91C241.525 12.69 242.245 12.57 243.005 12.55C243.765 12.53 244.505 12.61 245.225 12.79C246.145 12.95 246.885 13.27 247.445 13.75C248.005 14.23 248.425 14.81 248.705 15.49C249.005 16.17 249.185 16.92 249.245 17.74C249.305 18.56 249.305 19.39 249.245 20.23C249.105 20.27 248.835 20.31 248.435 20.35C248.055 20.39 247.595 20.43 247.055 20.47C246.535 20.51 245.975 20.54 245.375 20.56C244.775 20.58 244.195 20.59 243.635 20.59C243.095 20.59 242.605 20.58 242.165 20.56ZM245.675 16.63C245.475 16.27 245.195 16 244.835 15.82C244.675 15.72 244.515 15.65 244.355 15.61C244.195 15.55 244.005 15.52 243.785 15.52C243.305 15.52 242.915 15.57 242.615 15.67C242.315 15.77 242.075 15.91 241.895 16.09C241.715 16.27 241.575 16.48 241.475 16.72C241.395 16.96 241.335 17.21 241.295 17.47C241.255 17.69 241.235 17.85 241.235 17.95C241.255 18.03 241.355 18.09 241.535 18.13C241.715 18.15 241.995 18.16 242.375 18.16C242.775 18.14 243.355 18.13 244.115 18.13C244.635 18.13 245.025 18.14 245.285 18.16C245.545 18.18 245.725 18.19 245.825 18.19C245.945 18.17 246.005 18.14 246.005 18.1C246.005 18.04 246.005 17.93 246.005 17.77C246.005 17.37 245.895 16.99 245.675 16.63ZM254.895 13.87C254.895 14.09 254.905 14.34 254.925 14.62C255.025 14.56 255.145 14.49 255.285 14.41C255.445 14.33 255.575 14.25 255.675 14.17C256.095 13.87 256.565 13.63 257.085 13.45C257.605 13.27 258.135 13.17 258.675 13.15C259.235 13.13 259.775 13.19 260.295 13.33C260.815 13.47 261.285 13.72 261.705 14.08C261.905 14.26 262.055 14.64 262.155 15.22C262.275 15.78 262.345 16.46 262.365 17.26C262.405 18.06 262.415 18.94 262.395 19.9C262.395 20.84 262.385 21.8 262.365 22.78C262.345 23.74 262.325 24.67 262.305 25.57C262.285 26.47 262.295 27.26 262.335 27.94C261.635 28.04 261.005 28.08 260.445 28.06C259.905 28.06 259.285 28.06 258.585 28.06C258.545 27.6 258.525 27.08 258.525 26.5C258.525 25.92 258.525 25.32 258.525 24.7C258.545 24.08 258.545 23.46 258.525 22.84C258.525 22.22 258.505 21.64 258.465 21.1C258.445 20.86 258.425 20.6 258.405 20.32C258.385 20.02 258.345 19.73 258.285 19.45C258.245 19.17 258.175 18.92 258.075 18.7C257.995 18.48 257.875 18.31 257.715 18.19C257.695 18.17 257.675 18.16 257.655 18.16C257.635 18.16 257.615 18.15 257.595 18.13C257.435 18.05 257.195 17.99 256.875 17.95C256.575 17.89 256.275 17.91 255.975 18.01C255.675 18.09 255.405 18.27 255.165 18.55C254.925 18.81 254.785 19.21 254.745 19.75C254.705 20.45 254.695 21.14 254.715 21.82C254.735 22.48 254.755 23.15 254.775 23.83C254.815 24.49 254.835 25.15 254.835 25.81C254.835 26.47 254.795 27.13 254.715 27.79V27.91C254.375 28.01 254.075 28.07 253.815 28.09C253.575 28.11 253.325 28.11 253.065 28.09C252.805 28.09 252.515 28.08 252.195 28.06C251.875 28.04 251.475 28.05 250.995 28.09C250.995 25.63 250.965 23.17 250.905 20.71C250.865 18.25 250.885 15.7 250.965 13.06C251.205 13.08 251.405 13.1 251.565 13.12C251.725 13.12 251.875 13.12 252.015 13.12C252.155 13.12 252.305 13.12 252.465 13.12C252.625 13.1 252.825 13.08 253.065 13.06C253.145 13.06 253.285 13.05 253.485 13.03C253.685 12.99 253.885 12.96 254.085 12.94C254.285 12.92 254.465 12.92 254.625 12.94C254.785 12.94 254.865 12.97 254.865 13.03C254.905 13.37 254.915 13.65 254.895 13.87Z" fill="#2B3A06"/>
<path d="M346.955 26.41C346.955 26.77 346.965 27.12 346.985 27.46C346.985 27.58 346.925 27.68 346.805 27.76C346.685 27.82 346.535 27.87 346.355 27.91C346.175 27.95 345.975 27.98 345.755 28C345.535 28 345.335 28 345.155 28C344.655 28 344.135 27.98 343.595 27.94C343.075 27.88 342.615 27.83 342.215 27.79V27.76V24.85C342.215 22.91 342.275 20.99 342.395 19.09C342.515 17.19 342.575 15.27 342.575 13.33C342.575 13.23 342.575 13.14 342.575 13.06C342.575 12.98 342.565 12.89 342.545 12.79C342.445 12.77 342.355 12.85 342.275 13.03C342.195 13.19 342.105 13.38 342.005 13.6C341.905 13.8 341.795 13.99 341.675 14.17C341.555 14.35 341.415 14.44 341.255 14.44C341.155 14.44 340.915 14.4 340.535 14.32C340.155 14.24 339.745 14.14 339.305 14.02C338.865 13.9 338.475 13.78 338.135 13.66C337.795 13.54 337.625 13.43 337.625 13.33C337.645 13.09 337.745 12.77 337.925 12.37C338.105 11.97 338.315 11.53 338.555 11.05C338.815 10.57 339.095 10.08 339.395 9.58C339.695 9.08 339.975 8.62 340.235 8.2C340.495 7.78 340.715 7.43 340.895 7.15C341.095 6.85 341.215 6.68 341.255 6.64C341.715 6.62 342.165 6.61 342.605 6.61C343.065 6.59 343.525 6.58 343.985 6.58C344.505 6.58 345.025 6.59 345.545 6.61C346.065 6.63 346.595 6.66 347.135 6.7C347.195 7.56 347.235 8.41 347.255 9.25C347.275 10.07 347.285 10.9 347.285 11.74C347.285 14.04 347.225 16.31 347.105 18.55C347.005 20.79 346.955 23.06 346.955 25.36C346.955 25.7 346.955 26.05 346.955 26.41ZM351.071 27.01C350.831 26.83 350.691 26.72 350.651 26.68C350.371 26.4 350.141 26.08 349.961 25.72C349.801 25.34 349.701 24.95 349.661 24.55C349.581 24.09 349.531 23.62 349.511 23.14C349.511 22.64 349.471 22.08 349.391 21.46C349.391 21.44 349.401 21.43 349.421 21.43H349.451C350.051 21.47 350.661 21.43 351.281 21.31C351.921 21.17 352.611 21.12 353.351 21.16H353.381L353.411 21.19C353.531 21.55 353.751 21.89 354.071 22.21C354.391 22.53 354.751 22.77 355.151 22.93C355.551 23.07 355.951 23.11 356.351 23.05C356.771 22.99 357.131 22.75 357.431 22.33C357.671 21.93 357.751 21.48 357.671 20.98C357.611 20.46 357.371 20.04 356.951 19.72C356.511 19.4 355.971 19.23 355.331 19.21C354.711 19.19 354.151 19.23 353.651 19.33C353.531 19.07 353.461 18.76 353.441 18.4C353.421 18.04 353.421 17.67 353.441 17.29C353.461 16.91 353.481 16.54 353.501 16.18C353.541 15.8 353.541 15.47 353.501 15.19V15.16C353.841 15.04 354.251 14.99 354.731 15.01C355.231 15.01 355.701 14.98 356.141 14.92C356.601 14.86 356.981 14.71 357.281 14.47C357.581 14.23 357.711 13.79 357.671 13.15C357.651 12.47 357.441 12.02 357.041 11.8C356.661 11.58 356.221 11.51 355.721 11.59C355.221 11.67 354.741 11.88 354.281 12.22C353.821 12.54 353.511 12.91 353.351 13.33C353.191 13.35 352.901 13.36 352.481 13.36C352.061 13.36 351.621 13.36 351.161 13.36C350.721 13.36 350.321 13.37 349.961 13.39C349.621 13.39 349.431 13.39 349.391 13.39V13.33C349.391 12.93 349.371 12.48 349.331 11.98C349.291 11.46 349.351 10.98 349.511 10.54C349.751 9.74 350.171 9.07 350.771 8.53C351.391 7.99 352.091 7.57 352.871 7.27C353.671 6.97 354.511 6.8 355.391 6.76C356.291 6.7 357.151 6.76 357.971 6.94C358.811 7.12 359.561 7.41 360.221 7.81C360.901 8.21 361.411 8.71 361.751 9.31C361.951 9.63 362.071 9.98 362.111 10.36C362.171 10.72 362.191 11.09 362.171 11.47C362.211 13.17 362.221 14.85 362.201 16.51C362.201 18.15 362.171 19.78 362.111 21.4C362.071 21.98 362.041 22.57 362.021 23.17C362.001 23.77 361.861 24.34 361.601 24.88C361.321 25.54 360.931 26.11 360.431 26.59C359.951 27.07 359.341 27.43 358.601 27.67C357.861 27.89 357.051 28 356.171 28C355.291 28.02 354.471 27.98 353.711 27.88C353.431 27.84 353.151 27.78 352.871 27.7C352.611 27.62 352.341 27.54 352.061 27.46C351.641 27.34 351.311 27.19 351.071 27.01ZM367.877 28H367.817L364.427 27.97H364.337C364.297 27.75 364.267 27.47 364.247 27.13C364.247 26.79 364.247 26.45 364.247 26.11C364.267 25.77 364.277 25.45 364.277 25.15C364.297 24.85 364.307 24.63 364.307 24.49C364.507 24.41 364.787 24.35 365.147 24.31C365.527 24.27 365.907 24.25 366.287 24.25C366.667 24.25 367.017 24.27 367.337 24.31C367.677 24.33 367.917 24.37 368.057 24.43C368.057 24.45 368.047 24.62 368.027 24.94C368.007 25.24 367.987 25.59 367.967 25.99C367.947 26.39 367.927 26.78 367.907 27.16C367.887 27.54 367.877 27.8 367.877 27.94V27.97V28ZM392.8 12.79C392.88 14.65 392.87 16.54 392.77 18.46L392.68 28.03C392.38 27.99 392.05 27.97 391.69 27.97C391.33 27.97 390.97 27.97 390.61 27.97C390.25 27.97 389.9 27.98 389.56 28C389.24 28 388.96 28 388.72 28C388.68 27.14 388.65 26.21 388.63 25.21C388.63 24.21 388.62 23.19 388.6 22.15C388.6 21.11 388.57 20.09 388.51 19.09C388.47 18.09 388.4 17.17 388.3 16.33C388.16 16.55 388 16.9 387.82 17.38C387.64 17.84 387.46 18.32 387.28 18.82C387.1 19.32 386.93 19.76 386.77 20.14C386.61 20.52 386.49 20.71 386.41 20.71C386.31 20.71 386.19 20.61 386.05 20.41C385.93 20.19 385.8 19.92 385.66 19.6C385.54 19.28 385.41 18.94 385.27 18.58C385.13 18.22 385.01 17.89 384.91 17.59C384.81 17.29 384.72 17.04 384.64 16.84C384.58 16.64 384.55 16.54 384.55 16.54C384.39 18.42 384.33 20.32 384.37 22.24C384.43 24.16 384.52 26.05 384.64 27.91C384 28.01 383.3 28.05 382.54 28.03C381.78 28.01 381.08 28 380.44 28C380.4 28 380.37 27.97 380.35 27.91C380.33 27.83 380.31 27.64 380.29 27.34C380.27 27.04 380.25 26.59 380.23 25.99C380.23 25.37 380.23 24.56 380.23 23.56C380.23 22.56 380.23 21.32 380.23 19.84C380.25 18.36 380.26 16.6 380.26 14.56C380.28 12.52 380.3 10.14 380.32 7.42C380.58 7.34 380.88 7.29 381.22 7.27C381.56 7.25 381.91 7.25 382.27 7.27C382.63 7.27 382.99 7.28 383.35 7.3C383.71 7.3 384.06 7.29 384.4 7.27H384.43C384.61 7.47 384.79 7.78 384.97 8.2C385.15 8.6 385.32 9.03 385.48 9.49C385.64 9.95 385.79 10.39 385.93 10.81C386.09 11.23 386.25 11.56 386.41 11.8C386.47 11.86 386.53 11.89 386.59 11.89C386.65 11.91 386.74 11.72 386.86 11.32C387 10.92 387.14 10.46 387.28 9.94C387.44 9.4 387.61 8.87 387.79 8.35C387.99 7.83 388.18 7.45 388.36 7.21C388.5 7.23 388.75 7.23 389.11 7.21C389.49 7.19 389.89 7.17 390.31 7.15C390.75 7.13 391.19 7.12 391.63 7.12C392.09 7.1 392.48 7.09 392.8 7.09C392.72 9.01 392.72 10.91 392.8 12.79ZM405.343 12.97C405.843 12.99 406.413 13.02 407.053 13.06C407.073 13.18 407.083 13.3 407.083 13.42C407.103 13.54 407.113 13.66 407.113 13.78V14.08C407.053 16.24 407.063 18.37 407.143 20.47C407.223 22.55 407.193 24.66 407.053 26.8C407.053 27.06 407.043 27.32 407.023 27.58C407.023 27.84 406.903 27.99 406.663 28.03H406.303C405.983 28.03 405.653 28.02 405.313 28C404.993 27.96 404.673 27.94 404.353 27.94C404.133 27.94 403.913 27.96 403.693 28C403.493 28.02 403.283 28.03 403.063 28.03C402.923 27.99 402.823 27.91 402.763 27.79C402.723 27.67 402.703 27.53 402.703 27.37C402.703 27.15 402.723 26.97 402.763 26.83C402.803 26.69 402.823 26.52 402.823 26.32C402.343 26.8 401.733 27.21 400.993 27.55C400.273 27.89 399.563 28.06 398.863 28.06C398.083 28.06 397.413 27.79 396.853 27.25C396.313 26.71 395.863 26.04 395.503 25.24C395.143 24.44 394.873 23.57 394.693 22.63C394.533 21.69 394.453 20.82 394.453 20.02C394.453 19.02 394.583 18.1 394.843 17.26C395.103 16.42 395.453 15.7 395.893 15.1C396.353 14.48 396.893 14 397.513 13.66C398.133 13.3 398.793 13.11 399.493 13.09C399.853 13.09 400.183 13.1 400.483 13.12C400.803 13.12 401.093 13.17 401.353 13.27C401.613 13.35 401.843 13.49 402.043 13.69C402.243 13.87 402.413 14.13 402.553 14.47C402.533 14.15 402.543 13.88 402.583 13.66C402.643 13.42 402.673 13.18 402.673 12.94C402.673 12.92 402.733 12.91 402.853 12.91C402.993 12.89 403.143 12.89 403.303 12.91C403.463 12.91 403.623 12.91 403.783 12.91C403.943 12.91 404.053 12.91 404.113 12.91C404.453 12.93 404.863 12.95 405.343 12.97ZM399.163 17.71C398.703 18.09 398.423 18.53 398.323 19.03C398.243 19.29 398.193 19.56 398.173 19.84C398.153 20.1 398.143 20.36 398.143 20.62C398.143 21.52 398.373 22.29 398.833 22.93C399.313 23.55 399.973 23.86 400.813 23.86C401.313 23.86 401.683 23.78 401.923 23.62C402.183 23.44 402.363 23.2 402.463 22.9C402.583 22.58 402.643 22.2 402.643 21.76C402.663 21.3 402.673 20.79 402.673 20.23C402.673 19.53 402.663 18.98 402.643 18.58C402.643 18.16 402.593 17.84 402.493 17.62C402.413 17.4 402.263 17.26 402.043 17.2C401.843 17.14 401.533 17.11 401.113 17.11C400.293 17.11 399.643 17.31 399.163 17.71ZM409.2 19.72C409.22 18.76 409.25 17.89 409.29 17.11V13.09C409.61 13.13 409.94 13.14 410.28 13.12C410.64 13.1 410.99 13.08 411.33 13.06C411.67 13.02 411.99 12.99 412.29 12.97C412.61 12.95 412.9 12.96 413.16 13C413.22 13.48 413.25 14.06 413.25 14.74C413.25 15.4 413.24 16.07 413.22 16.75C413.22 17.41 413.21 18.05 413.19 18.67C413.17 19.27 413.18 19.75 413.22 20.11C413.22 21.09 413.22 22.03 413.22 22.93C413.24 23.81 413.24 24.69 413.22 25.57C413.22 26.43 413.18 27.3 413.1 28.18C413.04 29.08 412.93 30.01 412.77 30.97C412.51 31.59 412.08 32.08 411.48 32.44C410.9 32.8 410.23 33.07 409.47 33.25C408.71 33.43 407.9 33.54 407.04 33.58C406.18 33.64 405.35 33.65 404.55 33.61C404.45 33.31 404.39 32.98 404.37 32.62C404.33 32.26 404.32 31.9 404.34 31.54C404.36 31.18 404.39 30.83 404.43 30.49C404.47 30.15 404.51 29.84 404.55 29.56C404.89 29.58 405.29 29.58 405.75 29.56C406.19 29.54 406.63 29.48 407.07 29.38C407.51 29.3 407.92 29.18 408.3 29.02C408.68 28.86 408.97 28.64 409.17 28.36C409.19 27.52 409.2 26.61 409.2 25.63C409.2 24.65 409.2 23.66 409.2 22.66C409.2 21.66 409.2 20.68 409.2 19.72ZM409.14 8.71C409.1 8.07 409.09 7.29 409.11 6.37L413.1 6.46C413.1 6.58 413.1 6.8 413.1 7.12C413.12 7.42 413.13 7.76 413.13 8.14C413.15 8.5 413.16 8.88 413.16 9.28C413.18 9.66 413.19 10 413.19 10.3C413.11 10.42 412.93 10.5 412.65 10.54C412.37 10.58 412.04 10.6 411.66 10.6C411.3 10.58 410.9 10.56 410.46 10.54C410.02 10.5 409.61 10.49 409.23 10.51C409.23 9.93 409.2 9.33 409.14 8.71Z" fill="#2B3A06"/>
<path d="M12.5 17.5C15.9531 17.5 18.75 14.7031 18.75 11.25C18.75 7.79688 15.9531 5 12.5 5C9.04688 5 6.25 7.79688 6.25 11.25C6.25 14.7031 9.04688 17.5 12.5 17.5ZM12.5 20.625C8.32812 20.625 0 22.7188 0 26.875V30H25V26.875C25 22.7188 16.6719 20.625 12.5 20.625Z" fill="#364908"/>
<path d="M321.222 7.5H319.833V5H317.056V7.5H305.944V5H303.167V7.5H301.778C300.236 7.5 299.014 8.625 299.014 10L299 27.5C299 28.875 300.236 30 301.778 30H321.222C322.75 30 324 28.875 324 27.5V10C324 8.625 322.75 7.5 321.222 7.5ZM321.222 27.5H301.778V15H321.222V27.5ZM307.333 20H304.556V17.5H307.333V20ZM312.889 20H310.111V17.5H312.889V20ZM318.444 20H315.667V17.5H318.444V20ZM307.333 25H304.556V22.5H307.333V25ZM312.889 25H310.111V22.5H312.889V25ZM318.444 25H315.667V22.5H318.444V25Z" fill="#364908"/>
</svg>
