<svg width="79" height="24" viewBox="0 0 79 24" fill="none" xmlns="http://www.w3.org/2000/svg">
<path d="M33.0505 17.94C33.0505 18.18 33.0572 18.4133 33.0705 18.64C33.0705 18.72 33.0305 18.7867 32.9505 18.84C32.8705 18.88 32.7705 18.9133 32.6505 18.94C32.5305 18.9667 32.3972 18.9867 32.2505 19C32.1039 19 31.9705 19 31.8505 19C31.5172 19 31.1705 18.9867 30.8105 18.96C30.4639 18.92 30.1572 18.8867 29.8905 18.86V18.84V16.9C29.8905 15.6067 29.9305 14.3267 30.0105 13.06C30.0905 11.7933 30.1305 10.5133 30.1305 9.22C30.1305 9.15333 30.1305 9.09333 30.1305 9.04C30.1305 8.98667 30.1239 8.92667 30.1105 8.86C30.0439 8.84667 29.9839 8.9 29.9305 9.02C29.8772 9.12667 29.8172 9.25333 29.7505 9.4C29.6839 9.53333 29.6105 9.66 29.5305 9.78C29.4505 9.9 29.3572 9.96 29.2505 9.96C29.1839 9.96 29.0239 9.93333 28.7705 9.88C28.5172 9.82667 28.2439 9.76 27.9505 9.68C27.6572 9.6 27.3972 9.52 27.1705 9.44C26.9439 9.36 26.8305 9.28667 26.8305 9.22C26.8439 9.06 26.9105 8.84667 27.0305 8.58C27.1505 8.31333 27.2905 8.02 27.4505 7.7C27.6239 7.38 27.8105 7.05333 28.0105 6.72C28.2105 6.38667 28.3972 6.08 28.5705 5.8C28.7439 5.52 28.8905 5.28667 29.0105 5.1C29.1439 4.9 29.2239 4.78667 29.2505 4.76C29.5572 4.74667 29.8572 4.74 30.1505 4.74C30.4572 4.72667 30.7639 4.72 31.0705 4.72C31.4172 4.72 31.7639 4.72667 32.1105 4.74C32.4572 4.75333 32.8105 4.77333 33.1705 4.8C33.2105 5.37333 33.2372 5.94 33.2505 6.5C33.2639 7.04667 33.2705 7.6 33.2705 8.16C33.2705 9.69333 33.2305 11.2067 33.1505 12.7C33.0839 14.1933 33.0505 15.7067 33.0505 17.24C33.0505 17.4667 33.0505 17.7 33.0505 17.94ZM40.8187 13.88C40.8187 14 40.8187 14.1267 40.8187 14.26V14.44C40.8187 15.12 41.0187 15.7 41.4187 16.18C41.6587 16.4733 41.9787 16.6533 42.3787 16.72C42.7787 16.7733 43.152 16.7467 43.4987 16.64C43.6187 16.6 43.712 16.54 43.7787 16.46C43.8453 16.3667 43.8987 16.2667 43.9387 16.16C43.9787 16.04 44.0053 15.92 44.0187 15.8C44.0453 15.6667 44.0653 15.54 44.0787 15.42C44.0787 14.8867 44.0653 14.3467 44.0387 13.8C44.0253 13.24 43.952 12.7067 43.8187 12.2C43.7387 12 43.6053 11.8467 43.4187 11.74C43.2453 11.62 43.052 11.5467 42.8387 11.52C42.6253 11.4933 42.412 11.5133 42.1987 11.58C41.9987 11.6333 41.8187 11.7267 41.6587 11.86C41.4587 12.0867 41.2853 12.34 41.1387 12.62C41.0053 12.8867 40.912 13.1733 40.8587 13.48C40.832 13.6133 40.8187 13.7467 40.8187 13.88ZM44.7987 22.92C44.612 22.96 44.4387 22.9867 44.2787 23C44.1453 23.0267 43.9053 23.0333 43.5587 23.02C43.212 23.0067 42.7653 23 42.2187 23C41.592 23 41.032 22.8667 40.5387 22.6C40.0453 22.3333 39.6453 21.9733 39.3387 21.52C39.2853 21.4267 39.232 21.3 39.1787 21.14C39.1387 20.9933 39.0987 20.84 39.0587 20.68C39.032 20.52 39.012 20.3667 38.9987 20.22C38.9987 20.0733 39.0053 19.9467 39.0187 19.84C39.152 19.7867 39.332 19.7467 39.5587 19.72C39.7853 19.7067 40.0187 19.7 40.2587 19.7C40.512 19.7133 40.752 19.7267 40.9787 19.74C41.2187 19.7667 41.4187 19.7933 41.5787 19.82C41.5787 20.1667 41.6853 20.44 41.8987 20.64C42.1253 20.8533 42.372 20.9733 42.6387 21C42.9187 21.0267 43.1853 20.96 43.4387 20.8C43.7053 20.64 43.8787 20.3733 43.9587 20C43.972 19.8667 43.9853 19.7267 43.9987 19.58C44.012 19.4467 44.012 19.3267 43.9987 19.22C43.972 18.9933 43.972 18.76 43.9987 18.52C43.8653 18.6667 43.7053 18.7733 43.5187 18.84C43.3453 18.9067 43.152 18.9533 42.9387 18.98C42.7387 19.0067 42.532 19.02 42.3187 19.02C42.1053 19.02 41.9053 19.0267 41.7187 19.04C41.4653 19.04 41.2053 19.02 40.9387 18.98C40.6853 18.94 40.4387 18.8733 40.1987 18.78C39.972 18.6867 39.7653 18.56 39.5787 18.4C39.392 18.24 39.2387 18.0333 39.1187 17.78C38.932 17.42 38.7987 17.0467 38.7187 16.66C38.6387 16.26 38.5853 15.8533 38.5587 15.44C38.5587 14.8133 38.572 14.14 38.5987 13.42C38.6253 12.7 38.7387 12.0267 38.9387 11.4C39.152 10.76 39.4853 10.2267 39.9387 9.8C40.392 9.36 41.0453 9.11333 41.8987 9.06C42.3253 9.03333 42.7187 9.09333 43.0787 9.24C43.452 9.37333 43.7187 9.62667 43.8787 10C43.932 10.0267 43.9587 10.0067 43.9587 9.94C43.972 9.86 43.972 9.76667 43.9587 9.66C43.9587 9.54 43.952 9.42667 43.9387 9.32C43.9387 9.2 43.9587 9.10667 43.9987 9.04C44.4387 8.98667 44.8853 8.97333 45.3387 9C45.792 9.01333 46.2453 9.02 46.6987 9.02C46.752 10.6867 46.7787 12.4333 46.7787 14.26C46.792 16.0733 46.7587 17.94 46.6787 19.86C46.6653 20.18 46.6653 20.4933 46.6787 20.8C46.692 21.12 46.632 21.3867 46.4987 21.6C46.312 21.8933 46.1187 22.1267 45.9187 22.3C45.732 22.4733 45.5453 22.6067 45.3587 22.7C45.172 22.8067 44.9853 22.88 44.7987 22.92ZM57.0946 14.1C56.6013 14.0867 56.2546 14.06 56.0546 14.02V14.36C56.0679 14.7467 56.0813 15.06 56.0946 15.3C56.1213 15.54 56.2079 15.7733 56.3546 16C56.5146 16.28 56.7279 16.4933 56.9946 16.64C57.2746 16.7733 57.5413 16.8133 57.7946 16.76C58.0613 16.7067 58.2879 16.5533 58.4746 16.3C58.6613 16.0467 58.7413 15.66 58.7146 15.14C58.8346 15.1533 59.0013 15.16 59.2146 15.16C59.4279 15.1467 59.6479 15.1333 59.8746 15.12C60.1146 15.1067 60.3413 15.1067 60.5546 15.12C60.7679 15.12 60.9413 15.14 61.0746 15.18C61.0479 15.5 61.0213 15.82 60.9946 16.14C60.9813 16.46 60.9546 16.76 60.9146 17.04C60.8746 17.3067 60.8279 17.54 60.7746 17.74C60.7213 17.9267 60.6479 18.06 60.5546 18.14C60.3413 18.4333 60.0613 18.64 59.7146 18.76C59.3679 18.88 58.9946 18.96 58.5946 19C58.1946 19.0267 57.7879 19.0267 57.3746 19C56.9613 18.96 56.5746 18.94 56.2146 18.94C55.8146 18.8733 55.4679 18.74 55.1746 18.54C54.8813 18.34 54.6346 18.1 54.4346 17.82C54.2879 17.94 54.1279 18.0667 53.9546 18.2C53.7946 18.32 53.6079 18.4467 53.3946 18.58C52.8746 18.8733 52.3346 19.0533 51.7746 19.12C51.2279 19.1867 50.7013 19.16 50.1946 19.04C49.7013 18.92 49.2546 18.72 48.8546 18.44C48.4546 18.1467 48.1479 17.7933 47.9346 17.38C47.7213 16.9667 47.6213 16.5067 47.6346 16C47.6613 15.48 47.8479 14.9267 48.1946 14.34C48.4079 14.0067 48.7213 13.7467 49.1346 13.56C49.5479 13.3733 49.9879 13.26 50.4546 13.22C50.9213 13.1667 51.3879 13.18 51.8546 13.26C52.3213 13.3267 52.7213 13.4533 53.0546 13.64C53.0413 13.3467 53.0346 13.1133 53.0346 12.94C53.0346 12.7533 53.0346 12.6067 53.0346 12.5C53.0346 12.38 53.0346 12.2867 53.0346 12.22C53.0346 12.14 53.0213 12.06 52.9946 11.98C52.9146 11.62 52.7413 11.3667 52.4746 11.22C52.2213 11.0733 51.9546 11.02 51.6746 11.06C51.3946 11.0867 51.1413 11.2067 50.9146 11.42C50.6879 11.62 50.5746 11.8867 50.5746 12.22C50.4146 12.2467 50.2213 12.2733 49.9946 12.3C49.7679 12.3267 49.5346 12.3467 49.2946 12.36C49.0546 12.36 48.8279 12.3533 48.6146 12.34C48.4013 12.3133 48.2279 12.2667 48.0946 12.2C48.0279 11.68 48.1079 11.2333 48.3346 10.86C48.5613 10.4733 48.8679 10.16 49.2546 9.92C49.6546 9.66667 50.1079 9.48667 50.6146 9.38C51.1213 9.26 51.6213 9.20667 52.1146 9.22C52.6079 9.22 53.0679 9.28667 53.4946 9.42C53.9346 9.55333 54.2813 9.74 54.5346 9.98C54.7746 9.76667 55.0546 9.58667 55.3746 9.44C55.6946 9.29333 56.0279 9.18667 56.3746 9.12C56.7346 9.05333 57.1013 9.02667 57.4746 9.04C57.8613 9.05333 58.2346 9.10667 58.5946 9.2C59.1813 9.30667 59.6479 9.51333 59.9946 9.82C60.3546 10.1133 60.6213 10.4733 60.7946 10.9C60.9813 11.3267 61.0879 11.8 61.1146 12.32C61.1546 12.8267 61.1546 13.34 61.1146 13.86C60.9813 13.9 60.6813 13.94 60.2146 13.98C59.7479 14.02 59.2346 14.0533 58.6746 14.08C58.1279 14.0933 57.6013 14.1 57.0946 14.1ZM50.0346 16.74C50.1946 16.9 50.4613 17.0067 50.8346 17.06C51.4746 17.1667 51.9479 17.14 52.2546 16.98C52.5613 16.8067 52.7546 16.5933 52.8346 16.34C52.9279 16.0733 52.9279 15.8067 52.8346 15.54C52.7546 15.2733 52.6346 15.0933 52.4746 15C52.0746 14.8133 51.6746 14.7133 51.2746 14.7C50.8879 14.6867 50.5213 14.8333 50.1746 15.14C50.0546 15.26 49.9479 15.42 49.8546 15.62C49.7746 15.8067 49.7413 16 49.7546 16.2C49.7813 16.3867 49.8746 16.5667 50.0346 16.74ZM58.8746 11.62C58.7546 11.38 58.5813 11.2067 58.3546 11.1C58.2479 11.0467 58.1413 11.0067 58.0346 10.98C57.9413 10.94 57.8279 10.92 57.6946 10.92C57.3879 10.92 57.1413 10.9533 56.9546 11.02C56.7679 11.0867 56.6146 11.1733 56.4946 11.28C56.3879 11.3867 56.3013 11.52 56.2346 11.68C56.1813 11.8267 56.1413 11.98 56.1146 12.14C56.0879 12.2867 56.0746 12.3867 56.0746 12.44C56.0879 12.4933 56.1479 12.5333 56.2546 12.56C56.3746 12.5733 56.5546 12.58 56.7946 12.58C57.0479 12.5667 57.4146 12.56 57.8946 12.56C58.2279 12.56 58.4746 12.5667 58.6346 12.58C58.7946 12.5933 58.9079 12.6 58.9746 12.6C59.0413 12.6 59.0746 12.58 59.0746 12.54C59.0746 12.5 59.0746 12.4333 59.0746 12.34C59.0746 12.0867 59.0079 11.8467 58.8746 11.62ZM69.8371 10.14C70.1038 10.7133 70.2371 11.36 70.2371 12.08C69.8104 12.1467 69.3371 12.1867 68.8171 12.2C68.3104 12.2133 67.8304 12.1733 67.3771 12.08C67.4171 11.92 67.3971 11.76 67.3171 11.6C67.2504 11.44 67.1438 11.3 66.9971 11.18C66.8638 11.06 66.7038 10.9733 66.5171 10.92C66.3438 10.8533 66.1704 10.8267 65.9971 10.84C65.6904 10.8933 65.4571 11.0133 65.2971 11.2C65.1504 11.3733 65.0771 11.5667 65.0771 11.78C65.0771 11.9933 65.1571 12.2067 65.3171 12.42C65.4771 12.6333 65.7104 12.7933 66.0171 12.9C66.7638 13.0067 67.4638 13.1533 68.1171 13.34C68.7704 13.5133 69.2504 13.8 69.5571 14.2C69.8504 14.68 70.0304 15.1733 70.0971 15.68C70.1638 16.1733 70.0704 16.7867 69.8171 17.52C69.5104 18.1733 69.0304 18.64 68.3771 18.92C67.7238 19.2 67.0104 19.3333 66.2371 19.32C65.5571 19.3467 64.9438 19.2867 64.3971 19.14C63.8504 18.9933 63.3771 18.7733 62.9771 18.48C62.5904 18.1867 62.2838 17.8267 62.0571 17.4C61.8438 16.9733 61.7371 16.4933 61.7371 15.96V15.9V15.86C62.1771 15.8067 62.6771 15.7933 63.2371 15.82C63.7971 15.8333 64.2838 15.84 64.6971 15.84C64.7104 16.1467 64.8504 16.4 65.1171 16.6C65.3971 16.7867 65.6904 16.9 65.9971 16.94C66.3038 16.9667 66.5838 16.9067 66.8371 16.76C67.0904 16.6133 67.2104 16.3467 67.1971 15.96C67.2371 15.64 67.1638 15.4 66.9771 15.24C66.7904 15.08 66.5438 14.96 66.2371 14.88C65.9304 14.7867 65.5838 14.7067 65.1971 14.64C64.8104 14.5733 64.4304 14.46 64.0571 14.3C63.3104 14.0467 62.7638 13.6533 62.4171 13.12C62.0838 12.5733 61.9238 12.0133 61.9371 11.44C61.9638 10.8533 62.1504 10.3133 62.4971 9.82C62.8571 9.32667 63.3638 8.99333 64.0171 8.82C64.2704 8.75333 64.5771 8.7 64.9371 8.66C65.3104 8.62 65.7038 8.6 66.1171 8.6C66.5304 8.6 66.9438 8.62667 67.3571 8.68C67.7704 8.72 68.1504 8.78 68.4971 8.86C69.1238 9.12667 69.5704 9.55333 69.8371 10.14ZM74.141 5.34C74.3677 5.35333 74.5943 5.34667 74.821 5.32V8C74.821 8.17333 74.821 8.35333 74.821 8.54C74.8343 8.72667 74.841 8.92 74.841 9.12C75.2543 9.10667 75.6877 9.08667 76.141 9.06C76.6077 9.03333 77.181 9 77.861 8.96C77.9543 9.06667 78.0077 9.22667 78.021 9.44C78.0343 9.64 78.0343 9.86 78.021 10.1C78.0077 10.34 77.9877 10.5867 77.961 10.84C77.9477 11.08 77.9543 11.2867 77.981 11.46H74.881C74.881 12.18 74.881 12.8867 74.881 13.58C74.881 14.26 74.8877 14.9 74.901 15.5C75.0343 15.6867 75.2277 15.8333 75.481 15.94C75.7343 16.0467 76.0077 16.1333 76.301 16.2C76.5943 16.2533 76.8877 16.2867 77.181 16.3C77.4877 16.3133 77.7543 16.3133 77.981 16.3C78.0077 16.4867 78.0343 16.6933 78.061 16.92C78.0877 17.1467 78.1077 17.38 78.121 17.62C78.1343 17.86 78.1277 18.1 78.101 18.34C78.0877 18.58 78.0477 18.8 77.981 19C77.4477 19.0267 76.8943 19.0267 76.321 19C75.7477 18.96 75.2077 18.88 74.701 18.76C74.1943 18.64 73.741 18.46 73.341 18.22C72.9543 17.98 72.6743 17.6533 72.501 17.24C72.3277 16.2133 72.2277 15.2467 72.201 14.34C72.1743 13.42 72.1677 12.4733 72.181 11.5C71.9677 11.5133 71.741 11.52 71.501 11.52C71.2743 11.52 71.021 11.52 70.741 11.52L70.801 9.08C71.0677 9.09333 71.3143 9.1 71.541 9.1C71.781 9.1 72.0077 9.1 72.221 9.1C72.221 8.80667 72.2143 8.49333 72.201 8.16C72.1877 7.81333 72.181 7.46667 72.181 7.12C72.181 6.77333 72.181 6.44 72.181 6.12C72.1943 5.8 72.2143 5.51333 72.241 5.26C72.4143 5.23333 72.601 5.22667 72.801 5.24C73.0143 5.25333 73.2343 5.27333 73.461 5.3C73.6877 5.31333 73.9143 5.32667 74.141 5.34Z" fill="#2B3A06"/>
<path d="M8.66035 11.1301C10.9063 11.1301 12.7254 9.31098 12.7254 7.06504C12.7254 4.81911 10.9063 3 8.66035 3C6.41442 3 4.59531 4.81911 4.59531 7.06504C4.59531 9.31098 6.41442 11.1301 8.66035 11.1301ZM8.66035 13.1626C5.94694 13.1626 0.530273 14.5244 0.530273 17.2276V19.2602H16.7904V17.2276C16.7904 14.5244 11.3738 13.1626 8.66035 13.1626Z" fill="#364908"/>
</svg>
