<svg width="354" height="25" viewBox="0 0 354 25" fill="none" xmlns="http://www.w3.org/2000/svg">
<path d="M32.5198 17.94C32.5198 18.18 32.5264 18.4133 32.5398 18.64C32.5398 18.72 32.4998 18.7867 32.4198 18.84C32.3398 18.88 32.2398 18.9133 32.1198 18.94C31.9998 18.9667 31.8664 18.9867 31.7198 19C31.5731 19 31.4398 19 31.3198 19C30.9864 19 30.6398 18.9867 30.2798 18.96C29.9331 18.92 29.6264 18.8867 29.3598 18.86V18.84V16.9C29.3598 15.6067 29.3998 14.3267 29.4798 13.06C29.5598 11.7933 29.5998 10.5133 29.5998 9.22C29.5998 9.15333 29.5998 9.09333 29.5998 9.04C29.5998 8.98667 29.5931 8.92667 29.5798 8.86C29.5131 8.84667 29.4531 8.9 29.3998 9.02C29.3464 9.12667 29.2864 9.25333 29.2198 9.4C29.1531 9.53333 29.0798 9.66 28.9998 9.78C28.9198 9.9 28.8264 9.96 28.7198 9.96C28.6531 9.96 28.4931 9.93333 28.2398 9.88C27.9864 9.82667 27.7131 9.76 27.4198 9.68C27.1264 9.6 26.8664 9.52 26.6398 9.44C26.4131 9.36 26.2998 9.28667 26.2998 9.22C26.3131 9.06 26.3798 8.84667 26.4998 8.58C26.6198 8.31333 26.7598 8.02 26.9198 7.7C27.0931 7.38 27.2798 7.05333 27.4798 6.72C27.6798 6.38667 27.8664 6.08 28.0398 5.8C28.2131 5.52 28.3598 5.28667 28.4798 5.1C28.6131 4.9 28.6931 4.78667 28.7198 4.76C29.0264 4.74667 29.3264 4.74 29.6198 4.74C29.9264 4.72667 30.2331 4.72 30.5398 4.72C30.8864 4.72 31.2331 4.72667 31.5798 4.74C31.9264 4.75333 32.2798 4.77333 32.6398 4.8C32.6798 5.37333 32.7064 5.94 32.7198 6.5C32.7331 7.04667 32.7398 7.6 32.7398 8.16C32.7398 9.69333 32.6998 11.2067 32.6198 12.7C32.5531 14.1933 32.5198 15.7067 32.5198 17.24C32.5198 17.4667 32.5198 17.7 32.5198 17.94ZM40.2879 13.88C40.2879 14 40.2879 14.1267 40.2879 14.26V14.44C40.2879 15.12 40.4879 15.7 40.8879 16.18C41.1279 16.4733 41.4479 16.6533 41.8479 16.72C42.2479 16.7733 42.6212 16.7467 42.9679 16.64C43.0879 16.6 43.1812 16.54 43.2479 16.46C43.3146 16.3667 43.3679 16.2667 43.4079 16.16C43.4479 16.04 43.4746 15.92 43.4879 15.8C43.5146 15.6667 43.5346 15.54 43.5479 15.42C43.5479 14.8867 43.5346 14.3467 43.5079 13.8C43.4946 13.24 43.4212 12.7067 43.2879 12.2C43.2079 12 43.0746 11.8467 42.8879 11.74C42.7146 11.62 42.5212 11.5467 42.3079 11.52C42.0946 11.4933 41.8812 11.5133 41.6679 11.58C41.4679 11.6333 41.2879 11.7267 41.1279 11.86C40.9279 12.0867 40.7546 12.34 40.6079 12.62C40.4746 12.8867 40.3812 13.1733 40.3279 13.48C40.3012 13.6133 40.2879 13.7467 40.2879 13.88ZM44.2679 22.92C44.0812 22.96 43.9079 22.9867 43.7479 23C43.6146 23.0267 43.3746 23.0333 43.0279 23.02C42.6812 23.0067 42.2346 23 41.6879 23C41.0612 23 40.5012 22.8667 40.0079 22.6C39.5146 22.3333 39.1146 21.9733 38.8079 21.52C38.7546 21.4267 38.7012 21.3 38.6479 21.14C38.6079 20.9933 38.5679 20.84 38.5279 20.68C38.5012 20.52 38.4812 20.3667 38.4679 20.22C38.4679 20.0733 38.4746 19.9467 38.4879 19.84C38.6212 19.7867 38.8012 19.7467 39.0279 19.72C39.2546 19.7067 39.4879 19.7 39.7279 19.7C39.9812 19.7133 40.2212 19.7267 40.4479 19.74C40.6879 19.7667 40.8879 19.7933 41.0479 19.82C41.0479 20.1667 41.1546 20.44 41.3679 20.64C41.5946 20.8533 41.8412 20.9733 42.1079 21C42.3879 21.0267 42.6546 20.96 42.9079 20.8C43.1746 20.64 43.3479 20.3733 43.4279 20C43.4412 19.8667 43.4546 19.7267 43.4679 19.58C43.4812 19.4467 43.4812 19.3267 43.4679 19.22C43.4412 18.9933 43.4412 18.76 43.4679 18.52C43.3346 18.6667 43.1746 18.7733 42.9879 18.84C42.8146 18.9067 42.6212 18.9533 42.4079 18.98C42.2079 19.0067 42.0012 19.02 41.7879 19.02C41.5746 19.02 41.3746 19.0267 41.1879 19.04C40.9346 19.04 40.6746 19.02 40.4079 18.98C40.1546 18.94 39.9079 18.8733 39.6679 18.78C39.4412 18.6867 39.2346 18.56 39.0479 18.4C38.8612 18.24 38.7079 18.0333 38.5879 17.78C38.4012 17.42 38.2679 17.0467 38.1879 16.66C38.1079 16.26 38.0546 15.8533 38.0279 15.44C38.0279 14.8133 38.0412 14.14 38.0679 13.42C38.0946 12.7 38.2079 12.0267 38.4079 11.4C38.6212 10.76 38.9546 10.2267 39.4079 9.8C39.8612 9.36 40.5146 9.11333 41.3679 9.06C41.7946 9.03333 42.1879 9.09333 42.5479 9.24C42.9212 9.37333 43.1879 9.62667 43.3479 10C43.4012 10.0267 43.4279 10.0067 43.4279 9.94C43.4412 9.86 43.4412 9.76667 43.4279 9.66C43.4279 9.54 43.4212 9.42667 43.4079 9.32C43.4079 9.2 43.4279 9.10667 43.4679 9.04C43.9079 8.98667 44.3546 8.97333 44.8079 9C45.2612 9.01333 45.7146 9.02 46.1679 9.02C46.2212 10.6867 46.2479 12.4333 46.2479 14.26C46.2612 16.0733 46.2279 17.94 46.1479 19.86C46.1346 20.18 46.1346 20.4933 46.1479 20.8C46.1612 21.12 46.1012 21.3867 45.9679 21.6C45.7812 21.8933 45.5879 22.1267 45.3879 22.3C45.2012 22.4733 45.0146 22.6067 44.8279 22.7C44.6412 22.8067 44.4546 22.88 44.2679 22.92ZM56.5638 14.1C56.0705 14.0867 55.7238 14.06 55.5238 14.02V14.36C55.5372 14.7467 55.5505 15.06 55.5638 15.3C55.5905 15.54 55.6772 15.7733 55.8238 16C55.9838 16.28 56.1972 16.4933 56.4638 16.64C56.7438 16.7733 57.0105 16.8133 57.2638 16.76C57.5305 16.7067 57.7572 16.5533 57.9438 16.3C58.1305 16.0467 58.2105 15.66 58.1838 15.14C58.3038 15.1533 58.4705 15.16 58.6838 15.16C58.8972 15.1467 59.1172 15.1333 59.3438 15.12C59.5838 15.1067 59.8105 15.1067 60.0238 15.12C60.2372 15.12 60.4105 15.14 60.5438 15.18C60.5172 15.5 60.4905 15.82 60.4638 16.14C60.4505 16.46 60.4238 16.76 60.3838 17.04C60.3438 17.3067 60.2972 17.54 60.2438 17.74C60.1905 17.9267 60.1172 18.06 60.0238 18.14C59.8105 18.4333 59.5305 18.64 59.1838 18.76C58.8372 18.88 58.4638 18.96 58.0638 19C57.6638 19.0267 57.2572 19.0267 56.8438 19C56.4305 18.96 56.0438 18.94 55.6838 18.94C55.2838 18.8733 54.9372 18.74 54.6438 18.54C54.3505 18.34 54.1038 18.1 53.9038 17.82C53.7572 17.94 53.5972 18.0667 53.4238 18.2C53.2638 18.32 53.0772 18.4467 52.8638 18.58C52.3438 18.8733 51.8038 19.0533 51.2438 19.12C50.6972 19.1867 50.1705 19.16 49.6638 19.04C49.1705 18.92 48.7238 18.72 48.3238 18.44C47.9238 18.1467 47.6172 17.7933 47.4038 17.38C47.1905 16.9667 47.0905 16.5067 47.1038 16C47.1305 15.48 47.3172 14.9267 47.6638 14.34C47.8772 14.0067 48.1905 13.7467 48.6038 13.56C49.0172 13.3733 49.4572 13.26 49.9238 13.22C50.3905 13.1667 50.8572 13.18 51.3238 13.26C51.7905 13.3267 52.1905 13.4533 52.5238 13.64C52.5105 13.3467 52.5038 13.1133 52.5038 12.94C52.5038 12.7533 52.5038 12.6067 52.5038 12.5C52.5038 12.38 52.5038 12.2867 52.5038 12.22C52.5038 12.14 52.4905 12.06 52.4638 11.98C52.3838 11.62 52.2105 11.3667 51.9438 11.22C51.6905 11.0733 51.4238 11.02 51.1438 11.06C50.8638 11.0867 50.6105 11.2067 50.3838 11.42C50.1572 11.62 50.0438 11.8867 50.0438 12.22C49.8838 12.2467 49.6905 12.2733 49.4638 12.3C49.2372 12.3267 49.0038 12.3467 48.7638 12.36C48.5238 12.36 48.2972 12.3533 48.0838 12.34C47.8705 12.3133 47.6972 12.2667 47.5638 12.2C47.4972 11.68 47.5772 11.2333 47.8038 10.86C48.0305 10.4733 48.3372 10.16 48.7238 9.92C49.1238 9.66667 49.5772 9.48667 50.0838 9.38C50.5905 9.26 51.0905 9.20667 51.5838 9.22C52.0772 9.22 52.5372 9.28667 52.9638 9.42C53.4038 9.55333 53.7505 9.74 54.0038 9.98C54.2438 9.76667 54.5238 9.58667 54.8438 9.44C55.1638 9.29333 55.4972 9.18667 55.8438 9.12C56.2038 9.05333 56.5705 9.02667 56.9438 9.04C57.3305 9.05333 57.7038 9.10667 58.0638 9.2C58.6505 9.30667 59.1172 9.51333 59.4638 9.82C59.8238 10.1133 60.0905 10.4733 60.2638 10.9C60.4505 11.3267 60.5572 11.8 60.5838 12.32C60.6238 12.8267 60.6238 13.34 60.5838 13.86C60.4505 13.9 60.1505 13.94 59.6838 13.98C59.2172 14.02 58.7038 14.0533 58.1438 14.08C57.5972 14.0933 57.0705 14.1 56.5638 14.1ZM49.5038 16.74C49.6638 16.9 49.9305 17.0067 50.3038 17.06C50.9438 17.1667 51.4172 17.14 51.7238 16.98C52.0305 16.8067 52.2238 16.5933 52.3038 16.34C52.3972 16.0733 52.3972 15.8067 52.3038 15.54C52.2238 15.2733 52.1038 15.0933 51.9438 15C51.5438 14.8133 51.1438 14.7133 50.7438 14.7C50.3572 14.6867 49.9905 14.8333 49.6438 15.14C49.5238 15.26 49.4172 15.42 49.3238 15.62C49.2438 15.8067 49.2105 16 49.2238 16.2C49.2505 16.3867 49.3438 16.5667 49.5038 16.74ZM58.3438 11.62C58.2238 11.38 58.0505 11.2067 57.8238 11.1C57.7172 11.0467 57.6105 11.0067 57.5038 10.98C57.4105 10.94 57.2972 10.92 57.1638 10.92C56.8572 10.92 56.6105 10.9533 56.4238 11.02C56.2372 11.0867 56.0838 11.1733 55.9638 11.28C55.8572 11.3867 55.7705 11.52 55.7038 11.68C55.6505 11.8267 55.6105 11.98 55.5838 12.14C55.5572 12.2867 55.5438 12.3867 55.5438 12.44C55.5572 12.4933 55.6172 12.5333 55.7238 12.56C55.8438 12.5733 56.0238 12.58 56.2638 12.58C56.5172 12.5667 56.8838 12.56 57.3638 12.56C57.6972 12.56 57.9438 12.5667 58.1038 12.58C58.2638 12.5933 58.3772 12.6 58.4438 12.6C58.5105 12.6 58.5438 12.58 58.5438 12.54C58.5438 12.5 58.5438 12.4333 58.5438 12.34C58.5438 12.0867 58.4772 11.8467 58.3438 11.62ZM69.3063 10.14C69.573 10.7133 69.7063 11.36 69.7063 12.08C69.2797 12.1467 68.8063 12.1867 68.2863 12.2C67.7797 12.2133 67.2997 12.1733 66.8463 12.08C66.8863 11.92 66.8663 11.76 66.7863 11.6C66.7197 11.44 66.613 11.3 66.4663 11.18C66.333 11.06 66.173 10.9733 65.9863 10.92C65.813 10.8533 65.6397 10.8267 65.4663 10.84C65.1597 10.8933 64.9263 11.0133 64.7663 11.2C64.6197 11.3733 64.5463 11.5667 64.5463 11.78C64.5463 11.9933 64.6263 12.2067 64.7863 12.42C64.9463 12.6333 65.1797 12.7933 65.4863 12.9C66.233 13.0067 66.933 13.1533 67.5863 13.34C68.2397 13.5133 68.7197 13.8 69.0263 14.2C69.3197 14.68 69.4997 15.1733 69.5663 15.68C69.633 16.1733 69.5397 16.7867 69.2863 17.52C68.9797 18.1733 68.4997 18.64 67.8463 18.92C67.193 19.2 66.4797 19.3333 65.7063 19.32C65.0263 19.3467 64.413 19.2867 63.8663 19.14C63.3197 18.9933 62.8463 18.7733 62.4463 18.48C62.0597 18.1867 61.753 17.8267 61.5263 17.4C61.313 16.9733 61.2063 16.4933 61.2063 15.96V15.9V15.86C61.6463 15.8067 62.1463 15.7933 62.7063 15.82C63.2663 15.8333 63.753 15.84 64.1663 15.84C64.1797 16.1467 64.3197 16.4 64.5863 16.6C64.8663 16.7867 65.1597 16.9 65.4663 16.94C65.773 16.9667 66.053 16.9067 66.3063 16.76C66.5597 16.6133 66.6797 16.3467 66.6663 15.96C66.7063 15.64 66.633 15.4 66.4463 15.24C66.2597 15.08 66.013 14.96 65.7063 14.88C65.3997 14.7867 65.053 14.7067 64.6663 14.64C64.2797 14.5733 63.8997 14.46 63.5263 14.3C62.7797 14.0467 62.233 13.6533 61.8863 13.12C61.553 12.5733 61.393 12.0133 61.4063 11.44C61.433 10.8533 61.6197 10.3133 61.9663 9.82C62.3263 9.32667 62.833 8.99333 63.4863 8.82C63.7397 8.75333 64.0463 8.7 64.4063 8.66C64.7797 8.62 65.173 8.6 65.5863 8.6C65.9997 8.6 66.413 8.62667 66.8263 8.68C67.2397 8.72 67.6197 8.78 67.9663 8.86C68.593 9.12667 69.0397 9.55333 69.3063 10.14ZM73.6102 5.34C73.8369 5.35333 74.0636 5.34667 74.2902 5.32V8C74.2902 8.17333 74.2902 8.35333 74.2902 8.54C74.3036 8.72667 74.3102 8.92 74.3102 9.12C74.7236 9.10667 75.1569 9.08667 75.6102 9.06C76.0769 9.03333 76.6502 9 77.3302 8.96C77.4236 9.06667 77.4769 9.22667 77.4902 9.44C77.5036 9.64 77.5036 9.86 77.4902 10.1C77.4769 10.34 77.4569 10.5867 77.4302 10.84C77.4169 11.08 77.4236 11.2867 77.4502 11.46H74.3502C74.3502 12.18 74.3502 12.8867 74.3502 13.58C74.3502 14.26 74.3569 14.9 74.3702 15.5C74.5036 15.6867 74.6969 15.8333 74.9502 15.94C75.2036 16.0467 75.4769 16.1333 75.7702 16.2C76.0636 16.2533 76.3569 16.2867 76.6502 16.3C76.9569 16.3133 77.2236 16.3133 77.4502 16.3C77.4769 16.4867 77.5036 16.6933 77.5302 16.92C77.5569 17.1467 77.5769 17.38 77.5902 17.62C77.6036 17.86 77.5969 18.1 77.5702 18.34C77.5569 18.58 77.5169 18.8 77.4502 19C76.9169 19.0267 76.3636 19.0267 75.7902 19C75.2169 18.96 74.6769 18.88 74.1702 18.76C73.6636 18.64 73.2102 18.46 72.8102 18.22C72.4236 17.98 72.1436 17.6533 71.9702 17.24C71.7969 16.2133 71.6969 15.2467 71.6702 14.34C71.6436 13.42 71.6369 12.4733 71.6502 11.5C71.4369 11.5133 71.2102 11.52 70.9702 11.52C70.7436 11.52 70.4902 11.52 70.2102 11.52L70.2702 9.08C70.5369 9.09333 70.7836 9.1 71.0102 9.1C71.2502 9.1 71.4769 9.1 71.6902 9.1C71.6902 8.80667 71.6836 8.49333 71.6702 8.16C71.6569 7.81333 71.6502 7.46667 71.6502 7.12C71.6502 6.77333 71.6502 6.44 71.6502 6.12C71.6636 5.8 71.6836 5.51333 71.7102 5.26C71.8836 5.23333 72.0702 5.22667 72.2702 5.24C72.4836 5.25333 72.7036 5.27333 72.9302 5.3C73.1569 5.31333 73.3836 5.32667 73.6102 5.34Z" fill="#2B3A06"/>
<path d="M8.13008 15.6186C10.376 15.6186 12.1951 13.7814 12.1951 11.5131C12.1951 9.24489 10.376 7.40771 8.13008 7.40771C5.88415 7.40771 4.06504 9.24489 4.06504 11.5131C4.06504 13.7814 5.88415 15.6186 8.13008 15.6186ZM8.13008 17.6713C5.41667 17.6713 0 19.0466 0 21.7767V23.8294H16.2602V21.7767C16.2602 19.0466 10.8435 17.6713 8.13008 17.6713Z" fill="#364908"/>
<path d="M129.2 8.86C129.253 10.1 129.247 11.36 129.18 12.64L129.12 19.02C128.92 18.9933 128.7 18.98 128.46 18.98C128.22 18.98 127.98 18.98 127.74 18.98C127.5 18.98 127.267 18.9867 127.04 19C126.827 19 126.64 19 126.48 19C126.453 18.4267 126.433 17.8067 126.42 17.14C126.42 16.4733 126.413 15.7933 126.4 15.1C126.4 14.4067 126.38 13.7267 126.34 13.06C126.313 12.3933 126.267 11.78 126.2 11.22C126.107 11.3667 126 11.6 125.88 11.92C125.76 12.2267 125.64 12.5467 125.52 12.88C125.4 13.2133 125.287 13.5067 125.18 13.76C125.073 14.0133 124.993 14.14 124.94 14.14C124.873 14.14 124.793 14.0733 124.7 13.94C124.62 13.7933 124.533 13.6133 124.44 13.4C124.36 13.1867 124.273 12.96 124.18 12.72C124.087 12.48 124.007 12.26 123.94 12.06C123.873 11.86 123.813 11.6933 123.76 11.56C123.72 11.4267 123.7 11.36 123.7 11.36C123.593 12.6133 123.553 13.88 123.58 15.16C123.62 16.44 123.68 17.7 123.76 18.94C123.333 19.0067 122.867 19.0333 122.36 19.02C121.853 19.0067 121.387 19 120.96 19C120.933 19 120.913 18.98 120.9 18.94C120.887 18.8867 120.873 18.76 120.86 18.56C120.847 18.36 120.833 18.06 120.82 17.66C120.82 17.2467 120.82 16.7067 120.82 16.04C120.82 15.3733 120.82 14.5467 120.82 13.56C120.833 12.5733 120.84 11.4 120.84 10.04C120.853 8.68 120.867 7.09333 120.88 5.28C121.053 5.22667 121.253 5.19333 121.48 5.18C121.707 5.16667 121.94 5.16667 122.18 5.18C122.42 5.18 122.66 5.18667 122.9 5.2C123.14 5.2 123.373 5.19333 123.6 5.18H123.62C123.74 5.31333 123.86 5.52 123.98 5.8C124.1 6.06667 124.213 6.35333 124.32 6.66C124.427 6.96667 124.527 7.26 124.62 7.54C124.727 7.82 124.833 8.04 124.94 8.2C124.98 8.24 125.02 8.26 125.06 8.26C125.1 8.27333 125.16 8.14667 125.24 7.88C125.333 7.61333 125.427 7.30667 125.52 6.96C125.627 6.6 125.74 6.24667 125.86 5.9C125.993 5.55333 126.12 5.3 126.24 5.14C126.333 5.15333 126.5 5.15333 126.74 5.14C126.993 5.12667 127.26 5.11333 127.54 5.1C127.833 5.08667 128.127 5.08 128.42 5.08C128.727 5.06667 128.987 5.06 129.2 5.06C129.147 6.34 129.147 7.60667 129.2 8.86ZM130.74 10.48C130.82 10.2267 130.88 10.0267 130.92 9.88C131.013 9.68 131.16 9.50667 131.36 9.36C131.573 9.21333 131.813 9.09333 132.08 9C132.36 8.89333 132.653 8.82 132.96 8.78C133.28 8.74 133.6 8.72 133.92 8.72C134.186 8.74667 134.44 8.75333 134.68 8.74C134.933 8.71333 135.2 8.71333 135.48 8.74C135.906 8.76667 136.313 8.85333 136.7 9C137.086 9.13333 137.42 9.33333 137.7 9.6C137.886 9.72 138.033 9.91333 138.14 10.18C138.246 10.4467 138.326 10.76 138.38 11.12C138.433 11.4667 138.466 11.8533 138.48 12.28C138.493 12.6933 138.506 13.12 138.52 13.56C138.506 13.9467 138.486 14.3867 138.46 14.88C138.446 15.3733 138.413 15.8467 138.36 16.3C138.32 16.7533 138.26 17.16 138.18 17.52C138.113 17.88 138.013 18.1267 137.88 18.26C137.653 18.58 137.353 18.8067 136.98 18.94C136.62 19.0733 136.226 19.1533 135.8 19.18C135.373 19.22 134.933 19.22 134.48 19.18C134.026 19.1533 133.613 19.14 133.24 19.14C132.56 19.02 131.986 18.7267 131.52 18.26C131.16 17.94 130.913 17.54 130.78 17.06C130.646 16.58 130.566 16.08 130.54 15.56C130.513 15.0267 130.506 14.4933 130.52 13.96C130.546 13.4267 130.54 12.94 130.5 12.5C130.5 12.26 130.506 12.0267 130.52 11.8C130.533 11.56 130.56 11.3133 130.6 11.06C130.613 10.9133 130.66 10.72 130.74 10.48ZM134.1 11.8C133.82 11.88 133.593 12.0267 133.42 12.24C133.34 12.2933 133.28 12.4267 133.24 12.64C133.186 13.0667 133.16 13.4933 133.16 13.92C133.16 14.3333 133.146 14.7733 133.12 15.24C133.106 15.5467 133.186 15.7867 133.36 15.96C133.533 16.12 133.74 16.2333 133.98 16.3C134.233 16.3533 134.493 16.3667 134.76 16.34C135.026 16.3 135.246 16.2333 135.42 16.14C135.646 16.0333 135.8 15.8133 135.88 15.48C135.933 15.0533 135.973 14.6267 136 14.2C136.04 13.76 136.02 13.3467 135.94 12.96C135.873 12.4933 135.68 12.1533 135.36 11.94C135.04 11.7267 134.62 11.68 134.1 11.8ZM142.424 9.5C142.438 9.54 142.444 9.60667 142.444 9.7C142.498 9.67333 142.618 9.62 142.804 9.54C143.004 9.46 143.198 9.38667 143.384 9.32C143.638 9.24 143.924 9.18 144.244 9.14C144.564 9.08667 144.864 9.05333 145.144 9.04C145.424 9.02667 145.658 9.02667 145.844 9.04C146.044 9.04 146.144 9.04667 146.144 9.06C146.144 9.51333 146.138 9.91333 146.124 10.26C146.124 10.6067 146.124 10.92 146.124 11.2C146.124 11.4667 146.124 11.7133 146.124 11.94C146.124 12.1667 146.131 12.38 146.144 12.58L145.964 12.52C145.898 12.4933 145.824 12.4733 145.744 12.46C145.678 12.4333 145.611 12.4067 145.544 12.38C145.384 12.34 145.218 12.3067 145.044 12.28C144.884 12.2533 144.798 12.24 144.784 12.24C144.424 12.2 144.091 12.18 143.784 12.18C143.491 12.18 143.231 12.2267 143.004 12.32C142.791 12.4133 142.624 12.56 142.504 12.76C142.384 12.96 142.331 13.2467 142.344 13.62C142.358 14.0867 142.371 14.5267 142.384 14.94C142.398 15.3533 142.404 15.7733 142.404 16.2C142.404 16.6133 142.404 17.04 142.404 17.48C142.418 17.9067 142.424 18.3667 142.424 18.86V18.94C142.198 19.0067 141.991 19.0467 141.804 19.06C141.618 19.0733 141.424 19.0733 141.224 19.06C141.024 19.06 140.804 19.0533 140.564 19.04C140.338 19.0267 140.064 19.0333 139.744 19.06C139.744 17.42 139.724 15.78 139.684 14.14C139.658 12.5 139.671 10.8 139.724 9.04C139.884 9.05333 140.018 9.06667 140.124 9.08C140.231 9.08 140.331 9.08 140.424 9.08C140.518 9.08 140.618 9.08 140.724 9.08C140.831 9.06667 140.964 9.05333 141.124 9.04C141.178 9.04 141.271 9.03333 141.404 9.02C141.551 9.00667 141.698 8.99333 141.844 8.98C142.004 8.96667 142.138 8.96667 142.244 8.98C142.364 8.98 142.424 8.99333 142.424 9.02C142.424 9.12667 142.424 9.20667 142.424 9.26C142.424 9.31333 142.424 9.36 142.424 9.4C142.424 9.42667 142.424 9.46 142.424 9.5ZM149.048 13.88C149.048 14 149.048 14.1267 149.048 14.26V14.44C149.048 15.12 149.248 15.7 149.648 16.18C149.888 16.4733 150.208 16.6533 150.608 16.72C151.008 16.7733 151.381 16.7467 151.728 16.64C151.848 16.6 151.941 16.54 152.008 16.46C152.074 16.3667 152.128 16.2667 152.168 16.16C152.208 16.04 152.234 15.92 152.248 15.8C152.274 15.6667 152.294 15.54 152.308 15.42C152.308 14.8867 152.294 14.3467 152.268 13.8C152.254 13.24 152.181 12.7067 152.048 12.2C151.968 12 151.834 11.8467 151.648 11.74C151.474 11.62 151.281 11.5467 151.068 11.52C150.854 11.4933 150.641 11.5133 150.428 11.58C150.228 11.6333 150.048 11.7267 149.888 11.86C149.688 12.0867 149.514 12.34 149.368 12.62C149.234 12.8867 149.141 13.1733 149.088 13.48C149.061 13.6133 149.048 13.7467 149.048 13.88ZM153.028 22.92C152.841 22.96 152.668 22.9867 152.508 23C152.374 23.0267 152.134 23.0333 151.788 23.02C151.441 23.0067 150.994 23 150.448 23C149.821 23 149.261 22.8667 148.768 22.6C148.274 22.3333 147.874 21.9733 147.568 21.52C147.514 21.4267 147.461 21.3 147.408 21.14C147.368 20.9933 147.328 20.84 147.288 20.68C147.261 20.52 147.241 20.3667 147.228 20.22C147.228 20.0733 147.234 19.9467 147.248 19.84C147.381 19.7867 147.561 19.7467 147.788 19.72C148.014 19.7067 148.248 19.7 148.488 19.7C148.741 19.7133 148.981 19.7267 149.208 19.74C149.448 19.7667 149.648 19.7933 149.808 19.82C149.808 20.1667 149.914 20.44 150.128 20.64C150.354 20.8533 150.601 20.9733 150.868 21C151.148 21.0267 151.414 20.96 151.668 20.8C151.934 20.64 152.108 20.3733 152.188 20C152.201 19.8667 152.214 19.7267 152.228 19.58C152.241 19.4467 152.241 19.3267 152.228 19.22C152.201 18.9933 152.201 18.76 152.228 18.52C152.094 18.6667 151.934 18.7733 151.748 18.84C151.574 18.9067 151.381 18.9533 151.168 18.98C150.968 19.0067 150.761 19.02 150.548 19.02C150.334 19.02 150.134 19.0267 149.948 19.04C149.694 19.04 149.434 19.02 149.168 18.98C148.914 18.94 148.668 18.8733 148.428 18.78C148.201 18.6867 147.994 18.56 147.808 18.4C147.621 18.24 147.468 18.0333 147.348 17.78C147.161 17.42 147.028 17.0467 146.948 16.66C146.868 16.26 146.814 15.8533 146.788 15.44C146.788 14.8133 146.801 14.14 146.828 13.42C146.854 12.7 146.968 12.0267 147.168 11.4C147.381 10.76 147.714 10.2267 148.168 9.8C148.621 9.36 149.274 9.11333 150.128 9.06C150.554 9.03333 150.948 9.09333 151.308 9.24C151.681 9.37333 151.948 9.62667 152.108 10C152.161 10.0267 152.188 10.0067 152.188 9.94C152.201 9.86 152.201 9.76667 152.188 9.66C152.188 9.54 152.181 9.42667 152.168 9.32C152.168 9.2 152.188 9.10667 152.228 9.04C152.668 8.98667 153.114 8.97333 153.568 9C154.021 9.01333 154.474 9.02 154.928 9.02C154.981 10.6867 155.008 12.4333 155.008 14.26C155.021 16.0733 154.988 17.94 154.908 19.86C154.894 20.18 154.894 20.4933 154.908 20.8C154.921 21.12 154.861 21.3867 154.728 21.6C154.541 21.8933 154.348 22.1267 154.148 22.3C153.961 22.4733 153.774 22.6067 153.588 22.7C153.401 22.8067 153.214 22.88 153.028 22.92ZM159.444 14.04C159.15 14.0267 158.937 14.0067 158.804 13.98V14.34C158.817 14.74 158.83 15.0667 158.844 15.32C158.87 15.5733 158.957 15.82 159.104 16.06C159.264 16.3667 159.49 16.5933 159.784 16.74C160.077 16.8867 160.364 16.9333 160.644 16.88C160.924 16.8267 161.157 16.6667 161.344 16.4C161.544 16.12 161.63 15.7067 161.604 15.16C161.737 15.1733 161.917 15.18 162.144 15.18C162.37 15.1667 162.604 15.1533 162.844 15.14C163.097 15.1267 163.337 15.1267 163.564 15.14C163.79 15.14 163.977 15.16 164.124 15.2C164.097 15.5467 164.07 15.8867 164.044 16.22C164.017 16.5533 163.984 16.8667 163.944 17.16C163.904 17.44 163.85 17.6867 163.784 17.9C163.73 18.1 163.657 18.24 163.564 18.32C163.337 18.64 163.044 18.8667 162.684 19C162.324 19.1333 161.93 19.2133 161.504 19.24C161.077 19.2667 160.637 19.2667 160.184 19.24C159.744 19.2133 159.337 19.2 158.964 19.2C158.59 19.1467 158.244 19.0267 157.924 18.84C157.564 18.5867 157.264 18.26 157.024 17.86C156.784 17.4467 156.59 17 156.444 16.52C156.297 16.0267 156.197 15.5067 156.144 14.96C156.09 14.4133 156.077 13.8667 156.104 13.32C156.144 12.8267 156.184 12.3533 156.224 11.9C156.277 11.4333 156.384 10.98 156.544 10.54C156.717 10.1533 156.984 9.82667 157.344 9.56C157.704 9.28 158.11 9.07333 158.564 8.94C159.017 8.79333 159.497 8.71333 160.004 8.7C160.51 8.68667 161.004 8.74 161.484 8.86C162.097 8.96667 162.59 9.18 162.964 9.5C163.337 9.82 163.617 10.2067 163.804 10.66C164.004 11.1133 164.124 11.6133 164.164 12.16C164.204 12.7067 164.204 13.26 164.164 13.82C164.07 13.8467 163.89 13.8733 163.624 13.9C163.37 13.9267 163.064 13.9533 162.704 13.98C162.357 14.0067 161.984 14.0267 161.584 14.04C161.184 14.0533 160.797 14.06 160.424 14.06C160.064 14.06 159.737 14.0533 159.444 14.04ZM161.784 11.42C161.65 11.18 161.464 11 161.224 10.88C161.117 10.8133 161.01 10.7667 160.904 10.74C160.797 10.7 160.67 10.68 160.524 10.68C160.204 10.68 159.944 10.7133 159.744 10.78C159.544 10.8467 159.384 10.94 159.264 11.06C159.144 11.18 159.05 11.32 158.984 11.48C158.93 11.64 158.89 11.8067 158.864 11.98C158.837 12.1267 158.824 12.2333 158.824 12.3C158.837 12.3533 158.904 12.3933 159.024 12.42C159.144 12.4333 159.33 12.44 159.584 12.44C159.85 12.4267 160.237 12.42 160.744 12.42C161.09 12.42 161.35 12.4267 161.524 12.44C161.697 12.4533 161.817 12.46 161.884 12.46C161.964 12.4467 162.004 12.4267 162.004 12.4C162.004 12.36 162.004 12.2867 162.004 12.18C162.004 11.9133 161.93 11.66 161.784 11.42ZM167.93 9.58C167.93 9.72667 167.937 9.89333 167.95 10.08C168.017 10.04 168.097 9.99333 168.19 9.94C168.297 9.88667 168.384 9.83333 168.45 9.78C168.73 9.58 169.044 9.42 169.39 9.3C169.737 9.18 170.09 9.11333 170.45 9.1C170.824 9.08667 171.184 9.12667 171.53 9.22C171.877 9.31333 172.19 9.48 172.47 9.72C172.604 9.84 172.704 10.0933 172.77 10.48C172.85 10.8533 172.897 11.3067 172.91 11.84C172.937 12.3733 172.944 12.96 172.93 13.6C172.93 14.2267 172.924 14.8667 172.91 15.52C172.897 16.16 172.884 16.78 172.87 17.38C172.857 17.98 172.864 18.5067 172.89 18.96C172.424 19.0267 172.004 19.0533 171.63 19.04C171.27 19.04 170.857 19.04 170.39 19.04C170.364 18.7333 170.35 18.3867 170.35 18C170.35 17.6133 170.35 17.2133 170.35 16.8C170.364 16.3867 170.364 15.9733 170.35 15.56C170.35 15.1467 170.337 14.76 170.31 14.4C170.297 14.24 170.284 14.0667 170.27 13.88C170.257 13.68 170.23 13.4867 170.19 13.3C170.164 13.1133 170.117 12.9467 170.05 12.8C169.997 12.6533 169.917 12.54 169.81 12.46C169.797 12.4467 169.784 12.44 169.77 12.44C169.757 12.44 169.744 12.4333 169.73 12.42C169.624 12.3667 169.464 12.3267 169.25 12.3C169.05 12.26 168.85 12.2733 168.65 12.34C168.45 12.3933 168.27 12.5133 168.11 12.7C167.95 12.8733 167.857 13.14 167.83 13.5C167.804 13.9667 167.797 14.4267 167.81 14.88C167.824 15.32 167.837 15.7667 167.85 16.22C167.877 16.66 167.89 17.1 167.89 17.54C167.89 17.98 167.864 18.42 167.81 18.86V18.94C167.584 19.0067 167.384 19.0467 167.21 19.06C167.05 19.0733 166.884 19.0733 166.71 19.06C166.537 19.06 166.344 19.0533 166.13 19.04C165.917 19.0267 165.65 19.0333 165.33 19.06C165.33 17.42 165.31 15.78 165.27 14.14C165.244 12.5 165.257 10.8 165.31 9.04C165.47 9.05333 165.604 9.06667 165.71 9.08C165.817 9.08 165.917 9.08 166.01 9.08C166.104 9.08 166.204 9.08 166.31 9.08C166.417 9.06667 166.55 9.05333 166.71 9.04C166.764 9.04 166.857 9.03333 166.99 9.02C167.124 8.99333 167.257 8.97333 167.39 8.96C167.524 8.94667 167.644 8.94667 167.75 8.96C167.857 8.96 167.91 8.98 167.91 9.02C167.937 9.24667 167.944 9.43333 167.93 9.58Z" fill="#2B3A06"/>
<path d="M100.987 9.74893V8.18812C100.987 7.7589 101.335 7.40771 101.76 7.40771C102.185 7.40771 102.532 7.7589 102.532 8.18812V9.74893C102.532 10.1782 102.185 10.5293 101.76 10.5293C101.335 10.5293 100.987 10.1782 100.987 9.74893ZM106.674 12.1292L107.764 11.021C108.065 10.7166 108.065 10.225 107.764 9.92062C107.462 9.61626 106.976 9.61626 106.674 9.92062L105.585 11.0288C105.283 11.3331 105.283 11.8248 105.585 12.1292C105.886 12.4335 106.373 12.4335 106.674 12.1292ZM109.487 15.2118H107.942C107.517 15.2118 107.169 15.5629 107.169 15.9922C107.169 16.4214 107.517 16.7726 107.942 16.7726H109.487C109.912 16.7726 110.26 16.4214 110.26 15.9922C110.26 15.5629 109.912 15.2118 109.487 15.2118ZM101.76 21.455C101.335 21.455 100.987 21.8062 100.987 22.2354V23.7962C100.987 24.2254 101.335 24.5766 101.76 24.5766C102.185 24.5766 102.532 24.2254 102.532 23.7962V22.2354C102.532 21.8062 102.185 21.455 101.76 21.455ZM96.8452 12.1292L95.7479 11.0288C95.4466 10.7244 95.4466 10.225 95.7479 9.92842C96.0493 9.63187 96.5439 9.62406 96.8375 9.92842L97.927 11.0288C98.2284 11.3331 98.2284 11.8326 97.927 12.1292C97.6257 12.4257 97.1389 12.4335 96.8452 12.1292ZM105.585 19.8552C105.283 20.1595 105.283 20.659 105.585 20.9555L106.674 22.0559C106.976 22.3603 107.47 22.3603 107.764 22.0559C108.065 21.7515 108.065 21.2521 107.764 20.9555L106.674 19.8552C106.381 19.5508 105.886 19.5508 105.585 19.8552ZM94.0325 16.7726H95.5779C96.0029 16.7726 96.3507 16.4214 96.3507 15.9922C96.3507 15.5629 96.0029 15.2118 95.5779 15.2118H94.0325C93.6075 15.2118 93.2598 15.5629 93.2598 15.9922C93.2598 16.4214 93.6075 16.7726 94.0325 16.7726ZM96.8452 22.0637L97.9348 20.9633C98.2361 20.659 98.2361 20.1595 97.9348 19.863C97.6334 19.5664 97.1389 19.5586 96.8452 19.863L95.7557 20.9633C95.4543 21.2677 95.4543 21.7672 95.7557 22.0637C96.0493 22.3681 96.5439 22.3681 96.8452 22.0637ZM101.76 11.3097C99.202 11.3097 97.1234 13.409 97.1234 15.9922C97.1234 18.5753 99.202 20.6746 101.76 20.6746C104.317 20.6746 106.396 18.5753 106.396 15.9922C106.396 13.409 104.317 11.3097 101.76 11.3097Z" fill="#364908"/>
<path d="M224.636 17.94C224.636 18.18 224.643 18.4133 224.656 18.64C224.656 18.72 224.616 18.7867 224.536 18.84C224.456 18.88 224.356 18.9133 224.236 18.94C224.116 18.9667 223.983 18.9867 223.836 19C223.69 19 223.556 19 223.436 19C223.103 19 222.756 18.9867 222.396 18.96C222.05 18.92 221.743 18.8867 221.476 18.86V18.84V16.9C221.476 15.6067 221.516 14.3267 221.596 13.06C221.676 11.7933 221.716 10.5133 221.716 9.22C221.716 9.15333 221.716 9.09333 221.716 9.04C221.716 8.98667 221.71 8.92667 221.696 8.86C221.63 8.84667 221.57 8.9 221.516 9.02C221.463 9.12667 221.403 9.25333 221.336 9.4C221.27 9.53333 221.196 9.66 221.116 9.78C221.036 9.9 220.943 9.96 220.836 9.96C220.77 9.96 220.61 9.93333 220.356 9.88C220.103 9.82667 219.83 9.76 219.536 9.68C219.243 9.6 218.983 9.52 218.756 9.44C218.53 9.36 218.416 9.28667 218.416 9.22C218.43 9.06 218.496 8.84667 218.616 8.58C218.736 8.31333 218.876 8.02 219.036 7.7C219.21 7.38 219.396 7.05333 219.596 6.72C219.796 6.38667 219.983 6.08 220.156 5.8C220.33 5.52 220.476 5.28667 220.596 5.1C220.73 4.9 220.81 4.78667 220.836 4.76C221.143 4.74667 221.443 4.74 221.736 4.74C222.043 4.72667 222.35 4.72 222.656 4.72C223.003 4.72 223.35 4.72667 223.696 4.74C224.043 4.75333 224.396 4.77333 224.756 4.8C224.796 5.37333 224.823 5.94 224.836 6.5C224.85 7.04667 224.856 7.6 224.856 8.16C224.856 9.69333 224.816 11.2067 224.736 12.7C224.67 14.1933 224.636 15.7067 224.636 17.24C224.636 17.4667 224.636 17.7 224.636 17.94ZM227.381 18.34C227.221 18.22 227.127 18.1467 227.101 18.12C226.914 17.9333 226.761 17.72 226.641 17.48C226.534 17.2267 226.467 16.9667 226.441 16.7C226.387 16.3933 226.354 16.08 226.341 15.76C226.341 15.4267 226.314 15.0533 226.261 14.64C226.261 14.6267 226.267 14.62 226.281 14.62H226.301C226.701 14.6467 227.107 14.62 227.521 14.54C227.947 14.4467 228.407 14.4133 228.901 14.44H228.921L228.941 14.46C229.021 14.7 229.167 14.9267 229.381 15.14C229.594 15.3533 229.834 15.5133 230.101 15.62C230.367 15.7133 230.634 15.74 230.901 15.7C231.181 15.66 231.421 15.5 231.621 15.22C231.781 14.9533 231.834 14.6533 231.781 14.32C231.741 13.9733 231.581 13.6933 231.301 13.48C231.007 13.2667 230.647 13.1533 230.221 13.14C229.807 13.1267 229.434 13.1533 229.101 13.22C229.021 13.0467 228.974 12.84 228.961 12.6C228.947 12.36 228.947 12.1133 228.961 11.86C228.974 11.6067 228.987 11.36 229.001 11.12C229.027 10.8667 229.027 10.6467 229.001 10.46V10.44C229.227 10.36 229.501 10.3267 229.821 10.34C230.154 10.34 230.467 10.32 230.761 10.28C231.067 10.24 231.321 10.14 231.521 9.98C231.721 9.82 231.807 9.52667 231.781 9.1C231.767 8.64667 231.627 8.34667 231.361 8.2C231.107 8.05333 230.814 8.00667 230.481 8.06C230.147 8.11333 229.827 8.25333 229.521 8.48C229.214 8.69333 229.007 8.94 228.901 9.22C228.794 9.23333 228.601 9.24 228.321 9.24C228.041 9.24 227.747 9.24 227.441 9.24C227.147 9.24 226.881 9.24667 226.641 9.26C226.414 9.26 226.287 9.26 226.261 9.26V9.22C226.261 8.95333 226.247 8.65333 226.221 8.32C226.194 7.97333 226.234 7.65333 226.341 7.36C226.501 6.82667 226.781 6.38 227.181 6.02C227.594 5.66 228.061 5.38 228.581 5.18C229.114 4.98 229.674 4.86667 230.261 4.84C230.861 4.8 231.434 4.84 231.981 4.96C232.541 5.08 233.041 5.27333 233.481 5.54C233.934 5.80667 234.274 6.14 234.501 6.54C234.634 6.75333 234.714 6.98667 234.741 7.24C234.781 7.48 234.794 7.72667 234.781 7.98C234.807 9.11333 234.814 10.2333 234.801 11.34C234.801 12.4333 234.781 13.52 234.741 14.6C234.714 14.9867 234.694 15.38 234.681 15.78C234.667 16.18 234.574 16.56 234.401 16.92C234.214 17.36 233.954 17.74 233.621 18.06C233.301 18.38 232.894 18.62 232.401 18.78C231.907 18.9267 231.367 19 230.781 19C230.194 19.0133 229.647 18.9867 229.141 18.92C228.954 18.8933 228.767 18.8533 228.581 18.8C228.407 18.7467 228.227 18.6933 228.041 18.64C227.761 18.56 227.541 18.46 227.381 18.34ZM238.584 19H238.544L236.284 18.98H236.224C236.198 18.8333 236.178 18.6467 236.164 18.42C236.164 18.1933 236.164 17.9667 236.164 17.74C236.178 17.5133 236.184 17.3 236.184 17.1C236.198 16.9 236.204 16.7533 236.204 16.66C236.338 16.6067 236.524 16.5667 236.764 16.54C237.018 16.5133 237.271 16.5 237.524 16.5C237.778 16.5 238.011 16.5133 238.224 16.54C238.451 16.5533 238.611 16.58 238.704 16.62C238.704 16.6333 238.698 16.7467 238.684 16.96C238.671 17.16 238.658 17.3933 238.644 17.66C238.631 17.9267 238.618 18.1867 238.604 18.44C238.591 18.6933 238.584 18.8667 238.584 18.96V18.98V19ZM255.2 8.86C255.253 10.1 255.247 11.36 255.18 12.64L255.12 19.02C254.92 18.9933 254.7 18.98 254.46 18.98C254.22 18.98 253.98 18.98 253.74 18.98C253.5 18.98 253.267 18.9867 253.04 19C252.827 19 252.64 19 252.48 19C252.453 18.4267 252.433 17.8067 252.42 17.14C252.42 16.4733 252.413 15.7933 252.4 15.1C252.4 14.4067 252.38 13.7267 252.34 13.06C252.313 12.3933 252.267 11.78 252.2 11.22C252.107 11.3667 252 11.6 251.88 11.92C251.76 12.2267 251.64 12.5467 251.52 12.88C251.4 13.2133 251.287 13.5067 251.18 13.76C251.073 14.0133 250.993 14.14 250.94 14.14C250.873 14.14 250.793 14.0733 250.7 13.94C250.62 13.7933 250.533 13.6133 250.44 13.4C250.36 13.1867 250.273 12.96 250.18 12.72C250.087 12.48 250.007 12.26 249.94 12.06C249.873 11.86 249.813 11.6933 249.76 11.56C249.72 11.4267 249.7 11.36 249.7 11.36C249.593 12.6133 249.553 13.88 249.58 15.16C249.62 16.44 249.68 17.7 249.76 18.94C249.333 19.0067 248.867 19.0333 248.36 19.02C247.853 19.0067 247.387 19 246.96 19C246.933 19 246.913 18.98 246.9 18.94C246.887 18.8867 246.873 18.76 246.86 18.56C246.847 18.36 246.833 18.06 246.82 17.66C246.82 17.2467 246.82 16.7067 246.82 16.04C246.82 15.3733 246.82 14.5467 246.82 13.56C246.833 12.5733 246.84 11.4 246.84 10.04C246.853 8.68 246.867 7.09333 246.88 5.28C247.053 5.22667 247.253 5.19333 247.48 5.18C247.707 5.16667 247.94 5.16667 248.18 5.18C248.42 5.18 248.66 5.18667 248.9 5.2C249.14 5.2 249.373 5.19333 249.6 5.18H249.62C249.74 5.31333 249.86 5.52 249.98 5.8C250.1 6.06667 250.213 6.35333 250.32 6.66C250.427 6.96667 250.527 7.26 250.62 7.54C250.727 7.82 250.833 8.04 250.94 8.2C250.98 8.24 251.02 8.26 251.06 8.26C251.1 8.27333 251.16 8.14667 251.24 7.88C251.333 7.61333 251.427 7.30667 251.52 6.96C251.627 6.6 251.74 6.24667 251.86 5.9C251.993 5.55333 252.12 5.3 252.24 5.14C252.333 5.15333 252.5 5.15333 252.74 5.14C252.993 5.12667 253.26 5.11333 253.54 5.1C253.833 5.08667 254.127 5.08 254.42 5.08C254.727 5.06667 254.987 5.06 255.2 5.06C255.147 6.34 255.147 7.60667 255.2 8.86ZM263.562 8.98C263.895 8.99333 264.275 9.01333 264.702 9.04C264.715 9.12 264.722 9.2 264.722 9.28C264.735 9.36 264.742 9.44 264.742 9.52V9.72C264.702 11.16 264.709 12.58 264.762 13.98C264.815 15.3667 264.795 16.7733 264.702 18.2C264.702 18.3733 264.695 18.5467 264.682 18.72C264.682 18.8933 264.602 18.9933 264.442 19.02H264.202C263.989 19.02 263.769 19.0133 263.542 19C263.329 18.9733 263.115 18.96 262.902 18.96C262.755 18.96 262.609 18.9733 262.462 19C262.329 19.0133 262.189 19.02 262.042 19.02C261.949 18.9933 261.882 18.94 261.842 18.86C261.815 18.78 261.802 18.6867 261.802 18.58C261.802 18.4333 261.815 18.3133 261.842 18.22C261.869 18.1267 261.882 18.0133 261.882 17.88C261.562 18.2 261.155 18.4733 260.662 18.7C260.182 18.9267 259.709 19.04 259.242 19.04C258.722 19.04 258.275 18.86 257.902 18.5C257.542 18.14 257.242 17.6933 257.002 17.16C256.762 16.6267 256.582 16.0467 256.462 15.42C256.355 14.7933 256.302 14.2133 256.302 13.68C256.302 13.0133 256.389 12.4 256.562 11.84C256.735 11.28 256.969 10.8 257.262 10.4C257.569 9.98667 257.929 9.66667 258.342 9.44C258.755 9.2 259.195 9.07333 259.662 9.06C259.902 9.06 260.122 9.06667 260.322 9.08C260.535 9.08 260.729 9.11333 260.902 9.18C261.075 9.23333 261.229 9.32667 261.362 9.46C261.495 9.58 261.609 9.75333 261.702 9.98C261.689 9.76667 261.695 9.58667 261.722 9.44C261.762 9.28 261.782 9.12 261.782 8.96C261.782 8.94667 261.822 8.94 261.902 8.94C261.995 8.92667 262.095 8.92667 262.202 8.94C262.309 8.94 262.415 8.94 262.522 8.94C262.629 8.94 262.702 8.94 262.742 8.94C262.969 8.95333 263.242 8.96667 263.562 8.98ZM259.442 12.14C259.135 12.3933 258.949 12.6867 258.882 13.02C258.829 13.1933 258.795 13.3733 258.782 13.56C258.769 13.7333 258.762 13.9067 258.762 14.08C258.762 14.68 258.915 15.1933 259.222 15.62C259.542 16.0333 259.982 16.24 260.542 16.24C260.875 16.24 261.122 16.1867 261.282 16.08C261.455 15.96 261.575 15.8 261.642 15.6C261.722 15.3867 261.762 15.1333 261.762 14.84C261.775 14.5333 261.782 14.1933 261.782 13.82C261.782 13.3533 261.775 12.9867 261.762 12.72C261.762 12.44 261.729 12.2267 261.662 12.08C261.609 11.9333 261.509 11.84 261.362 11.8C261.229 11.76 261.022 11.74 260.742 11.74C260.195 11.74 259.762 11.8733 259.442 12.14ZM266.134 13.48C266.147 12.84 266.167 12.26 266.194 11.74V9.06C266.407 9.08667 266.627 9.09333 266.854 9.08C267.094 9.06667 267.327 9.05333 267.554 9.04C267.78 9.01333 267.994 8.99333 268.194 8.98C268.407 8.96667 268.6 8.97333 268.774 9C268.814 9.32 268.834 9.70667 268.834 10.16C268.834 10.6 268.827 11.0467 268.814 11.5C268.814 11.94 268.807 12.3667 268.794 12.78C268.78 13.18 268.787 13.5 268.814 13.74C268.814 14.3933 268.814 15.02 268.814 15.62C268.827 16.2067 268.827 16.7933 268.814 17.38C268.814 17.9533 268.787 18.5333 268.734 19.12C268.694 19.72 268.62 20.34 268.514 20.98C268.34 21.3933 268.054 21.72 267.654 21.96C267.267 22.2 266.82 22.38 266.314 22.5C265.807 22.62 265.267 22.6933 264.694 22.72C264.12 22.76 263.567 22.7667 263.034 22.74C262.967 22.54 262.927 22.32 262.914 22.08C262.887 21.84 262.88 21.6 262.894 21.36C262.907 21.12 262.927 20.8867 262.954 20.66C262.98 20.4333 263.007 20.2267 263.034 20.04C263.26 20.0533 263.527 20.0533 263.834 20.04C264.127 20.0267 264.42 19.9867 264.714 19.92C265.007 19.8667 265.28 19.7867 265.534 19.68C265.787 19.5733 265.98 19.4267 266.114 19.24C266.127 18.68 266.134 18.0733 266.134 17.42C266.134 16.7667 266.134 16.1067 266.134 15.44C266.134 14.7733 266.134 14.12 266.134 13.48ZM266.094 6.14C266.067 5.71333 266.06 5.19333 266.074 4.58L268.734 4.64C268.734 4.72 268.734 4.86667 268.734 5.08C268.747 5.28 268.754 5.50667 268.754 5.76C268.767 6 268.774 6.25333 268.774 6.52C268.787 6.77333 268.794 7 268.794 7.2C268.74 7.28 268.62 7.33333 268.434 7.36C268.247 7.38667 268.027 7.4 267.774 7.4C267.534 7.38667 267.267 7.37333 266.974 7.36C266.68 7.33333 266.407 7.32667 266.154 7.34C266.154 6.95333 266.134 6.55333 266.094 6.14Z" fill="#2B3A06"/>
<path d="M204.111 9.1246H203.167V7.40771H201.278V9.1246H193.722V7.40771H191.833V9.1246H190.889C189.841 9.1246 189.009 9.8972 189.009 10.8415L189 22.8597C189 23.804 189.841 24.5766 190.889 24.5766H204.111C205.15 24.5766 206 23.804 206 22.8597V10.8415C206 9.8972 205.15 9.1246 204.111 9.1246ZM204.111 22.8597H190.889V14.2753H204.111V22.8597ZM194.667 17.7091H192.778V15.9922H194.667V17.7091ZM198.444 17.7091H196.556V15.9922H198.444V17.7091ZM202.222 17.7091H200.333V15.9922H202.222V17.7091ZM194.667 21.1428H192.778V19.4259H194.667V21.1428ZM198.444 21.1428H196.556V19.4259H198.444V21.1428ZM202.222 21.1428H200.333V19.4259H202.222V21.1428Z" fill="#364908"/>
<path d="M318.26 17.94C318.26 18.18 318.267 18.4133 318.28 18.64C318.28 18.72 318.24 18.7867 318.16 18.84C318.08 18.88 317.98 18.9133 317.86 18.94C317.74 18.9667 317.607 18.9867 317.46 19C317.313 19 317.18 19 317.06 19C316.727 19 316.38 18.9867 316.02 18.96C315.673 18.92 315.367 18.8867 315.1 18.86V18.84V16.9C315.1 15.6067 315.14 14.3267 315.22 13.06C315.3 11.7933 315.34 10.5133 315.34 9.22C315.34 9.15333 315.34 9.09333 315.34 9.04C315.34 8.98667 315.333 8.92667 315.32 8.86C315.253 8.84667 315.193 8.9 315.14 9.02C315.087 9.12667 315.027 9.25333 314.96 9.4C314.893 9.53333 314.82 9.66 314.74 9.78C314.66 9.9 314.567 9.96 314.46 9.96C314.393 9.96 314.233 9.93333 313.98 9.88C313.727 9.82667 313.453 9.76 313.16 9.68C312.867 9.6 312.607 9.52 312.38 9.44C312.153 9.36 312.04 9.28667 312.04 9.22C312.053 9.06 312.12 8.84667 312.24 8.58C312.36 8.31333 312.5 8.02 312.66 7.7C312.833 7.38 313.02 7.05333 313.22 6.72C313.42 6.38667 313.607 6.08 313.78 5.8C313.953 5.52 314.1 5.28667 314.22 5.1C314.353 4.9 314.433 4.78667 314.46 4.76C314.767 4.74667 315.067 4.74 315.36 4.74C315.667 4.72667 315.973 4.72 316.28 4.72C316.627 4.72 316.973 4.72667 317.32 4.74C317.667 4.75333 318.02 4.77333 318.38 4.8C318.42 5.37333 318.447 5.94 318.46 6.5C318.473 7.04667 318.48 7.6 318.48 8.16C318.48 9.69333 318.44 11.2067 318.36 12.7C318.293 14.1933 318.26 15.7067 318.26 17.24C318.26 17.4667 318.26 17.7 318.26 17.94ZM328.584 8.54V8.62V8.74V9.1C328.584 9.20667 328.578 9.31333 328.564 9.42C328.551 9.52667 328.531 9.62667 328.504 9.72C328.398 10.2 328.231 10.6267 328.004 11C327.791 11.3733 327.471 11.7333 327.044 12.08V12.1C327.538 12.46 327.904 12.9 328.144 13.42C328.384 13.94 328.511 14.48 328.524 15.04C328.551 15.6 328.464 16.1533 328.264 16.7C328.078 17.2333 327.804 17.7 327.444 18.1C327.218 18.3667 326.924 18.5867 326.564 18.76C326.204 18.9333 325.811 19.06 325.384 19.14C324.958 19.22 324.511 19.2533 324.044 19.24C323.591 19.2267 323.151 19.1667 322.724 19.06C322.298 18.9533 321.911 18.8 321.564 18.6C321.218 18.4 320.938 18.1533 320.724 17.86C320.404 17.46 320.164 17.0067 320.004 16.5C319.858 15.98 319.791 15.4533 319.804 14.92C319.831 14.3733 319.944 13.8467 320.144 13.34C320.344 12.82 320.651 12.36 321.064 11.96C320.718 11.6 320.451 11.18 320.264 10.7C320.091 10.22 319.998 9.72 319.984 9.2C319.971 8.68 320.031 8.16667 320.164 7.66C320.311 7.15333 320.524 6.69333 320.804 6.28C321.098 5.86667 321.451 5.53333 321.864 5.28C322.291 5.01333 322.778 4.86667 323.324 4.84C323.791 4.82667 324.204 4.82 324.564 4.82C324.924 4.82 325.244 4.83333 325.524 4.86C325.818 4.88667 326.078 4.93333 326.304 5C326.531 5.06667 326.758 5.16667 326.984 5.3C327.078 5.36667 327.164 5.42667 327.244 5.48C327.324 5.53333 327.398 5.6 327.464 5.68C327.544 5.74667 327.631 5.84 327.724 5.96C327.818 6.06667 327.924 6.21333 328.044 6.4C328.084 6.46667 328.138 6.58 328.204 6.74C328.271 6.9 328.318 7.04 328.344 7.16C328.398 7.37333 328.438 7.55333 328.464 7.7C328.491 7.83333 328.518 7.99333 328.544 8.18C328.558 8.24667 328.564 8.30667 328.564 8.36C328.578 8.41333 328.584 8.47333 328.584 8.54ZM323.344 8.76C323.291 8.8 323.258 8.83333 323.244 8.86C323.231 8.86 323.224 8.86667 323.224 8.88V8.92C323.211 9.05333 323.218 9.2 323.244 9.36C323.271 9.50667 323.318 9.64667 323.384 9.78C323.464 9.91333 323.564 10.0267 323.684 10.12C323.818 10.2 323.978 10.2467 324.164 10.26C324.484 10.2867 324.731 10.1867 324.904 9.96C325.078 9.73333 325.158 9.49333 325.144 9.24C325.131 8.97333 325.018 8.74667 324.804 8.56C324.604 8.36 324.291 8.31333 323.864 8.42C323.838 8.43333 323.811 8.44 323.784 8.44C323.771 8.44 323.744 8.45333 323.704 8.48C323.638 8.50667 323.591 8.53333 323.564 8.56C323.538 8.58667 323.504 8.61333 323.464 8.64C323.438 8.66667 323.398 8.70667 323.344 8.76ZM325.304 14.86C325.318 14.8067 325.331 14.7667 325.344 14.74C325.344 14.7267 325.344 14.7133 325.344 14.7C325.358 14.6733 325.364 14.6467 325.364 14.62C325.364 14.5933 325.364 14.56 325.364 14.52C325.364 14.4667 325.358 14.4267 325.344 14.4C325.318 14.2933 325.278 14.1867 325.224 14.08C325.171 13.96 325.098 13.8667 325.004 13.8C324.858 13.6667 324.671 13.5667 324.444 13.5C324.231 13.4333 324.011 13.4267 323.784 13.48C323.598 13.5467 323.438 13.6733 323.304 13.86C323.171 14.0333 323.084 14.2267 323.044 14.44C323.018 14.64 323.038 14.8333 323.104 15.02C323.184 15.2067 323.338 15.3467 323.564 15.44C323.738 15.5067 323.924 15.54 324.124 15.54C324.338 15.54 324.531 15.5267 324.704 15.5C324.838 15.46 324.938 15.4133 325.004 15.36C325.071 15.32 325.118 15.2667 325.144 15.2C325.184 15.1333 325.224 15.0667 325.264 15C325.291 14.96 325.304 14.9133 325.304 14.86ZM332.329 19H332.289L330.029 18.98H329.969C329.942 18.8333 329.922 18.6467 329.909 18.42C329.909 18.1933 329.909 17.9667 329.909 17.74C329.922 17.5133 329.929 17.3 329.929 17.1C329.942 16.9 329.949 16.7533 329.949 16.66C330.082 16.6067 330.269 16.5667 330.509 16.54C330.762 16.5133 331.016 16.5 331.269 16.5C331.522 16.5 331.756 16.5133 331.969 16.54C332.196 16.5533 332.356 16.58 332.449 16.62C332.449 16.6333 332.442 16.7467 332.429 16.96C332.416 17.16 332.402 17.3933 332.389 17.66C332.376 17.9267 332.362 18.1867 332.349 18.44C332.336 18.6933 332.329 18.8667 332.329 18.96V18.98V19ZM332.329 12.28H332.289L330.029 12.26H329.969C329.942 12.1133 329.922 11.9267 329.909 11.7C329.909 11.4733 329.909 11.2467 329.909 11.02C329.922 10.7933 329.929 10.58 329.929 10.38C329.942 10.18 329.949 10.0333 329.949 9.94C330.082 9.88667 330.269 9.84667 330.509 9.82C330.762 9.79333 331.016 9.78 331.269 9.78C331.522 9.78 331.756 9.79333 331.969 9.82C332.196 9.83333 332.356 9.86 332.449 9.9C332.449 9.91333 332.442 10.0267 332.429 10.24C332.416 10.44 332.402 10.6733 332.389 10.94C332.376 11.2067 332.362 11.4667 332.349 11.72C332.336 11.9733 332.329 12.1467 332.329 12.24V12.26V12.28ZM334.19 8.06C334.35 7.56667 334.577 7.09333 334.87 6.64C334.924 6.54667 334.99 6.46 335.07 6.38C335.47 5.92667 335.917 5.56 336.41 5.28C336.904 4.98667 337.49 4.82667 338.17 4.8C338.85 4.77333 339.457 4.88 339.99 5.12C340.524 5.36 340.984 5.68667 341.37 6.1C341.757 6.5 342.07 6.96667 342.31 7.5C342.55 8.03333 342.724 8.58 342.83 9.14C342.897 9.56667 342.944 9.98 342.97 10.38C343.01 10.7667 343.017 11.1533 342.99 11.54C343.017 12.06 343.004 12.6133 342.95 13.2C342.897 13.7733 342.79 14.3467 342.63 14.92C342.484 15.48 342.277 16.0133 342.01 16.52C341.757 17.0133 341.444 17.4533 341.07 17.84C340.71 18.2133 340.284 18.5067 339.79 18.72C339.297 18.92 338.737 19 338.11 18.96C337.577 18.9333 337.11 18.8467 336.71 18.7C336.03 18.4467 335.504 18.1067 335.13 17.68C334.757 17.24 334.477 16.7533 334.29 16.22C334.117 15.6733 334.004 15.1 333.95 14.5C333.91 13.9 333.884 13.3 333.87 12.7C333.844 12.1933 333.824 11.68 333.81 11.16C333.797 10.6267 333.817 10.1 333.87 9.58C333.937 9.06 334.044 8.55333 334.19 8.06ZM337.49 15.46C337.584 15.54 337.704 15.5933 337.85 15.62C337.97 15.66 338.097 15.6867 338.23 15.7C338.364 15.7133 338.484 15.7 338.59 15.66C338.857 15.58 339.044 15.4533 339.15 15.28C339.257 15.1067 339.344 14.9133 339.41 14.7C339.517 14.3667 339.577 14.0467 339.59 13.74C339.604 13.4333 339.624 13.1067 339.65 12.76C339.664 12.4133 339.67 12.0333 339.67 11.62C339.684 11.1933 339.67 10.78 339.63 10.38C339.604 9.96667 339.544 9.58667 339.45 9.24C339.37 8.88 339.25 8.58667 339.09 8.36C338.797 7.97333 338.39 7.86667 337.87 8.04C337.737 8.06667 337.604 8.13333 337.47 8.24C337.35 8.34667 337.257 8.46 337.19 8.58C337.124 8.68667 337.064 8.87333 337.01 9.14C336.97 9.40667 336.93 9.70667 336.89 10.04C336.824 10.88 336.79 11.64 336.79 12.32C336.79 13 336.884 13.6933 337.07 14.4C337.11 14.52 337.144 14.6467 337.17 14.78C337.197 14.9 337.237 15.02 337.29 15.14C337.344 15.26 337.41 15.3667 337.49 15.46ZM344.444 8.06C344.604 7.56667 344.831 7.09333 345.124 6.64C345.178 6.54667 345.244 6.46 345.324 6.38C345.724 5.92667 346.171 5.56 346.664 5.28C347.158 4.98667 347.744 4.82667 348.424 4.8C349.104 4.77333 349.711 4.88 350.244 5.12C350.778 5.36 351.238 5.68667 351.624 6.1C352.011 6.5 352.324 6.96667 352.564 7.5C352.804 8.03333 352.978 8.58 353.084 9.14C353.151 9.56667 353.198 9.98 353.224 10.38C353.264 10.7667 353.271 11.1533 353.244 11.54C353.271 12.06 353.258 12.6133 353.204 13.2C353.151 13.7733 353.044 14.3467 352.884 14.92C352.738 15.48 352.531 16.0133 352.264 16.52C352.011 17.0133 351.698 17.4533 351.324 17.84C350.964 18.2133 350.538 18.5067 350.044 18.72C349.551 18.92 348.991 19 348.364 18.96C347.831 18.9333 347.364 18.8467 346.964 18.7C346.284 18.4467 345.758 18.1067 345.384 17.68C345.011 17.24 344.731 16.7533 344.544 16.22C344.371 15.6733 344.258 15.1 344.204 14.5C344.164 13.9 344.138 13.3 344.124 12.7C344.098 12.1933 344.078 11.68 344.064 11.16C344.051 10.6267 344.071 10.1 344.124 9.58C344.191 9.06 344.298 8.55333 344.444 8.06ZM347.744 15.46C347.838 15.54 347.958 15.5933 348.104 15.62C348.224 15.66 348.351 15.6867 348.484 15.7C348.618 15.7133 348.738 15.7 348.844 15.66C349.111 15.58 349.298 15.4533 349.404 15.28C349.511 15.1067 349.598 14.9133 349.664 14.7C349.771 14.3667 349.831 14.0467 349.844 13.74C349.858 13.4333 349.878 13.1067 349.904 12.76C349.918 12.4133 349.924 12.0333 349.924 11.62C349.938 11.1933 349.924 10.78 349.884 10.38C349.858 9.96667 349.798 9.58667 349.704 9.24C349.624 8.88 349.504 8.58667 349.344 8.36C349.051 7.97333 348.644 7.86667 348.124 8.04C347.991 8.06667 347.858 8.13333 347.724 8.24C347.604 8.34667 347.511 8.46 347.444 8.58C347.378 8.68667 347.318 8.87333 347.264 9.14C347.224 9.40667 347.184 9.70667 347.144 10.04C347.078 10.88 347.044 11.64 347.044 12.32C347.044 13 347.138 13.6933 347.324 14.4C347.364 14.52 347.398 14.6467 347.424 14.78C347.451 14.9 347.491 15.02 347.544 15.14C347.598 15.26 347.664 15.3667 347.744 15.46Z" fill="#2B3A06"/>
<path d="M293.491 7.40771C288.799 7.40771 285 11.2535 285 15.9922C285 20.7308 288.799 24.5766 293.491 24.5766C298.192 24.5766 302 20.7308 302 15.9922C302 11.2535 298.192 7.40771 293.491 7.40771ZM296.297 20.0354L292.65 16.3441V11.6999H294.35V15.6402L297.503 18.825L296.297 20.0354Z" fill="#364908"/>
</svg>
