<?xml version="1.0" encoding="UTF-8"?>
<svg id="Layer_2" data-name="Layer 2" xmlns="http://www.w3.org/2000/svg" viewBox="0 0 111.37 111.41">
  <defs>
    <style>
      .cls-1 {
        fill: #634020;
        stroke-width: 0px;
      }
    </style>
  </defs>
  <g id="Layer_1-2" data-name="Layer 1">
    <g>
      <path class="cls-1" d="m57.59,111.26c-10.07,0-18.06-.01-26.04,0-10.03.02-18.35-3.97-24.7-11.48-2.63-3.12-4.4-6.98-5.64-11.17C-.32,83.49.1,78.45.06,73.38c-.12-14.29-.02-28.58-.05-42.87-.01-4.09,1.16-7.82,2.62-11.6,1.5-3.87,3.61-7.3,6.65-9.91,2.74-2.36,6.04-4.12,9.2-5.95C25.21-.86,32.67.12,39.96.1c13.56-.04,27.12.03,40.68-.03,4.11-.02,7.95.9,11.53,2.82,2.95,1.57,5.93,3.15,8.63,5.1,3.58,2.59,5.52,6.49,7.49,10.35,2.91,5.71,3.13,11.78,3.08,17.99-.11,14.71.03,29.41-.08,44.12-.05,6.39-2.4,11.95-5.84,17.41-2.86,4.53-6.93,7.2-11.07,9.95-1.6,1.07-3.73,1.38-5.64,1.96-10.95,3.3-22.18.4-31.15,1.48Zm28.96-55.53c.53-17.34-14.44-31.03-30.82-31.14-16.73-.11-31.17,14.05-31.3,30.85-.14,17.16,14.69,31.38,31.22,31.32,16.33-.06,31.41-13.86,30.89-31.03Zm12.42-37.17c0-3.48-2.63-6.12-6.12-6.13-3.68-.01-6.37,2.57-6.38,6.12,0,3.52,2.83,6.31,6.37,6.28,3.42-.03,6.13-2.8,6.12-6.27Z"/>
      <path class="cls-1" d="m37.09,55.51c-.11-9.89,9.13-18.36,18.5-18.38,9.62-.01,18.56,8.66,18.46,18.64-.09,9.83-8.72,18.36-18.47,18.34-9.3-.02-18.73-8.3-18.49-18.6Z"/>
    </g>
  </g>
</svg>