<?xml version="1.0" encoding="UTF-8"?>
<svg id="Layer_2" data-name="Layer 2" xmlns="http://www.w3.org/2000/svg" viewBox="0 0 896.75 262.78">
  <defs>
    <style>
      .cls-1 {
        fill: #634020;
        stroke-width: 0px;
      }
    </style>
  </defs>
  <g id="Layer_1-2" data-name="Layer 1">
    <g>
      <path class="cls-1" d="m464.72,119.91h25.35v55.78c.49-.09.76-.06.93-.18,21.74-15.46,50.26-6.62,59.06,18.57,5.48,15.69,5.01,31.43-2.02,46.59-11.22,24.2-42.05,25.48-56.42,14.06-.31-.25-.67-.43-1.33-.85-.11,1.55-.19,2.82-.29,4.28h-25.26V119.91Zm63,95.29c-.21-.05-.43-.1-.64-.16,0-5.56-.77-10.92-3.81-15.76-4.17-6.62-10.46-8.29-17.73-7.62-6.36.58-11.03,3.83-13.41,9.69-1.29,3.17-2.07,6.68-2.34,10.1-.59,7.53.63,14.64,5.62,20.86,6.51,8.12,24.3,8.83,29.25-4.14,1.57-4.12,2.07-8.64,3.06-12.97Z"/>
      <path class="cls-1" d="m352.82,118.37h25.23v78.92c1.15-1.03,1.85-1.62,2.5-2.26,8.31-8.17,16.59-16.36,24.93-24.49.7-.68,1.8-1.33,2.72-1.34,9.66-.1,19.32-.06,28.97-.05.3,0,.59.1.74.13-12.78,12.95-25.55,25.88-38.44,38.94,14.22,15.98,28.35,31.85,42.76,48.04-1.14.08-1.85.18-2.55.18-9.41.01-18.82-.04-28.23.05-1.78.02-2.9-.61-4.02-1.9-9.2-10.63-18.45-21.21-27.67-31.82-.37-.42-.57-.99-.85-1.5-.26.15-.52.3-.78.45v34.58h-25.33V118.37Z"/>
      <path class="cls-1" d="m0,118.32h25.15v78.95c1.15-.99,1.83-1.52,2.43-2.11,8.3-8.17,16.57-16.37,24.92-24.5.75-.73,1.94-1.43,2.93-1.45,9.66-.11,19.31-.06,28.97-.05.24,0,.47.09.37.07-12.67,12.77-25.46,25.66-38.4,38.71,14.44,16.23,28.57,32.09,43.04,48.35-1.29.07-2.07.15-2.85.15-9.07,0-18.15-.07-27.22.06-2.21.03-3.69-.66-5.1-2.3-9.13-10.58-18.34-21.08-27.51-31.62-.31-.36-.52-.81-.78-1.21-.21.11-.43.23-.64.34v34.6H0V118.32Z"/>
      <path class="cls-1" d="m644.22,258.19h-25.1c-.07-1.31-.14-2.6-.23-4.1-.52.24-.98.36-1.35.62-21.27,14.88-50.08,5.57-58.53-19.01-5.11-14.86-5.09-29.85,1.16-44.28,11.52-26.59,39.07-27.24,53.98-18.69,1.5.86,2.88,1.94,4.66,3.15v-4.93h25.4v87.23Zm-24.45-43.82c-.44-3.03-.66-6.11-1.36-9.08-1.86-7.97-7.68-13.2-14.86-13.64-9.98-.62-16.36,2.88-19.38,11-3.03,8.15-3.07,16.48-.15,24.65,5,13.98,23.37,13.28,29.72,5.01,4.11-5.35,5.71-11.32,6.02-17.93Z"/>
      <path class="cls-1" d="m166.52,256.31h-25.14c-.07-1.43-.13-2.73-.2-4.12-2.75,1.54-5.29,3.28-8.06,4.44-16.71,7.02-43.23,3.03-51.76-23.39-4.78-14.8-4.65-29.63,1.48-44.1,6.69-15.78,22.54-24.63,39.52-22.59,6.88.83,13.06,3.07,18.8,7.79v-5.03h25.36v87Zm-24.17-44.05c-.86-3.94-1.31-8.04-2.68-11.8-2.57-7.07-8.06-10.53-15.55-10.75-7.57-.22-13.6,2.56-16.82,9.68-3.95,8.75-3.95,17.85-.54,26.7,5.09,13.2,23.29,12.54,29.58,4.03,3.94-5.34,5.53-11.24,6-17.87Z"/>
      <path class="cls-1" d="m318.68,256.23v-4.26c-.77.47-1.32.76-1.82,1.12-13.24,9.54-35,8.57-47.1-2.42-6.91-6.28-10.88-14.4-12.69-23.51-2.57-12.99-2.15-25.76,3.21-38.1,6.83-15.72,22.42-24.49,39.56-22.5,6.87.8,13.03,3.07,18.71,7.75.09-1.88.16-3.39.23-5.02h25.18v86.95h-25.28Zm-37.02-44.1c.41,3.75.55,6.41,1,9.02,1.47,8.4,7.03,14.05,14.55,14.94,9.05,1.07,15.84-2.55,19.43-10.67,3.55-8.05,3.59-16.36.66-24.55-2.73-7.65-8.73-11.35-17.05-11.17-7.99.18-14.05,4.32-16.42,11.79-1.19,3.75-1.6,7.75-2.17,10.64Z"/>
      <path class="cls-1" d="m265.72,169.14c-2.12,4.38-4.01,8.33-5.93,12.28-12.67,26.15-25.37,52.29-37.97,78.48-1,2.08-2.08,2.93-4.45,2.87-6.91-.17-13.82-.06-20.73-.06-.9,0-1.79,0-3.1,0,2.33-5.02,4.4-9.71,6.68-14.3.93-1.87.95-3.43.16-5.39-9.6-23.69-19.11-47.42-28.63-71.14-.31-.76-.58-1.54-.97-2.58.95-.07,1.73-.16,2.5-.17,7.66-.01,15.32.04,22.98-.04,1.75-.02,2.56.44,3.18,2.21,5.27,15.11,10.67,30.17,16.21,45.73,1-2.06,1.88-3.78,2.69-5.54,6.05-13.12,12.13-26.22,18.07-39.38,1.02-2.27,2.24-3.13,4.82-3.06,7.98.2,15.97.07,24.48.07Z"/>
      <path class="cls-1" d="m678.05,170.9v5.88c.65-.36,1.02-.49,1.28-.74,9.08-8.32,22.72-8.36,33.35-2.76.55.29,1.15,1.55.95,2.03-2.94,6.93-6.02,13.8-9.15,20.9-1.39-.93-2.66-1.68-3.82-2.57-3.51-2.69-7.56-2.91-11.66-2.34-3.84.54-6.79,2.79-7.86,6.47-1.27,4.34-2.48,8.87-2.61,13.34-.44,14.62-.38,29.25-.51,43.88,0,.99,0,1.98,0,3.16h-25.39v-87.25h25.42Z"/>
      <path class="cls-1" d="m737.85,136.21c-.45-6.51-1.34-13.03-1.27-19.54.13-11.63,3.14-22.5,10.45-31.85,5.39-6.9,12.25-11.87,20.31-15.25,12.09-5.07,24.5-8.51,37.77-7.66,6.39.41,12.45,2.01,18.02,5.25,1.13.66,2.16,1.49,3.75,2.61-10.53,2.68-18.34,8.75-25.76,15.94.32-2.41.64-4.82.95-7.19-2.46.7-7.21,4.56-10.51,9.23-2.76,3.91-5.1,8.12-8,12.81-.94-4.31-1.81-8.29-2.8-12.8-10.09,9.78-17.5,21.14-21.34,35.02-2.83-5.79-3.93-11.92-4.46-18.8-8.94,9.38-12.99,20.58-16.24,32.19-.29.02-.59.03-.88.05Z"/>
      <path class="cls-1" d="m799.55,43.83c-8.2-1.18-15.53.57-23.47,1.66,1.9-3.26,3.55-6.08,5.47-9.38-10.14-.93-19.04,2.88-28.64,5.95,3.53-6.79,7.3-12.71,13.26-17-5.02-2.43-16.81.66-30.68,8.21.89-1.77,1.32-3.04,2.07-4.07,8.44-11.76,19.84-19.02,34.03-21.68,14.4-2.71,26.08,2.84,36.04,12.79,12.32,12.31,18.54,27.48,20.8,45.08-9.31-11.01-22.01-14.05-35.25-17.13,2.17-1.51,3.97-2.75,6.39-4.43Z"/>
      <path class="cls-1" d="m896.75,214.1v3.18c-7.08,1.97-14.13,3.82-21.11,5.88-16.1,4.76-32.22,9.64-47.03,17.64-11.53,6.23-22.45,13.6-33.69,20.38-1.27.76-2.87,1.29-4.34,1.33-5.14.16-10.29.06-16.28.06,3.02-3.96,5.55-7.5,8.29-10.85,13.59-16.6,31.46-25.87,52.12-30.56,20.12-4.57,40.51-6.63,61.08-7.27.24,0,.48.1.96.2Z"/>
      <path class="cls-1" d="m862.29,209.27c-19.33,1.81-37.86,6.35-55.56,14.22-17.98,8-32.19,20.06-41.28,37.73-1.34,2.6-3.47.86-5.51,1.38,3.41-24.19,14.11-43.51,36.23-54.44,21.93-10.84,44.29-10.36,66.12,1.11Z"/>
      <path class="cls-1" d="m826.68,75.69c-4.75,7.57-9.51,14.76-13.86,22.19-7.08,12.11-12.85,24.87-14.56,38.9-1.01,8.28-1.11,16.76-.75,25.11.5,11.55,2.69,22.9,6.31,33.93.49,1.48,1.05,2.94,1.47,4.1-6.7,3.2-13.25,6.33-20.04,9.57-.4-3.72-1-7.79-1.25-11.88-1.23-20.55.35-40.84,5.93-60.72,6.33-22.59,17.32-42.51,34.22-59,.54-.52,1.08-1.04,1.63-1.54.18-.16.39-.29.89-.64Z"/>
      <path class="cls-1" d="m812.99,159.76c5.17-7.39,9.74-14.41,13.05-22.14-4.37,2.75-8.6,5.41-12.83,8.07-.21-.24-.42-.48-.64-.72,4.41-6.91,9.04-13.71,11.26-22.37-2.96,1.96-5.46,3.61-8.54,5.66,3.62-7.56,6.94-14.47,10.26-21.39-.26-.16-.52-.33-.79-.49-1.48,1.22-2.97,2.44-4.47,3.67,3.09-5.63,6.28-11.11,9.16-16.75,2.92-5.73,4.81-11.81,5.09-18.8.65.77,1.07,1.19,1.39,1.68,12.02,18.25,11.81,48-.54,66.01-5.15,7.51-11.98,13.05-20.3,16.77-.49.22-1.01.39-2.11.8Z"/>
      <path class="cls-1" d="m827.31,41.97c1.64.81,3.06,1.52,4.49,2.22.24-.17.49-.34.73-.51-2.02-5.82-4.05-11.63-6.29-18.07,2.94,1.53,5.5,2.86,8.41,4.37,0-6.6-2.13-12.43-3.63-18.8,3.17,2.43,5.99,4.59,9.25,7.1.21-6.49-1.69-12.22-2.59-18.29,16.59,17.38,13.66,51.35-5.46,65.57-1.63-7.81-3.26-15.62-4.93-23.6Z"/>
      <path class="cls-1" d="m834.69,67.38c5.22-5.75,11.11-9.87,18.21-11.78,4.02-1.08,8.37-1.58,12.52-1.39,9.14.42,15.03,5.72,18.12,14.04,1.41,3.8,2.08,7.88,2.74,11.97-3.32-4.57-6.43-9.13-11.99-11.94.22,5.85.09,11.35-2.28,16.86-1.96-6.79-5.39-12.15-11.67-16.1.51,3.86.94,7.16,1.38,10.45-6.83-8.83-16.66-10.65-27.02-12.1Z"/>
      <path class="cls-1" d="m851.77,108.82c-.63-5.39-1.2-10.28-1.77-15.18l-.86-.34-.85,2.07c-3.16-8.84-6.15-17.13-11.49-24.45,13.94,2.84,31.59,16.63,26.25,44.19-1.58-5.19-2.92-9.97-6.72-13.79-1.5,2.48-2.96,4.88-4.55,7.5Z"/>
    </g>
  </g>
</svg>