<svg width="375" height="111" viewBox="0 0 375 111" fill="none" xmlns="http://www.w3.org/2000/svg">
<path fill-rule="evenodd" clip-rule="evenodd" d="M338.502 96.4491C331.653 100.083 326.956 105.28 323.77 110.25H331.496C335.35 107.576 339.67 104.916 344.014 102.369C352.385 97.4626 366.737 93.3884 375.001 91.2975V89.7982C366.053 90.0201 349.604 91.1842 338.502 96.4491Z" fill="#684010"/>
<path fill-rule="evenodd" clip-rule="evenodd" d="M336.39 94.2719C349.268 88.264 361.003 88.0764 361.003 88.0764C361.003 88.0764 348.637 79.8509 332.715 87.4029C321.644 93.2765 318.519 103.544 317.707 110.25H319.746C322.455 104.567 327.552 98.3956 336.39 94.2719Z" fill="#684010"/>
<path fill-rule="evenodd" clip-rule="evenodd" d="M328.358 88.3433C328.358 88.3433 321.949 52.9036 346.203 31.3868C342.47 36.9565 334.178 48.1131 333.393 60.3804C332.608 72.6448 336.159 83.1489 336.88 84.1948C334.905 84.8197 331.308 86.0533 328.358 88.3433Z" fill="#684010"/>
<path fill-rule="evenodd" clip-rule="evenodd" d="M345.775 29.6185C345.775 29.6185 337.983 21.5482 319.459 30.0186C302.991 38.427 309.054 57.75 308.749 58.0215C308.749 58.0215 310.639 48.6938 315.686 43.8509C315.634 46.7258 316.738 50.4675 317.652 52.0583C317.882 47.2097 324.411 38.2612 326.646 37.0257C326.689 38.9699 326.784 40.4474 327.873 42.4716C329.483 38.4584 331.897 35.2492 335.464 32.9087C334.931 34.8196 334.866 35.9769 334.961 36.6523C336.216 34.9834 340.846 30.4301 345.775 29.6185Z" fill="#684010"/>
<path fill-rule="evenodd" clip-rule="evenodd" d="M348.871 31.2422C348.871 31.2422 355.026 39.0848 352.668 51.5722C350.309 64.0604 339.756 67.2754 339.756 67.2754C339.756 67.2754 343.438 62.5106 345.58 57.3924C342.477 60.5835 339.475 61.238 339.475 61.238C339.475 61.238 343.608 55.6082 344.414 51.5941C341.62 53.7097 340.639 54.0784 340.639 54.0784C340.639 54.0784 344.759 46.7292 345.035 44.6269C343.105 46.3901 342.269 46.9674 342.269 46.9674C342.269 46.9674 349.039 38.0989 348.871 31.2422Z" fill="#684010"/>
<path fill-rule="evenodd" clip-rule="evenodd" d="M346.34 27.9297C346.34 27.9297 345.747 14.0268 334.293 6.0185C322.839 -1.99172 308.923 9.03722 307.406 14.526C310.604 12.0093 316.16 9.96217 320.623 10.7042C317.411 12.3084 314.674 18.0829 314.674 18.0829C314.674 18.0829 323.125 14.5946 326.815 15.5624C325.255 17.5028 324.499 19.4451 324.499 19.4451C324.499 19.4451 331.63 17.9772 334.261 18.7507C332.348 19.8223 331.547 20.6244 331.547 20.6244C331.547 20.6244 342.783 22.2418 346.34 27.9297Z" fill="#684010"/>
<path fill-rule="evenodd" clip-rule="evenodd" d="M349.58 29.7648C349.58 29.7648 364.106 32.7521 360.78 48.9316C360.031 44.4498 357.947 42.6837 357.947 42.6837C357.947 42.6837 357.254 44.2726 355.823 46.3082C356.212 43.3857 355.173 39.2916 355.173 39.2916L354.416 40.4299C354.416 40.4299 352.755 33.558 349.58 29.7648Z" fill="#684010"/>
<path fill-rule="evenodd" clip-rule="evenodd" d="M347.735 28.0771C347.735 28.0771 353.328 23.8448 354.735 15.1621C356.142 6.48031 350.064 -7.62939e-05 350.064 -7.62939e-05C350.064 -7.62939e-05 351.519 6.21549 351.307 7.96633C348.741 6.03546 347.315 4.86283 347.315 4.86283C347.315 4.86283 349.233 11.126 348.908 12.8912C347.16 11.8776 345.188 10.8965 345.188 10.8965C345.188 10.8965 347.701 16.5024 347.922 18.8781C346.48 18.3961 345.661 17.4788 345.661 17.4788C345.661 17.4788 347.979 26.5511 347.735 28.0771Z" fill="#684010"/>
<path fill-rule="evenodd" clip-rule="evenodd" d="M348.844 28.6071C348.844 28.6071 354.215 22 362.387 23.0221C370.558 24.0433 370.544 34.4778 370.544 34.4778C370.544 34.4778 368.848 30.5922 365.509 28.8862C365.89 32.3859 364.939 35.3856 364.49 36.2524C364.124 32.8632 360.772 29.4406 359.616 29.3758C360.462 32.9241 360.189 34.2244 360.189 34.2244C360.189 34.2244 358.702 29.3901 348.844 28.6071Z" fill="#684010"/>
<path fill-rule="evenodd" clip-rule="evenodd" d="M0 49.7585H10.6914L10.6914 82.8552L22.6599 71.0684H36.0534L19.5953 87.4538L37.5499 107.634H23.5723L10.6914 92.8534L10.6914 107.634H0L0 49.7585Z" fill="#684010"/>
<path d="M59.3322 89.2426C59.3322 87.6598 59.1504 86.2621 58.7856 85.0463C58.4197 83.8759 57.9095 82.893 57.2528 82.0897C56.571 81.3352 55.7926 80.7511 54.9165 80.3364C53.9927 79.9478 52.8974 79.7523 51.6327 79.7523C50.4407 79.7523 49.3453 79.9478 48.3488 80.3364C47.4238 80.7761 46.6205 81.3954 45.941 82.1988C45.2342 83.051 44.7115 84.06 44.3718 85.2281C43.9809 86.4439 43.7866 87.8802 43.7866 89.5335C43.7866 91.2107 43.9695 92.647 44.3343 93.8389C44.649 95.0059 45.1615 95.9933 45.866 96.7944C46.5239 97.5989 47.2898 98.1818 48.1658 98.5466C49.1385 98.9613 50.2464 99.167 51.4872 99.167C52.6542 99.167 53.6996 98.9477 54.6245 98.5102C55.5006 98.1443 56.3165 97.5012 57.0709 96.5751C57.8232 95.6274 58.3834 94.5821 58.7481 93.4367C59.1367 92.2458 59.3322 90.8471 59.3322 89.2426ZM59.1129 107.635V105.663C58.3118 106.345 57.4459 106.928 56.5221 107.414C55.4279 107.949 54.3211 108.338 53.2019 108.582C52.0099 108.848 50.7929 108.983 49.5532 108.983C47.0216 108.983 44.699 108.533 42.5832 107.635C40.5141 106.782 38.7142 105.444 37.1825 103.619C35.6485 101.77 34.5429 99.6647 33.8611 97.3057C33.1066 94.9945 32.7305 92.3322 32.7305 89.3131C32.7305 86.5905 33.1066 84.0111 33.8611 81.5795C34.6406 79.2183 35.7825 77.1491 37.2915 75.3742C38.8233 73.5493 40.5993 72.1755 42.6196 71.2506C44.6138 70.3518 46.8534 69.9018 49.3339 69.9018C50.7214 69.9018 52.1065 70.0609 53.4928 70.3757C54.8313 70.7154 56.0358 71.2017 57.1062 71.8347C57.7141 72.2005 58.3834 72.6869 59.1129 73.2948V71.0688H69.8054V107.635H59.1129Z" fill="#684010"/>
<path d="M133.493 89.2436C133.493 87.6607 133.311 86.2631 132.946 85.0473C132.58 83.8769 132.069 82.894 131.413 82.0907C130.731 81.3362 129.954 80.7521 129.077 80.3374C128.153 79.9487 127.058 79.7533 125.794 79.7533C124.601 79.7533 123.507 79.9487 122.509 80.3374C121.585 80.7771 120.781 81.3964 120.1 82.1997C119.396 83.052 118.873 84.061 118.531 85.2291C118.142 86.4449 117.947 87.8812 117.947 89.5345C117.947 91.2117 118.13 92.6479 118.496 93.8399C118.81 95.0069 119.321 95.9943 120.027 96.7954C120.685 97.5999 121.451 98.1828 122.326 98.5475C123.299 98.9623 124.405 99.168 125.646 99.168C126.814 99.168 127.861 98.9487 128.786 98.5112C129.661 98.1453 130.475 97.5022 131.23 96.5761C131.984 95.6284 132.544 94.583 132.908 93.4376C133.298 92.2468 133.493 90.848 133.493 89.2436ZM133.274 107.636V105.664C132.471 106.346 131.607 106.929 130.682 107.415C129.587 107.95 128.48 108.339 127.362 108.583C126.17 108.849 124.953 108.984 123.713 108.984C121.183 108.984 118.859 108.534 116.743 107.636C114.675 106.783 112.874 105.445 111.343 103.62C109.81 101.771 108.704 99.6657 108.022 97.3067C107.268 94.9955 106.891 92.3332 106.891 89.3141C106.891 86.5915 107.268 84.0121 108.022 81.5805C108.801 79.2192 109.944 77.1501 111.453 75.3752C112.985 73.5503 114.761 72.1765 116.78 71.2516C118.774 70.3528 121.012 69.9028 123.494 69.9028C124.88 69.9028 126.268 70.0619 127.654 70.3766C128.991 70.7164 130.196 71.2027 131.267 71.8356C131.874 72.2015 132.544 72.6878 133.274 73.2958V71.0698H143.967V107.636H133.274Z" fill="#684010"/>
<path fill-rule="evenodd" clip-rule="evenodd" d="M147.488 49.758H158.18V82.8547L170.148 71.068H183.542L167.084 87.4533L185.037 107.634H171.061L158.18 92.8529V107.634H147.488V49.758Z" fill="#684010"/>
<path fill-rule="evenodd" clip-rule="evenodd" d="M84.254 103.144L80.9315 110.308H92.2069L110.164 73.2207L111.22 71.0675H99.5451L99.1065 71.9447L90.8593 89.8617L90.8229 89.8969L90.6411 90.3367L90.2025 91.248L90.1662 91.1014C90.0684 90.6889 89.9116 90.1514 89.6923 89.4969L89.656 89.4594L83.4882 72.0913L83.1598 71.0675H71.373L72.2116 73.148L84.254 103.144Z" fill="#684010"/>
<path d="M204.775 90.0087C204.775 91.62 204.971 93.0097 205.361 94.1812C205.702 95.4016 206.276 96.4515 207.081 97.3299V97.3662C207.715 98.2207 208.545 98.8661 209.571 99.3059C210.473 99.7445 211.521 99.9649 212.718 99.9649C215.184 99.9649 217.05 99.1718 218.319 97.5855C218.978 96.831 219.477 95.8413 219.819 94.6209C220.186 93.4244 220.37 91.9836 220.37 90.3019C220.37 88.6656 220.186 87.226 219.819 85.9829C219.428 84.7863 218.893 83.7728 218.209 82.9421C217.55 82.1365 216.745 81.515 215.793 81.0764C214.768 80.6855 213.671 80.49 212.499 80.49C210.034 80.49 208.155 81.2729 206.862 82.8353C206.178 83.6637 205.652 84.6511 205.288 85.7988C204.945 86.9464 204.775 88.3486 204.775 90.0087ZM204.994 74.0473C205.509 73.5587 206.19 73.0598 207.045 72.5474C208.144 71.9122 209.375 71.4258 210.741 71.0827C212.108 70.7645 213.488 70.6077 214.878 70.6077C217.343 70.6077 219.576 71.0577 221.577 71.961H221.613C223.59 72.8894 225.36 74.2666 226.921 76.0983C228.459 77.9538 229.593 80.0287 230.326 82.3206C231.082 84.6398 231.46 87.226 231.46 90.0815C231.46 93.062 231.094 95.73 230.364 98.098C229.631 100.515 228.508 102.627 226.996 104.429C225.482 106.236 223.676 107.579 221.577 108.458C219.428 109.361 217.111 109.812 214.623 109.812C213.376 109.812 212.145 109.68 210.924 109.41C209.778 109.142 208.68 108.751 207.63 108.238C206.703 107.775 205.824 107.188 204.994 106.48V108.458H194.27V50.4011H204.994V74.0473Z" fill="#684010"/>
<path d="M258.987 90.0087C258.987 88.4236 258.804 87.0192 258.438 85.7988C258.071 84.6273 257.558 83.641 256.899 82.8353C256.216 82.0786 255.436 81.4911 254.558 81.0764C253.629 80.6855 252.531 80.49 251.263 80.49C250.067 80.49 248.969 80.6855 247.968 81.0764C247.041 81.515 246.235 82.1365 245.552 82.9421C244.845 83.7966 244.319 84.8113 243.978 85.9829C243.588 87.201 243.392 88.6418 243.392 90.3019C243.392 91.9836 243.575 93.4244 243.942 94.6209C244.258 95.7925 244.77 96.7799 245.479 97.5855C246.137 98.3912 246.906 98.9775 247.786 99.3434C248.761 99.7581 249.872 99.9649 251.117 99.9649C252.287 99.9649 253.337 99.7445 254.264 99.3059C255.142 98.9388 255.961 98.2934 256.717 97.3662C257.473 96.414 258.034 95.3663 258.4 94.2164C258.791 93.0222 258.987 91.62 258.987 90.0087ZM258.767 108.458V106.48C257.962 107.164 257.095 107.75 256.169 108.238C255.07 108.776 253.96 109.165 252.838 109.41C251.64 109.68 250.421 109.812 249.176 109.812C246.638 109.812 244.308 109.361 242.184 108.458C240.111 107.603 238.304 106.261 236.766 104.429C235.23 102.578 234.118 100.466 233.436 98.098C232.679 95.7788 232.301 93.1074 232.301 90.0815C232.301 87.3475 232.679 84.7625 233.436 82.3206C234.217 79.9548 235.363 77.88 236.877 76.0983C238.414 74.2666 240.196 72.8894 242.221 71.961C244.222 71.0577 246.465 70.6077 248.957 70.6077C250.346 70.6077 251.738 70.7645 253.129 71.0827C254.471 71.4258 255.68 71.9122 256.754 72.5474C257.363 72.9132 258.034 73.4019 258.767 74.012V71.7792H269.493V108.458H258.767Z" fill="#684010"/>
<path fill-rule="evenodd" clip-rule="evenodd" d="M283.527 74.4483C285.431 72.5223 287.786 71.4474 290.594 71.2281C290.908 71.2042 291.225 71.1929 291.544 71.1929C293.959 71.1929 296.327 71.8519 298.645 73.1677L294.546 82.5046C293.571 81.7967 292.757 81.2525 292.112 80.8752C291.465 80.4957 290.496 80.3071 289.202 80.3071C287.226 80.3071 285.834 81.0638 285.028 82.5751C284.394 83.7477 283.985 85.267 283.802 87.1339C283.62 89.0008 283.527 90.678 283.527 92.1677V108.458H272.803V71.7053H283.527V74.4483Z" fill="#684010"/>
</svg>
