<svg width="17" height="17" viewBox="0 0 17 17" fill="none" xmlns="http://www.w3.org/2000/svg">
<g clip-path="url(#clip0_819_1597)">
<path d="M14.3077 16.3382C14.2858 16.0633 14.1763 15.797 13.9902 15.5737C13.8698 15.4362 13.7275 15.3074 13.5743 15.1871C13.0926 14.8005 12.5672 14.4827 12.1074 14.079C11.7133 13.7268 11.3083 13.3832 10.9143 13.031L6.84213 10.6944L1.82861 8.41803L6.51373 5.48877C9.84149 4.0628 13.4757 3.04915 16.8582 1.64036C16.913 1.62318 16.9677 1.59741 16.9896 1.55446C17.0224 1.49433 16.9896 1.4342 16.9458 1.37407C16.6502 0.970327 16.3 0.600949 15.884 0.265931C15.7745 0.171439 15.6541 0.0855368 15.5009 0.0339956C15.3038 -0.0261358 15.0849 -0.000365169 14.8769 0.0339956C13.0926 0.369013 11.9213 1.65754 10.4983 2.55951C9.27227 3.33263 7.82732 3.83086 6.37143 4.25178C5.75842 4.43218 5.025 4.53526 4.49957 4.81874C3.83183 5.17093 3.25166 5.75507 2.67149 6.18458C2.20079 6.53677 1.74104 6.88038 1.27034 7.23258C1.04046 7.40438 0.865313 7.55042 0.723007 7.77376C0.547863 8.04006 0.0662136 8.39226 0.0114803 8.67573C0.0114803 8.71869 0.0114822 8.77023 0.0333748 8.81318C0.252306 9.43167 0.766794 9.62066 1.32507 9.98144C2.0147 10.4281 2.62771 10.9693 3.27355 11.459C3.83183 11.8885 4.35726 12.3867 4.98122 12.7561C5.64896 13.1598 6.42616 13.4433 7.17053 13.7525C8.9986 14.5171 10.6734 15.4878 12.2826 16.5014C12.9394 16.9137 13.6071 17.3089 14.1982 16.6474C14.2311 16.6045 14.2748 16.5615 14.2858 16.5186C14.3077 16.467 14.3077 16.4241 14.3077 16.3726C14.3077 16.364 14.3077 16.3468 14.3077 16.3382Z" fill="#FAF7F3"/>
</g>
<defs>
<clipPath id="clip0_819_1597">
<rect width="17" height="17" fill="white" transform="matrix(-1 0 0 1 17 0)"/>
</clipPath>
</defs>
</svg>
